<!-- Generated by IcoMoon.io -->
<svg version="1.1" xmlns="http://www.w3.org/2000/svg" width="27" height="32" viewBox="0 0 27 32">
<title>a</title>
<path d="M15.648 13.856h-0.352v-0.768h0.352v0.768zM7.072 24.032h-1.408c0.256 0.544 0.576 0.8 0.928 0.8 0.32 0 0.48-0.256 0.48-0.8zM17.44 14.848c-0.608 0.576-1.152 0.864-1.632 0.864 0-0.032-0.032-0.096-0.032-0.128 0-0.576 0.96-1.408 1.408-1.472zM14.528 2.176c-0.48 0.512-0.896 0.768-1.28 0.768-0.32 0-0.64-0.16-0.96-0.512l0.256-0.736zM15.584 16.448c0 0.48-0.544 0.992-1.632 1.536v-1.088c0-0.192 0.096-0.384 0.256-0.608l0.384-0.544h0.736c0 0.096 0.256 0.352 0.256 0.704zM17.856 3.424c-0.256 0.416-0.48 1.056-0.928 1.92-0.256 0.48-1.6 1.376-1.856 1.728-0.224-0.16-0.512-0.416-0.928-0.768 0.416 0 0.736 0.192 0.896 0.544 0.16-0.32 0.256-0.736 0.256-1.28s-0.32-2.72-0.32-3.232h0.736c0.608 0.736 1.92 0.96 2.144 1.088zM11.424 14.24c-0.512-0.768-1.152-1.952-1.952-3.552-0.288-0.192-0.672-0.544-1.056-1.056l-0.96-1.248c-0.8-0.16-1.28-0.224-1.408-0.224-0.608 0-1.056 0.352-1.408 1.056 0.096 0.352 0.608 0.832 1.568 1.28l1.984 0.96c0.224 0.16 2.432 2.528 3.232 2.784zM12.768 20.032l0.512-0.704c-0.416-0.128-1.344-1.024-2.72-2.72-1.472-1.76-2.56-2.848-3.296-3.2-0.128-0.032-1.312-0.96-1.536-0.96h-0.832c-0.288 0.864-0.448 1.44-0.448 1.76v0.064l2.816 1.12c1.376 0.672 1.984 1.216 1.984 1.696l1.728 1.728c0.768 0.768 1.12 1.376 1.12 1.728v0.128c0.224-0.128 0.448-0.352 0.672-0.64zM23.456 9.664c-0.032 0.192-0.064 0.896-0.064 2.112-1.664 0.32-3.264 1.088-4.8 2.304h-0.896c-0.16 0-0.256-0.16-0.256-0.512 0-0.64 1.472-1.984 2.176-1.984 0.064 0 0.128 0 0.16 0.032 0.096-0.096 0.16-0.192 0.16-0.352s-0.096-0.384-0.224-0.64h1.248c0.064-0.16 0.128-0.416 0.192-0.768-0.864-0.8-1.504-1.216-1.984-1.216-0.352 0-0.672 0.288-0.928 0.896-1.056 2.496-0.448 1.376-2.112 3.104h-0.704l-0.48-0.512c2.976-4 4.48-6.528 4.48-7.68 0-0.224-0.32-0.48-0.512-1.088h0.736c0.512 0.352 0.832 0.992 0.928 1.92 0.288 0.32 0.96 0.64 1.984 0.992 0 0.608-0.256 0.928-0.736 0.928-0.256 0-0.928-0.16-1.152-0.16-0.224 0.256-0.352 0.48-0.384 0.672l0.96 0.48c0.416 0.224 0.704 0.32 0.928 0.32 0.288 0 0.928-0.416 1.12-0.416 0.384 0 0.576 0.256 0.576 0.48 0 0.128-0.064 0.32-0.192 0.544zM25.056 13.888c0 0.256-0.16 0.672-0.608 1.248-0.896 1.184-0.64 1.248-3.744 2.112-3.584 0.992-4.928 2.176-4.928 4.16 0 0.416 0.256 1.408 0.256 1.824 0.928 0.672 1.664 1.024 2.208 1.024 0.48 0 1.12-0.48 1.472-0.48 0.288 0 0.672 0.16 1.088 0.448 0.384-0.64 0.768-1.568 1.184-2.752-0.16-0.096-0.48-0.16-0.896-0.16v0c0 0.16-0.64 2.368-1.312 2.368-0.416 0-1.056-0.384-1.888-1.184l0.096-0.832c-0.384-0.256-0.576-0.544-0.576-0.864 0-0.992 2.272-2.368 3.424-2.368 0.384 0 0.928 0.224 1.44 0.64l1.248 1.056c0.096 0.512 0.16 0.96 0.16 1.376 0 0.32-0.096 0.768-0.16 1.248l-0.192 1.568-1.408 0.832c-0.32 0.192-0.832 0.288-1.504 0.288-0.096 0-1.056 1.024-1.984 1.024-0.704 0-2.176-0.256-2.976-1.536-0.576-0.896-1.088-1.056-2.144-1.184l-1.312-0.16c-0.608 1.824-1.088 2.688-3.584 2.688-0.736 0-1.248-0.128-1.472-0.352-0.32 0.096-0.64 0.128-0.96 0.128l-1.504-0.992c-1.472-0.96-1.536-1.472-1.536-2.144 0-1.92 1.6-3.872 3.648-3.872 0.416 0 1.344 0.448 1.696 0.48 0.448 0.544 0.672 1.152 0.672 1.888 0 0.544-0.192 1.44-0.608 2.656l0.544 0.544c0.704-0.128 1.92-1.376 1.92-2.048 0-1.024-0.64-2.016-1.952-3.104-1.12-0.928-5.824-3.552-5.824-3.584-0.16-0.384-0.256-1.12-0.256-2.208 0-0.96 0.064-1.504 0.192-1.6l1.664-0.832v-0.512c-0.224-0.096-0.512-0.16-0.928-0.16h-0.256c-0.288-0.544-0.416-1.024-0.416-1.44 0-1.056 1.216-2.112 2.24-3.104 0.48-0.832 1.696-2.816 3.776-2.816 0.128 0 0.832 0.096 2.144 0.256l0.864 1.408-0.256 2.368h-0.736c-0.096-0.288-1.184-2.048-1.952-2.432h-0.352c-0.512 0-0.896 0.16-1.248 0.512 3.36 3.296 5.024 6.016 5.024 8.16 0 0.384-0.064 0.768-0.16 1.12 0.096 0.128 0.16 0.352 0.16 0.672 0 0.8-0.032 1.184-0.032 1.152 0.672 0.48 0.992 1.184 0.992 2.112 0 0.128-0.064 0.32-0.064 0.416 0 0.064 0.192 0.096 0.384 0.096s1.504-0.416 1.632-0.416l5.184-3.712c0.224 0 0.608 0.192 0.832 0.192 0.576 0 0.992-0.224 1.248-0.672 0.064-0.096 0.448-2.080 0.96-2.208 0.416 0 1.376 1.248 1.376 1.664z"></path>
</svg>
