<!-- Generated by IcoMoon.io -->
<svg version="1.1" xmlns="http://www.w3.org/2000/svg" width="35" height="32" viewBox="0 0 35 32">
<title>ampersand</title>
<path d="M21.312 8.992v-0.224h-0.352v0.224h0.352zM22.208 3.104c0-0.448-0.416-1.216-1.376-1.216-0.288 0.288-0.416 0.672-0.416 1.216 0 0.288 0.096 0.608 0.288 0.96h0.704c0.544-0.544 0.8-0.864 0.8-0.96zM19.52 21.28c0 0.512-0.288 0.768-0.832 0.768-0.768 0-1.312-0.096-1.952-0.32-0.48-2.816-3.008-4.448-3.072-4.448-0.096 0-0.544 0.128-1.312 0.384v-0.416c0-0.288 0.768-0.928 1.184-1.056 0.384-0.128 1.056-0.192 2.016-0.192 0.352 0 0.64 0.192 0.832 0.544l0.672 1.632c0.288 0.736 0.576 1.28 0.896 1.664 0.384 0.224 1.568 0.576 1.568 1.44zM32.256 18.4c0 0.16-0.128 0.32-0.416 0.512l-0.768 0.512v0.384h-0.032c0 0.032 1.088 0.288 1.088 1.28 0 0.736-0.32 1.088-0.992 1.088-0.192 0-1.184-1.088-1.28-1.152l-0.864 1.376c-0.256 0-0.672 0.064-1.216 0.16-0.064-0.224-0.096-0.48-0.096-0.768 0-0.256 0.032-0.544 0.096-0.832-0.064-0.352-0.416-0.768-1.024-1.312-0.8-0.704-0.896-1.6-1.184-1.6-0.224 0-0.736 0.8-0.96 0.8-0.896 0-1.664-1.696-1.952-1.696-0.16 0-0.448 0.256-0.704 0.256-0.16 0-0.416-0.16-0.704-0.512-0.512-0.608-0.768-0.896-0.768-0.896-0.16 0.352-0.416 0.672-0.768 1.024-0.416-0.416-0.704-0.832-0.832-1.216 0.16-0.128 0.384-0.448 0.672-0.928h0.8c0.416 0 0.672-0.256 0.832-0.576l-0.832-0.608h-0.352c-0.16 0.32-0.256 0.576-0.256 0.736-0.256 0-1.568-0.224-1.632-0.224-0.16 0-0.448 0.16-0.832 0.512-0.352-0.096-0.64-0.352-0.928-0.736-0.352 0-1.376-0.288-1.6-0.288-0.096 0-0.288 0.064-0.64 0.224-0.928 0.416-1.216 0.256-2.336 0.448-0.544 0.256-1.408 1.696-1.568 2.272-0.8 0.288-1.984 0.8-3.584 1.472-0.32 0.128-0.48 0.48-0.48 1.056 0 0.448 0.16 0.96 0.48 1.568 0.48 0 0.864 0.16 1.216 0.736-0.096 0.096-0.224 0.352-0.32 0.448-0.224-0.032-1.312-0.768-1.44-0.768s-0.736 0.352-0.864 0.64h-0.576c-0.096-0.096-0.16-0.224-0.16-0.384 0-0.224 0.64-0.736 0.736-0.992 0.096-0.448 0.16-1.024 0.16-1.76 0 0.032-1.024-1.92-1.024-1.952v-0.544c0.256 0 0.992-0.16 1.216-0.16 0.16 0 1.44 0.64 1.632 0.672 0.16-1.248 0.256-2.336 0.256-3.296 0-0.64-0.16-1.056-0.512-1.216l-1.536-0.448c-1.056-1.056-2.144-1.728-2.208-2.368v-0.928c0-1.888 1.184-2.816 3.52-2.816 0.096 0 1.152 0.128 3.104 0.384 1.984 0.256 3.040 0.384 3.136 0.384 0.544 0 0.992-0.192 1.28-0.576-0.192-0.352-0.48-0.736-0.864-1.184-0.864-0.288-1.312-0.576-1.312-0.864 0-0.512 0.192-1.152 0.576-1.92 0.224-0.16 0.608-0.224 1.152-0.224 0.704 0 1.248 0.192 1.6 0.576v4.928c-0.48 0.608-0.928 0.928-1.408 0.928-1.024 0-6.528-1.408-6.656-1.408-0.864 0-2.72 0.768-2.72 1.344 0-0.032 0.32 0.704 0.992 2.24 0.224 0 1.44 0.288 1.504 0.288s1.856-0.384 1.888-0.384c0.704 0 1.408 1.152 2.112 1.152l1.536-0.48c0.096-0.032 0.192-0.032 0.32-0.032s0.288 0 0.448 0.032c0.096-0.032 0.256-0.032 0.512-0.032 0.064 0 1.76 0.512 1.824 0.512 0.096 0 1.504-0.512 1.6-0.512 0.16 0 0.736 0.256 0.96 0.256 0.256 0 0.8-0.64 1.216-1.12v-0.448c-0.576 0-0.864-0.32-0.864-0.992 0-0.192 0.032-0.384 0.096-0.544-0.064 0.032-0.128 0.032-0.192 0.032-0.512 0-0.864-0.512-0.864-1.088 0-0.352 0.128-0.64 0.416-0.8l-0.384-0.192c0-0.288 0-0.416 0.032-0.416-0.032-0.16-0.064-0.32-0.064-0.48s0.032-0.32 0.064-0.48l0.16-0.224c0.416 0 0.608-0.256 0.608-0.8 0-0.256-0.096-0.864-0.096-0.992 0-0.448 0.832-1.376 1.248-1.44l1.184-0.192c0.48-0.064 0.8-0.128 0.896-0.128 0.064 0 1.92 0.256 2.016 0.256 0.16 0 0.96-0.256 1.216-0.256 1.312 0 1.6 2.528 1.6 2.464 0 0.704-0.704 1.056-0.832 1.28l-0.8-0.288c-0.384-0.128-0.64-0.224-0.736-0.224-0.736 0-1.12 0.544-1.12 1.6 0 0.832 0.224 0.992 2.56 1.76v0.608h-0.736c-1.504 0-2.080 0.224-2.080 0.96 0 0.256 1.152 1.76 1.44 1.76 0.064 0 1.6-0.928 1.664-0.928 0.16 0 0.928 0.544 1.216 0.544s0.832-0.224 1.568-0.64c0.064-0.416 0.224-0.96 0.448-1.664 0.224-0.288 0.704-1.696 1.824-1.696 0.352 0 0.928 0.544 0.928 0.672 0 0.288-0.352 1.44-0.352 1.568 0 0.16 0.544 0.8 0.544 1.024s-0.512 0.864-0.544 0.896c0.416 0.416 0.64 0.672 0.64 0.768v0.832c-0.064 0.032-0.16 0.064-0.288 0.064-0.288 0-1.312-0.416-1.696-0.416-1.408 0-0.736 1.216-1.888 1.44l-1.408 0.096c-0.128 0.128-0.224 0.224-0.224 0.288 0.032 0.032 0.128 0.576 0.288 1.568l0.416 0.512c0.416 1.312 1.312 2.24 1.6 2.24 0.096 0 1.408-0.512 1.472-0.512 0.48 0 1.76 0.608 1.76 1.12z"></path>
</svg>
