<!-- Generated by IcoMoon.io -->
<svg version="1.1" xmlns="http://www.w3.org/2000/svg" width="35" height="32" viewBox="0 0 35 32">
<title>asciicircum</title>
<path d="M7.488 10.976l-0.16-0.512-0.192 0.064 0.16 0.448h0.192zM5.504 18.496v-0.224h-0.48v0.224h0.48zM15.392 9.12c0-0.288-0.416-1.056-0.672-1.312v-1.504c-0.096-0.64-0.416-0.96-0.928-0.96-0.448 0-1.056 0.672-1.344 0.672 0.352 0.416 0.512 0.928 0.512 1.6 0 1.088 0.032 1.632 0.032 1.664 0.48 0.544 0.864 0.832 1.12 0.832s1.28-0.704 1.28-0.992zM18.72 5.664v-0.96c-0.256 0.224-0.512 0.384-0.768 0.512-0.192-0.512-0.288-0.896-0.288-1.152-0.256 0.384-0.704 0.8-1.312 1.216-0.352 1.056-0.576 2.016-0.672 2.88 0.672 0.416 1.024 0.896 1.024 1.376 0 0.224-0.064 0.416-0.192 0.608 0.096 0.224 0.16 0.384 0.256 0.48 0.128-0.512 0.352-0.768 0.64-0.768 0.16 0 0.384 0.128 0.672 0.352 0.032-0.16 0.128-0.256 0.288-0.256l-0.352-0.704c-0.064-0.416-0.096-0.896-0.096-1.312 0-0.32 0.032-0.64 0.096-0.992 0.032-0.48 0.704-1.12 0.704-1.28zM32.128 13.504l-0.8 0.768c0.48 0.736 0.704 1.28 0.704 1.696 0 0.48-0.32 0.736-0.96 0.736-1.312 0-4.576-1.472-5.6-2.496l-0.8 0.384c-0.16-0.064-0.8-0.256-1.984-0.544-1.344-0.32-1.664-0.64-1.728-0.64-0.16 0-0.288 0.096-0.288 0.192v0.032c1.856 2.112 3.936 4.576 4.64 5.088 0.416 0 0.672-0.352 0.672-1.056v-0.352c0.672 0.224 1.728 0.48 3.168 0.768v0.448l-1.152 0.32-0.8-0.288-0.224 0.992 0.896 0.704c1.312-0.224 2.080-0.512 2.272-0.864-0.224-0.64-0.32-1.152-0.32-1.536 0.352-0.16 0.64-0.256 0.864-0.256 0.544 0 0.832 0.416 0.832 1.216 0 0.448-0.064 0.896-0.224 1.376-2.528 1.984-2.912 2.112-4.48 2.112-0.48 0-0.992-0.064-1.6-0.16-0.672-0.736-1.376-1.376-2.048-1.728-1.28-0.64-1.216-0.896-1.504-3.936-0.256-0.224-0.832-0.512-1.696-0.864l-0.704 0.48c0.288 0.384 0.416 0.832 0.416 1.408v0.352c1.024 1.28 1.6 2.144 1.6 2.592 0 0.544-0.48 0.928-1.472 1.088-0.544-1.12-1.056-2.016-1.536-2.624l0.16-0.768c-0.384-0.704-0.608-3.296-0.928-3.936-1.216 0.608-1.824 1.248-1.824 1.92 0 0.8 2.24 3.52 2.432 4.288 0.416 0.256 0.704 0.512 0.896 0.768l-0.512 0.608c-0.16-0.032-0.352-0.064-0.544-0.064-0.384 0-1.344 0.128-1.696 0.128-0.544 0-0.96-0.128-1.312-0.384-0.064-1.344-0.064-1.28-0.928-2.56 0.16-0.384 0.256-0.8 0.256-1.28 0-1.28-0.608-2.368-1.632-2.368-1.248 0-1.312 1.12-2.080 1.888-0.064-0.256-0.096-0.48-0.096-0.704 0-0.48 0.288-1.056 0.288-1.216 0-0.32-0.352-0.8-1.056-1.408-0.16 0.224-0.256 0.448-0.256 0.64 0 0.16 0.064 0.256 0.192 0.352h-0.192c-1.696 0-3.104 2.208-3.168 4.384-0.608 0.096-1.088 0.128-1.44 0.128-1.312 0-1.504-0.16-1.504-2.912 0.544-0.16 1.376-0.448 2.464-0.832l0.224-0.352c0-0.96-1.664-1.696-1.888-2.016l-0.736-0.32c-0.128-0.416-0.192-0.8-0.192-1.088 0-1.376 2.56-0.8 2.56-2.24 0-0.48-1.216-1.056-2.144-1.184-0.192-0.416-0.288-0.832-0.288-1.184 0-0.96 0.544-1.44 1.632-1.44 0.96 0 1.76 0.384 2.432 1.152 0.096 0.992 0.32 1.888 0.704 2.72l1.152 0.736 0.832-0.384 0.672 0.64 0.672-0.384-0.512-0.544c-0.032-0.288-0.064-0.544-0.064-0.832 0-2.368 1.568-5.12 3.744-5.824l0.736 0.768c0.352-0.288 0.928-0.576 1.696-0.896l1.504 0.288 0.416 0.736c0.864-0.224 1.312-0.512 1.408-0.896 1.152 0 1.856 0.224 2.112 0.704l-0.768 0.896 0.352 0.704 2.784-1.728c1.056-0.64 1.952-0.96 2.72-0.96 0.8 0 1.6 0.288 2.496 0.896 1.28 0.864 1.344 0.96 1.536 2.496l-1.312 1.984c-0.064 0.032-0.128 0.032-0.224 0.032-0.736 0-1.536-0.768-1.536-1.504 0-0.288 0.128-0.544 0.384-0.768-1.152-0.736-2.816-0.704-4.256-0.8-0.416 0.416-1.024 1.056-1.792 1.984l-0.64 0.064-0.8 1.056-0.032 0.128c-0.064 0-0.128-0.032-0.16-0.032-0.32 0-0.992 0.704-1.056 0.736l0.512 0.8c0.128-0.288 0.224-0.704 0.288-1.28l1.216-0.352c0.128-0.48 0.352-0.8 0.672-0.928v0.928l-0.544 0.544-0.224 1.408 0.704 0.704c0.704-0.032 1.6-0.416 2.656-1.184l1.152 0.672 0.576-0.256c0.032 0 0.096 0.032 0.16 0.032 0.64 0 3.456-1.056 3.872-1.056 0.608 0 0.928 0.384 0.928 1.152 0 0.704-0.544 0.672-1.472 0.896 0-0.032-0.288-0.064-0.928-0.128-0.256 0-0.832 0.416-0.832 0.704 0 0.736 2.688 0.768 3.232 1.92z"></path>
</svg>
