<!-- Generated by IcoMoon.io -->
<svg version="1.1" xmlns="http://www.w3.org/2000/svg" width="37" height="32" viewBox="0 0 37 32">
<title>asterisk</title>
<path d="M14.112 13.248c-0.352-0.384-0.576-0.576-0.608-0.576 0 0 0.16 0.288 0.448 0.896 0-0.096 0.064-0.192 0.16-0.32zM27.104 14.752c-0.192 0-0.288-0.096-0.288-0.256-0.096 0-0.384 0.256-0.48 0.256 0.096 0.096 0.128 0.192 0.16 0.352h0.448c0-0.096 0.064-0.192 0.16-0.352zM26.464 16.096c-0.16-0.288-0.384-0.448-0.608-0.448-0.096 0.16-0.16 0.416-0.16 0.736 0.224 0 0.672-0.288 0.768-0.288zM22.336 10.368c0 0.16-0.224 0.384-0.704 0.64-0.352-0.384-0.544-0.672-0.544-0.896 0.096 0 0.224-0.096 0.384-0.256h0.736c0 0.032 0.128 0.256 0.128 0.512zM24.64 16.992v-0.832h-0.16c-0.448 0-0.736 0.096-0.896 0.096-0.128 0-0.32-0.096-0.736-0.448v-0.352l0.096-0.096c0.416 0 0.672 0.032 0.768 0.128 0.096-0.096 0.096-0.352 0.192-0.448-0.352-0.384-0.64-0.576-0.864-0.576s-0.992 0.48-1.216 0.576l0.512 0.512-0.192 0.192h-0.32c-0.16 0-0.224-0.032-0.224-0.16v-0.064c-0.064 0.16-0.128 0.32-0.128 0.48 0 0.128 0.064 0.256 0.128 0.384 0.288-0.032 0.576-0.128 0.928-0.256 0.512 0.672 0.96 1.024 1.312 1.024 0.32 0 0.576-0.064 0.8-0.16zM9.12 15.584c-0.064-0.96-0.096-1.632-0.096-2.080 0-0.32 0.032-0.512 0.064-0.544h-0.704c-0.48 0.288-0.704 0.704-0.8 1.216l-0.256 1.152c0.288 0.288 0.672 0.416 1.088 0.416 0.352 0 0.608-0.064 0.704-0.16zM29.024 7.2c0-0.224-1.12-1.472-1.472-1.472-0.288 0-1.088 0.8-1.088 1.088 0 0.064 0.128 0.512 0.416 1.344 0.032 0 0.16-0.128 0.416-0.128 0.288 0 0.48 0.128 0.64 0.384 0.48-0.352 1.088-0.8 1.088-1.216zM28.128 21.12v-1.088c-0.768-0.768-1.152-1.184-1.152-1.248 0-0.288 0.16-0.512 0.512-0.672-0.288 0-0.672-0.16-1.152-0.512 0.032-0.032 0.128-0.256 0.32-0.256 0.064 0 0.16 0 0.288 0.064v-0.608c-0.064 0-0.16-0.064-0.288-0.16-0.736 0.576-1.088 1.248-1.088 2.016 0 1.408 1.6 2.624 2.112 2.624 0.256 0 0.352-0.16 0.448-0.16zM20.288 17.6c-0.512-0.096-0.768-0.352-0.768-0.736 0-0.16 0.064-0.352 0.16-0.512-0.096-0.288-0.224-0.704-0.352-1.216-0.384-0.16-0.96-0.448-1.696-0.8-0.16 0.448-0.576 0.672-1.312 0.672v0.608c0.256 0 0.864 0.128 1.088 0.128s0.416-0.256 0.64-0.256c0.288 0 0.512 0.096 0.704 0.32-0.096 0.096-0.096 0.224-0.192 0.32l-0.256-0.256c-0.096 0.096-0.288 0.16-0.544 0.16-0.096 0.48-0.16 0.896-0.16 1.184 0 0.736 0.448 1.376 0.992 1.376 0 0 0.512-0.128 1.568-0.416 0-0.288 0.032-0.48 0.128-0.576zM30.176 11.008c0-0.32-0.16-0.768-0.448-1.376-0.8-0.288-1.376-0.448-1.728-0.448-0.224 0-0.16 0.256-0.384 0.256-0.32 0-0.576-0.192-0.8-0.608h-0.736c0 0.032-0.128 0.064-0.128 0.288 0 0.096 0.768 1.408 0.768 1.504s-0.032 0.192-0.096 0.256h-0.672c0.736 0.416 1.472 0.704 2.208 0.8 0.352 0.224 0.576 0.352 0.608 0.352 0.32 0 1.408-0.672 1.408-1.024zM33.664 12.736c0 0.096-0.16 0.352-0.384 0.832l-0.544 1.12c-0.224 0-0.992 0.288-1.216 0.288-0.096 0-1.728-0.256-1.792-0.256-0.256 0-0.512 0-0.736 0.032-0.736 0.928-1.12 1.44-1.12 1.568 0 1.088 0.608 1.408 2.016 1.792 0.512 0.16 0.448 0.128 2.112 3.2 0.32 0.288 1.152 0.864 1.152 1.952 0 1.056-0.448 1.6-1.376 1.6-0.192 0-0.544-0.096-1.024-0.288-0.032-0.256-0.192-0.608-0.416-1.088-0.128-0.032-0.32-0.032-0.608-0.064-0.096-0.64-1.024-0.704-1.792-0.864-0.256 0.608-0.416 0.736-1.92 1.92-0.32-0.512-1.344-1.408-1.92-1.408h-0.16c-0.096-0.512-0.576-2.432-1.536-2.432-0.128 0-0.864 0.384-1.088 0.384-0.288 0-0.544-0.16-0.704-0.512-0.256 0.064-0.64 0.288-1.152 0.64-0.224-0.256-0.48-0.384-0.768-0.384-0.224 0-0.608 0.512-0.832 0.512-1.12 0-2.272-0.544-2.432-1.44-0.96 0-1.312 2.048-1.312 2.336 0 0.416 0.544 1.376 0.896 1.6l-0.384 1.152c-0.128 0.384-0.416 0.576-0.832 0.576-0.256 0-0.704-0.224-1.312-0.672-0.128-0.608-0.16-1.344-0.896-1.856-0.032 0-0.608-0.032-0.672-0.512 0.704 0 0.832-0.32 0.832-0.704 0-0.96-0.128-1.504-0.448-1.504-0.576 0-0.992 0.384-1.216 1.152-0.608-0.544-1.28-2.816-1.856-3.392 0.128-0.352 0.352-0.576 0.64-0.704 0-0.288-0.544-0.928-0.832-0.928-0.768 0 0.064 0.576-1.728 1.152l-0.128-0.864c-0.064-0.192-0.256-0.288-0.608-0.288-0.672 0-1.12 0.512-1.568 2.016-0.096 0.8 0 1.376-0.48 1.856-0.224-0.192-0.32-0.416-0.32-0.64 0-3.264 0.832-3.104 0.992-4.64l0.192-2.016 1.44-1.696c0.8-0.96 1.344-1.44 1.632-1.44 0.224 0 0.16 0.16 0.384 0.16-0.032 0 2.592-1.056 2.56-1.056 0.352 0 0.896 0.128 1.632 0.384 0.992 0.32 1.504 0.48 1.536 0.512l2.816 0.32c0.032 0 0.416 0.224 0.64 0.224l0.384-0.128c0.128 0 0.288 0.48 0.544 0.608l1.408 0.576c0.576 0.992 2.144 1.472 2.144 1.504v0c0.448 0 2.080-0.928 2.144-1.184-0.288-0.128-0.512-0.416-0.64-0.832l0.704-0.416c0.384-1.056 0.576-1.536 0.576-1.504 0-0.992-0.8-1.728-1.568-1.728-1.152 0-2.304 0.8-2.304 1.792h-0.736c-0.288-0.288-0.416-0.576-0.416-0.896 0-1.248 0.8-1.728 1.472-2.368l0.736-0.128c0.352-0.032 0.576-0.064 0.672-0.064 0.384 0 2.144 1.28 2.592 1.28 0.992 0 1.184-0.928 2.144-2.496 0.224-0.032 0.736-0.064 1.568-0.064 1.12 0 2.208 1.568 2.208 1.568 0 0.512-0.032 0.96-0.032 1.408 0 0.896 0.128 1.664 0.992 2.368 1.728 1.44 2.048 2.72 2.048 3.072z"></path>
</svg>
