<!-- Generated by IcoMoon.io -->
<svg version="1.1" xmlns="http://www.w3.org/2000/svg" width="35" height="32" viewBox="0 0 35 32">
<title>at</title>
<path d="M16.704 16.576c-0.288-0.48-0.512-1.056-1.152-1.312 0 0.224 0.032 0.448 0.032 0.672 0 0.256-0.032 0.48-0.032 0.704 0.128 0 0.448 0.128 0.992 0.384 0-0.16 0.064-0.32 0.16-0.448zM12.48 5.728c-0.96 0.544-1.952 1.152-2.976 1.888 0.16 0 0.608 0.16 0.832 0.16 0.16 0 0.608-0.256 0.768-0.256 0.512 0 1.024-0.352 1.376-1.792zM14.496 13.248c-0.224-0.384-0.64-0.928-1.184-1.6h-0.448c0 0.032 0.032 0.16 0.032 0.32s-0.032 0.384-0.032 0.64l-0.224-0.064c-0.288 0-0.832 0.416-0.832 0.704 0 0.48 0.128 0.928 0.416 1.344 0.48-0.16 0.736-0.48 0.736-0.992 0-0.224-0.096-0.448-0.256-0.608 0.128-0.128 0.256-0.192 0.416-0.192 0.16 0.128 0.256 0.352 0.256 0.608v0.128c0.128 0 0.48 0.16 0.608 0.16 0.16 0 0.256-0.064 0.32-0.16zM24.032 4.256c-0.288 0.384-0.48 0.768-0.576 1.184l-1.216 0.608c-0.448 0.288-0.672 0.64-0.672 1.056 0 0.256 0.128 0.736 0.128 0.96 0 0.288-0.128 0.512-0.416 0.736h-0.576c-0.16-0.288-0.256-0.608-0.256-0.96 0-0.544 0.736-2.656 0.736-3.2 0-0.096-0.512-1.152-0.512-1.184 0.48-0.512 0.992-1.184 1.536-1.184 0.672 0 1.056 0.192 1.184 0.608 0.224 0.736 0.448 1.184 0.64 1.376zM22.368 11.392c-0.032 0.16-0.672 0.928-0.672 1.088 0 0.32 0.8 1.856 1.12 2.208 0.288 0.352 0.864 0.672 0.864 1.6v0.16c0 0.736 0.224 1.12 0.672 1.216 1.184-1.28 2.208-4.032 2.208-4.544 0-0.8-0.512-1.216-1.568-1.216-0.16 0-0.384 0.128-0.512 0.128-0.352 0-1.056-0.224-2.112-0.64zM31.456 11.168l-1.216 1.12c-0.256-0.096-0.48-0.128-0.672-0.128-0.8 0-0.832 0.096-1.12 2.528-0.032 0.032-0.448 0.736-1.248 2.176l-1.344 2.432c0.128 0.32 0.192 0.672 0.192 0.992 0 0.416-0.096 0.8-0.288 1.216l-0.896 0.416-1.184-0.544-0.192-0.8c-0.096-0.288-0.256-0.48-0.448-0.608 0-0.8-0.384-1.984-1.12-3.552-1.056-2.24-1.6-3.456-1.664-3.648l-0.928-0.352c-0.352 0.064-0.608 0.16-0.768 0.256-0.608-0.32-1.184-0.48-1.728-0.48-0.192 0-0.352 0.032-0.448 0.096l-0.256-0.384-1.12 1.344c0.384 0.288 0.896 0.768 1.504 1.472l1.408-0.384 0.256 0.288c0.096 1.056 0.416 1.792 0.928 2.208 0.768 0.64 0.992 1.12 0.992 1.696 0 0.416-0.224 1.504-0.224 1.888 0 0.48 0.16 0.832 0.48 1.12l1.856-1.152c0.416 0 0.608 0.288 0.608 0.832 0 0.224-0.128 0.864-0.352 1.856-0.352 0-0.608-0.032-0.768-0.128-1.28 0.288-2.176 0.416-2.656 0.416-1.44 0-1.92-0.48-2.336-3.104-0.224-1.28-0.544-1.92-1.024-1.92-0.128 0-0.288 0.032-0.48 0.128-0.512-0.224-0.96-0.32-1.312-0.32-0.544 0-0.992 0.416-1.344 1.248-0.544 1.28-1.184 1.504-2.24 1.504-0.512 0-1.216-0.096-2.112-0.224l-2.080-0.288-0.48 1.504c-0.192 0.576-0.448 0.864-0.832 0.864-0.224 0-0.48-0.064-0.768-0.224-0.224-0.64-0.896-2.24-0.896-3.616 0-0.736 0.384-1.12 1.12-1.12 0.352 0 1.504 0.16 2.048 0.16 1.696 0 2.816-1.024 3.328-3.040l-2.912-2.848c-0.224-0.224-0.928-0.192-1.408-0.48-0.288-0.16-1.344-0.992-1.344-1.696 0-1.408 1.28-2.368 2.912-2.368 0.48 0 0.96 0.096 1.408 0.256 1.12-0.864 1.664-1.632 1.664-2.272 0-0.448-0.224-0.864-0.704-1.216v-0.576l0.288-0.288 0.672 0.512c1.024-0.352 1.792-0.864 2.272-1.536h1.504l0.128 0.448-1.088 0.96-0.768-0.512-1.472 1.024-0.48-0.256-0.288 0.224v0.448l1.344 0.608 1.088-0.384c0.064-0.032 0.128-0.032 0.192-0.032 0.384 0 0.768 1.28 0.8 1.312 1.728-0.832 1.856-0.864 1.856-1.088 0 0-0.128-0.128-0.128-1.824v-0.256l0.384-0.16 0.576 0.288c-0.032 0.128-0.032 0.256-0.032 0.416 0 0.736 0.16 1.664 0.16 1.824 0 0.32-0.064 0.608-0.16 0.896-0.672 0.16-0.704 1.024-0.832 1.696l-0.832 0.128-0.704-0.384-0.96 0.512c-0.256-0.096-0.448-0.128-0.672-0.128-0.256 0-0.48 0.064-0.672 0.224v0.736l0.896 0.512v0.448l-0.768 0.288c-0.992-0.608-1.792-0.896-2.368-0.896-0.64 0-0.96 0.32-0.96 0.928 0 0.896 0.8 2.208 1.696 2.272 0-0.064 0.896-0.48 2.656-1.216l-0.224-0.096c0.064-0.352 0.288-0.608 0.704-0.832-0.032-0.16-0.064-0.32-0.064-0.448 0-0.48 0.32-0.864 0.992-1.152 0.992-0.416 1.504-0.672 1.6-0.768l3.808 1.824 0.8-0.16 0.416-0.768 0.416 0.16 0.032 0.896c0.256 0.032 0.608 0.064 1.024 0.064 0.48 0 1.28-0.064 1.824-0.064 0.48 0 0.928 0.032 1.28 0.128l1.536-0.64c0-0.992-2.208-2.688-2.208-3.456 0-0.32 0.928-0.48 1.152-0.48 0.8 0 1.76 0.832 2.848 2.528 1.152 1.76 2.144 2.752 2.944 2.976z"></path>
</svg>
