<!-- Generated by IcoMoon.io -->
<svg version="1.1" xmlns="http://www.w3.org/2000/svg" width="39" height="32" viewBox="0 0 39 32">
<title>b</title>
<path d="M35.648 18.72c0 0.448-0.256 2.688-1.952 4.384-0.48 0.064-2.784 0.512-2.944 0.512-1.12 0-1.984-0.192-2.656-0.544v0c0-0.096-4.096-3.648-4.48-3.648-0.992 0-1.6 0.032-1.824 0.064-1.024 0.928-1.984 1.6-2.88 2.016l-0.32-1.312s1.408-0.704 1.632-1.088c-0.224-0.096-0.448-0.128-0.672-0.128-0.992 0-2.752 2.048-2.784 2.080v-0.832l0.384-0.896c0.672-1.312 2.784-1.76 2.848-1.76 0 0 4.512 1.28 5.44 1.408 0.128-0.128 0.16-0.192 0.16-0.288v-0.064l-2.24-2.048c-0.8-0.608-1.728-0.896-2.784-0.896-0.64 0-2.976 0.512-3.648 0.768-0.704 0.288-2.688 2.272-2.688 2.272-0.16-0.416-0.352-0.928-0.768-0.928-0.16 0-0.512 0.288-1.056 0.736-1.888 1.568-3.072 2.048-4.576 2.048-0.416 0-0.8-0.352-1.152-1.056 0.352-0.32 0.704-0.512 1.088-0.576 0.384-0.096 2.24 0.16 3.584-1.248-0.672-0.416-1.472-0.896-1.632-1.248 2.336-0.64 9.824-2.176 10.144-2.176 0.48 0 0.992 0.544 1.088 0.544-0.576-1.088-1.184-1.664-1.76-1.696-0.192 0.032-7.232 0.416-8.736 0.416 0-0.48-0.064-0.768-0.192-0.896-0.448 0.192-1.024 1.152-1.376 1.408-0.256-0.256-0.576-0.544-0.96-0.864l-1.824-0.48c-0.704-0.256-1.056-0.672-1.056-1.216 0-0.064 0.032-0.16 0.032-0.224 0.64 0 2.944 0.288 3.488 0.288-0.16-0.32-0.608-0.704-1.248-1.248-1.184-0.96-1.12-1.12-1.728-2.176 0.032-0.224 0.032-0.48 0.032-0.768 0-0.352 0-0.768-0.064-1.28-0.704 0-1.504-0.16-2.368-0.48v-1.76c0.768-0.512 1.408-0.768 1.952-0.768 1.248 0 1.856 0.48 1.856 1.408 0 0.288-0.096 1.28-0.096 1.696 0 1.312 0.576 2.304 1.696 2.976 0-0.768-0.48-2.944-0.48-3.392 0-0.416 0.096-0.768 0.32-1.024l0.704-0.256c0.928 0.448 1.856 1.248 1.856 1.824 0 0.512-0.416 1.152-0.416 1.888 0 1.536 0.512 2.624 1.536 3.296 0-0.384 0.32-0.928 0.576-0.928 0.032 0.096 0.064 0.192 0.064 0.32 0 0.224-0.128 0.8-0.128 1.024 0 0.128 0.032 0.224 0.064 0.288h6.112c0.512 0 0.416-0.288 0.48-0.352-1.536-1.216-1.504-1.184-3.968-5.376l0.32-0.8c0.512 0.256 0.832 0.384 0.992 0.384 0.096 0 0.224-0.032 0.32-0.096 0.032 0.064-1.632-1.728-1.632-2.176 0-0.256 0.096-0.48 0.32-0.704 0.128 0.064 0.32 0.128 0.576 0.128 0.32 0 0.672-0.064 0.864-0.064 0.128 0 0.224 0.032 0.288 0.032 0.992 1.216 1.6 2.208 1.824 2.944 0.288-0.608 0.608-1.024 0.928-1.184 0.608 0.608 0.896 1.12 0.896 1.536 0 0.256-0.256 2.816-0.256 3.808 0 0.896 1.472 4.96 3.2 4.96 0.48 0 0.384-0.352 0.48-0.384v-0.704c-0.064 0-1.408-3.072-1.408-4.16 0-0.256 0.032-0.48 0.096-0.704-0.384-0.544-0.576-0.992-0.576-1.408 0-0.8 0.448-1.408 1.344-1.76 0.16 0.64 0.384 1.504 0.608 2.624l0.256 0.192 0.672-0.704h0.832c0 0.128 0.192 0.928 0.192 1.088-0.736 1.344-0.864 1.632-0.864 3.328 0 0.672 0.256 2.080 0.8 4.288 0.032 0.352 0.768 1.056 0.768 1.184 0.16 2.976 2.016 4.576 3.584 4.576 1.792 0 3.488-1.408 3.488-3.264 0-1.088-0.896-2.336-1.856-2.336-1.088 0-1.632 0.288-1.632 0.832 0 0.288 0.128 0.576 0.352 0.8 0.384-0.192 0.736-0.288 1.056-0.288 0.16 0 0.32 0.032 0.448 0.096v1.056c-0.544 0.512-1.088 0.768-1.632 0.768-1.088 0-1.888-1.216-1.888-2.912 0-0.192 0-0.384 0.032-0.576 0.896-0.64 2.592-1.408 3.136-1.408 1.344 0 3.392 1.824 3.392 3.264z"></path>
</svg>
