<!-- Generated by IcoMoon.io -->
<svg version="1.1" xmlns="http://www.w3.org/2000/svg" width="44" height="32" viewBox="0 0 44 32">
<title>bracketleft</title>
<path d="M20.32 13.376c-0.128 0-0.8-0.224-0.928-0.224 0 0.256-0.16 1.088-0.16 1.344 0.288-0.256 0.672-0.64 1.088-1.12zM18.176 12.96c-0.64 0.32-1.12 0.704-1.504 1.056 0.16 0.128 0.992 0.64 1.12 0.64 0.064-0.416 0.192-0.992 0.384-1.696zM40.512 2.368c0 0.928-1.248 3.776-4.16 3.776-0.512 0-0.896-0.064-1.12-0.192-0.032 0.128-0.064 0.288-0.064 0.448 0 0.416 0.288 1.792 0.288 1.888 0 1.12-0.672 1.76-1.44 1.76-0.64 0-1.536-1.152-1.728-2.048 0.032-0.096 0.064-0.224 0.064-0.32 0-0.928-0.896-1.376-1.408-1.376h-0.16c0 0.224 0.32 0.512 0.96 0.864v0.736c-0.16-0.128-0.704-0.64-1.6-1.568-0.352-0.384-0.992-0.576-1.856-0.576-2.080 0-4 0.768-5.728 2.272-0.192 0.032-0.48 0.224-0.832 0.576-0.128 0.224-1.952 3.136-1.952 3.36 0 0.288 0.8 0.8 0.896 1.184 0.16-0.064 0.992-0.8 2.528-2.176 1.408-1.28 2.464-1.92 3.168-1.92s3.072 0.224 3.072 1.824c0 0.288-0.032 0.544-0.128 0.8 0.608 0.896 2.048 1.184 2.24 1.376 0.576 0.512 1.408 2.624 1.408 3.392 0 0.224-0.16 0.576-0.48 1.056-0.768 1.152-1.536 1.44-2.72 1.44-1.024 0-1.856-1.504-1.856-2.72 0-0.448 0.256-0.928 0.768-1.44-0.48-0.704-0.928-1.056-1.344-1.056-0.064 0-2.656 0.608-3.392 0.64-0.416 0.416-1.536 1.088-3.264 1.088-0.16 0.352-0.352 0.832-0.448 1.472-0.256 1.536-0.608 1.824-1.632 1.984 0.128 0.352 0.8 0.736 0.896 0.832 1.952-1.696 3.168-2.528 3.584-2.528 0.384 0 0.864 0.672 0.896 1.056l-0.544 1.12h0.384c2.208 0 4.096 2.496 4.096 4.512 0-0.032-0.256 1.888-0.256 2.464 0 0.256 0.032 0.48 0.064 0.672l-0.48 0.448-0.64-0.48c-0.288-0.192-0.512-0.288-0.736-0.288-0.288 0-0.32 0.192-0.672 0.192-0.992 0-2.304-1.824-2.304-2.72 0-0.416 1.408-1.472 2.144-1.888-0.096-0.352-0.672-0.832-1.088-0.832-1.344 0-4 0.96-5.568 3.52-1.376 2.464-4.192 2.88-8.192 2.88-1.056 0-1.728-0.16-2.208-0.48-0.864-0.544-2.56-3.616-2.56-4.672 0-0.256 0.224-1.408 0.256-1.792 0.288-0.16 2.24-2.368 2.464-2.368 0.096 0 1.856 0.448 2.080 0.48 0.544 0.704 0.832 1.28 0.832 1.76 0 0.544-0.416 1.344-1.216 2.4-0.448 0-0.928-0.384-1.44-1.152l-0.864 0.32c-0.512 0.192-0.704 0.512-0.704 0.768l-0.032-0.032s-0.032 0.064-0.032 0.32c0 0.544 0.256 0.864 0.768 1.024v0c0.032 0 2.208 0.16 2.208 0.704 0 0.16-0.096 0.384-0.256 0.672 0.096 0.064 0.256 0.096 0.48 0.096 0.352 0 0.992-0.192 1.952-0.608 2.080-0.896 2.624-1.344 2.752-2.208 0.032-0.288 0.448-2.56 0.448-2.784 0-1.152-1.664-3.008-1.728-3.264h0.256c0.416 0 0.704-0.064 0.896-0.16-0.096-0.16-0.224-0.512-0.384-0.992-0.512-1.536-1.6-2.624-3.264-4.064-1.6-1.344-3.424-0.608-4.096-1.664v-0.704c0.384-0.224 0.96-0.672 1.728-1.28-0.192-0.416-0.384-1.024-0.544-1.888-0.416-2.144-0.832-2.848-1.92-3.776l-0.768-0.32c-0.416-0.384-0.64-0.768-0.64-1.184 0-0.384 0.224-0.768 0.224-0.864 1.216 0.096 4.032 0.608 5.632 4.896 0.032 0.096 1.376 1.76 1.376 2.56-0.032 0.16-0.256 1.024-0.256 1.28 0.704 0.768 1.216 1.152 1.536 1.152 0.352 0 0.256-0.224 0.608-0.224 0.832 0 0.864 1.376 2.496 1.376 0.288 0 0.672-0.192 1.152-0.672-0.096-0.16-0.448-2.592-1.408-2.816-0.064 0.032-0.768 0.576-1.088 0.576-0.512 0-1.536-1.472-1.536-1.856 0-0.096 0.224-1.664 0.224-2.112 0-0.416 0.992-1.28 1.408-1.28 0.096 0 0.416 0.128 0.96 0.416 0.96 0.512 1.056 0.832 1.056 1.216s0 0.864-0.128 1.376c0.416 0.48 0.928 1.184 1.6 2.080 0.032 0.256 0.096 0.64 0.224 1.152 0.704-0.224 1.28-0.864 1.76-1.92 1.44-3.328 3.392-4.256 6.4-4.864l4.992-0.64c0.096-0.032 1.856-1.12 2.048-1.12 0.64 0 0.992 0.416 0.992 1.28 0 0.16-0.032 0.32-0.032 0.48 0.032 0 0.512 0.16 0.896 0.16 0.032 0 3.456-1.728 3.488-1.728 0.608 0 1.248 0.768 1.248 1.44z"></path>
</svg>
