<!-- Generated by IcoMoon.io -->
<svg version="1.1" xmlns="http://www.w3.org/2000/svg" width="39" height="32" viewBox="0 0 39 32">
<title>c</title>
<path d="M35.648 5.6c-0.864 0.32-1.664 0.48-2.368 0.48-0.064 0.192-0.128 0.416-0.128 0.704 0 0.704 0.096 1.152 0.096 1.344l-0.48 0.896c-0.288 0.512-2.24 1.984-2.496 2.528 0.544 0 2.848-0.288 3.488-0.288v0.224c0 0.544-0.352 0.96-1.024 1.216l-1.824 0.48c-0.16 0.224-0.512 0.512-0.992 0.864-0.288-0.256-0.896-1.216-1.344-1.408-0.128 0.128-0.192 0.416-0.192 0.896-1.12 0.032-2.848-0.032-5.184-0.192-2.336-0.128-3.52-0.192-3.52-0.224-0.608 0-1.216 0.576-1.792 1.696 0.096 0 0.608-0.544 1.088-0.544 0.32 0 7.808 1.536 10.144 2.176-0.096 0.16-0.64 0.576-1.632 1.248 0.48 0.544 0.96 0.864 1.408 1.024 0.416 0.16 2.336-0.064 3.264 0.8-0.352 0.704-0.736 1.056-1.152 1.056-0.896 0-1.792-0.224-2.688-0.704-0.768-0.384-2.72-2.080-2.944-2.080-0.416 0-0.608 0.512-0.768 0.928-0.032 0-1.984-1.984-2.688-2.272-0.704-0.256-3.008-0.768-3.648-0.768-1.056 0-1.984 0.288-2.784 0.896l-2.24 2.048v0.064c0 0.096 0.032 0.16 0.16 0.288 0.928-0.128 5.408-1.408 5.44-1.408 0.352 0 1.088 0.352 2.272 1.024 0.224 0.128 0.544 0.672 0.96 1.632v0.832c-0.032-0.032-1.792-2.080-2.816-2.080-0.224 0-0.416 0.032-0.64 0.128 0.224 0.384 1.632 1.088 1.632 1.088l-0.32 1.312c-0.896-0.416-1.856-1.088-2.88-2.016-0.224-0.032-0.832-0.064-1.824-0.064-0.384 0-4.608 3.648-4.48 3.648v0c-0.672 0.352-1.536 0.544-2.656 0.544-0.16 0-2.496-0.448-2.944-0.512-1.696-1.696-1.952-3.936-1.952-4.384 0-1.44 2.016-3.264 3.392-3.264 0.384 0 3.168 0.768 3.168 1.984 0 1.696-0.8 2.912-1.888 2.912-0.544 0-1.088-0.256-1.632-0.768v-1.056c0.128-0.064 0.288-0.096 0.448-0.096 0.32 0 0.672 0.096 1.056 0.288 0.224-0.224 0.352-0.512 0.352-0.8 0-0.544-0.544-0.832-1.632-0.832-0.992 0-1.856 1.248-1.856 2.336 0 1.856 1.696 3.264 3.488 3.264 1.248 0 2.304-0.832 3.2-2.496 0.192-0.352 0.352-1.92 0.384-2.080 1.408-1.408 1.568-5.248 1.568-5.472 0-1.696-0.128-1.984-0.864-3.328 0-0.16 0.192-0.96 0.192-1.088h0.832l0.672 0.704 0.256-0.192 0.608-2.624c0.896 0.352 1.344 0.96 1.344 1.76 0 0.416-0.192 0.864-0.576 1.408 0.064 0.224 0.096 0.448 0.096 0.704 0 0.672-0.224 1.536-0.704 2.56s-0.704 1.568-0.704 1.6v0.704c0.096 0.032 0 0.384 0.48 0.384 1.792 0 3.168-4.192 3.168-4.96 0-0.992-0.224-3.552-0.224-3.808 0-0.416 0.288-0.928 0.896-1.536 0.32 0.16 0.64 0.576 0.928 1.184 0.224-0.736 0.832-1.728 1.824-2.944 0.096 0 0.224 0.032 0.352 0.032 0.352 0 0.832-0.064 1.376-0.128 0.224 0.224 0.32 0.448 0.32 0.704 0 0.448-1.664 2.24-1.632 2.176 0.096 0.064 0.224 0.096 0.32 0.096 0.16 0 0.48-0.128 0.992-0.384l0.32 0.8c-2.496 4.192-2.432 4.16-3.968 5.376 0.032 0.064-0.032 0.352 0.48 0.352h6.112c0.032-0.064 0.064-0.16 0.064-0.288 0-0.224-0.128-0.8-0.128-1.024 0-0.128 0.032-0.224 0.064-0.32 0.256 0 0.576 0.544 0.576 0.928 1.024-0.672 1.536-1.76 1.536-3.296 0-0.736-0.416-1.376-0.416-1.888 0-0.576 0.896-1.376 1.856-1.824l0.704 0.256c0.192 0.256 0.288 0.608 0.288 1.024 0 0.448-0.448 2.624-0.448 3.392 1.12-0.672 1.696-1.664 1.696-2.976 0-0.416-0.096-1.408-0.096-1.696 0-0.928 0.608-1.408 1.824-1.408 0.544 0 1.216 0.256 1.984 0.768v1.76z"></path>
</svg>
