<!-- Generated by IcoMoon.io -->
<svg version="1.1" xmlns="http://www.w3.org/2000/svg" width="77" height="32" viewBox="0 0 77 32">
<title>colon</title>
<path d="M74.688 14.208l-0.224 1.088c-0.096 0.032-0.224 0.032-0.32 0.032-0.448 0-1.568-0.384-1.824-0.384l-14.464 0.384c-0.64 0.032-18.944 2.528-19.264 2.528h-0.128c-10.976-1.376-20.096-2.080-27.296-2.080-1.536 0-3.072 0.032-4.576 0.064l-1.472 0.192c-0.672 0.096-1.152 0.128-1.504 0.128-0.608 0-1.184-0.128-1.696-0.352v-0.992c0.384-0.704 7.392-0.832 16.448-0.96 2.208-0.032 5.696-0.544 10.464-1.472 4.608-0.864 8-1.28 10.208-1.28 0.768 0 1.888 0.256 3.456 0.704 5.44 1.568 10.336 1.76 18.208 1.76 3.136 0 10.72 0 12.96-0.448z"></path>
</svg>
