<!-- Generated by IcoMoon.io -->
<svg version="1.1" xmlns="http://www.w3.org/2000/svg" width="48" height="32" viewBox="0 0 48 32">
<title>d</title>
<path d="M10.816 15.424c0 0-0.032-0.032-0.032-0.064 0 0.032 0.032 0.032 0.032 0.064zM10.784 15.584c0-0.032 0-0.096 0.032-0.128v0.032c0 0.032 0 0.064-0.032 0.096zM26.784 19.744v-0.384h-0.576v0.384h0.576zM17.024 17.728c0.384 0 0.672-0.224 0.928-0.768-0.064 0.032-0.192 0.032-0.416 0.032s-0.384-0.032-0.512-0.128l-0.512 0.576c0.032 0.192 0.192 0.288 0.512 0.288zM11.136 11.392l-1.504-0.864c-0.608-0.352-1.056-0.544-1.28-0.544-0.736 0-1.184 0.992-1.696 1.792v0.768c0.096 0 0.704 0.256 1.056 0.256 0.48 0 1.056-0.16 1.728-0.512zM44.832 19.328c0 1.44-0.288 2.528-0.864 3.264-0.224 0.256-1.152 0.448-1.312 0.544-1.088 0.992-2.336 1.472-3.712 1.472-1.536 0-2.976-0.384-4.288-1.216-0.768-0.48-3.904-3.52-4.832-3.52-0.512 0-1.216 0.48-2.144 1.408 0.704 0.672 1.056 1.248 1.056 1.696 0 0.768-0.64 1.856-1.28 1.856-0.864 0-0.672-1.248-0.736-1.312-0.384 0.544-0.832 1.056-1.344 1.504 0-0.448-0.128-0.8-0.384-1.056-0.064 0.064-0.64 1.056-0.96 1.056h-0.64c-0.256-0.032-0.48-0.032-0.64-0.032v-1.184c0-0.192 0.064-0.512 0.224-0.928l0.288-0.8c1.12-1.056 2.080-1.856 2.912-2.336-0.096-0.096-0.192-0.128-0.256-0.128-0.576 0.032-2.080 1.184-3.136 2.112l-2.976 2.656-0.288-1.184c0.448-0.608 0.96-1.376 1.504-2.336-0.16-0.128-0.512-0.32-0.672-0.448 0.576-0.576 2.592-0.576 3.488-1.216 0.256-0.224 0.544-0.48 0.896-0.736 0.352-0.064 2.080-0.448 2.080-1.024-0.672-0.672-1.312-0.992-1.952-0.992-0.864 0-1.44 0.096-1.76 0.288l-1.536 0.768c-0.64 0.32-1.088 0.736-1.376 1.056-2.816 3.36-3.744 4.096-4.992 4.096-0.224 0-0.416-0.096-0.64-0.288 0.544-0.8 1.184-1.568 1.952-2.336-0.48 0-1.184 0.48-1.408 0.48-0.352 0-0.512 0.224-0.896 0.224h-1.76c0-0.096-0.224-0.736-0.224-1.248l1.216-0.512c0.512-0.224 0.896-0.672 1.152-1.184-0.736-0.16-1.216-0.256-1.504-0.256-0.384 0-0.224 0.416-0.544 0.416-0.384 0-0.736-0.608-0.736-1.024 0.288-0.096 0.768-0.512 1.376-1.248 1.376-0.352 5.6-1.184 5.888-1.184 0.192 0 2.112 0.288 2.592 0.288-0.704-0.672-1.344-1.152-1.888-1.28-1.024-0.256-4.64-0.704-5.216-0.704-0.48 0-0.96 0.192-1.44 0.576l-0.128 0.672c-0.544 0.224-1.312 0.64-2.304 1.216 0.032 0.064 0.064 0.096 0.096 0.096h-0.288c-0.224 0-0.384 0.128-0.544 0.384l-0.224 0.416c-0.576 0.352-3.168 1.152-3.52 1.152-1.024 0-1.536-0.32-1.536-0.992 0-0.512 1.664-0.864 2.176-1.696-0.16-0.128-0.224-0.416-0.352-0.544-0.416 0.128-1.248 0.832-1.536 0.832-0.224-0.512-0.384-1.184-0.768-1.184-0.096 0-0.192 0.032-0.32 0.096 0.128-0.224 0.192-0.448 0.192-0.608 0-0.384-0.736-1.056-0.864-1.664 0.608-0.224 1.344-0.832 2.176-1.888 0.192 0 0.48-0.064 0.832-0.192l-0.384-0.352c-0.416 0-0.672 0.064-0.832 0.224-0.64-0.32-0.96-0.768-0.96-1.376 0-0.416 0.48-1.12 0.48-1.152 0.864 0 1.376 0.064 1.568 0.192 0.352-0.064 0.832-0.192 1.44-0.384v-0.704c0.096 0.288 0.288 0.672 0.544 1.088 0.992 0 2.176-0.224 2.432-0.224 0.384 0 1.024 0.512 1.184 0.512 0.928 1.536 2.688 2.976 14.432 6.656-0.032 0 2.976 2.432 4.16 2.72v-0.736c-1.184-1.696-2.304-2.912-3.328-3.584-1.152-0.768-4.608-1.6-6.528-2.72-0.352-0.16-1.824-0.224-2.144-0.352l-1.824-0.48c-0.704-0.192-1.184-0.448-1.408-0.608-0.832-0.672-1.984-2.688-1.984-3.456 0-0.704 0.32-1.824 0.928-3.328h1.6c0.448 0.448 0.832 1.792 0.928 1.92 0.064-0.064 0.896-1.536 1.6-1.92 0.384 0.224 0.736 0.992 0.736 1.408 0 0.256-0.32 0.768-0.32 0.992 0 0.064 0.032 0.128 0.064 0.192h0.736c0.736-1.44 1.248-2.176 1.568-2.176 0.416 0 0.832 0.256 0.928 0.256 0 0.672 0.064 1.504 0.224 2.56 1.152 0 1.44 0.832 2.048 1.728 0.224-1.696 0.64-3.264 1.248-4.736 0.352 0 1.12 0.224 1.248 0.224v1.984c0 0.128-0.32 2.112-0.32 2.592 0 0.192 0.032 0.352 0.064 0.48l-0.352 0.288c-0.16 0.16-0.256 0.32-0.256 0.544 0 0.416 1.44 2.144 2.24 2.688 0.096-0.096 0.128-0.352 0.128-0.768 0-0.16-0.864-2.4-0.864-2.56 0-0.384 0.256-0.544 0.608-1.12l0.448-1.632c0.352-0.96 0.768-1.44 1.312-1.44 0.384 0 0.736 0.16 1.056 0.48v0.96l-0.416 0.576h0.064c0.352 0 1.376-0.512 1.344-0.512 0.32 0 0.48 0.096 0.512 0.288 0 0-0.832 1.728-0.832 2.176 0 0.256 0 0.384 0.032 0.384 0-0.064 1.408-0.928 1.792-0.928s0.608 0.256 0.736 0.256c-0.32 1.088-0.96 2.112-1.888 3.040-0.736 0.736-1.12 1.728-1.12 2.944 0 0.576 0.256 1.088 0.736 1.504 0.96-1.92 2.016-3.456 3.168-4.608l1.6-0.768c0.352 0.512 0.512 1.12 0.512 1.824 0 0.384-0.544 0.608-0.544 0.704v0.128h0.064c0.128 0 0.256 0.064 0.352 0.224-0.064 0.096-0.128 0.128-0.256 0.128h-0.128c-0.896 0.672-1.696 1.536-2.432 2.528-0.16 0.448-0.544 1.088-1.12 1.888 0.288 0.288 0.416 0.928 0.544 1.92 0.384 3.136 3.552 4.416 5.344 4.416 1.664 0 3.776-1.184 3.776-2.592 0-0.704-0.288-1.056-0.864-1.056-0.384 0-0.512 0.192-0.864 0.192-0.544 0-1.44-0.352-2.688-1.088-0.352-0.96-0.544-1.856-0.544-2.656 0-0.192 0.224-0.544 0.768-1.216l1.088-1.376c0.928-0.352 1.824-0.512 2.656-0.512 0.544 0 1.28 1.6 2.784 1.728v5.44z"></path>
</svg>
