<!-- Generated by IcoMoon.io -->
<svg version="1.1" xmlns="http://www.w3.org/2000/svg" width="36" height="32" viewBox="0 0 36 32">
<title>dollar</title>
<path d="M24.032 2.72c-0.416-0.384-0.64-0.576-0.736-0.576-0.192 0.192-0.32 0.288-0.416 0.288 0.192 0.384 0.416 0.704 0.704 0.992 0.192-0.416 0.352-0.64 0.448-0.704zM25.056 15.808c-0.224-0.224-0.32-0.32-0.352-0.32-0.544 0.352-0.8 0.736-0.8 1.12v0.544c0.096 0 0.512 0.256 0.608 0.256 0.096-0.96 0.096-1.152 0.544-1.6zM18.368 10.944c0-0.288-1.056-0.96-1.344-0.96-0.384 0-0.96 0.544-0.96 0.96 0 0.352 0.448 1.216 0.832 1.216 0.128 0 0.32-0.128 0.672-0.384l0.608-0.416s0.192-0.16 0.192-0.416zM26.848 13.664l-0.16-0.992c-1.088 0.448-1.248 1.856-1.248 2.624 0 0.096 0.032 0.384 0.128 0.864 0.192 0.928 0 1.088 0.672 1.088 0.192 0 0.352-0.032 0.48-0.128v-1.44c0-0.256-0.32-0.832-0.32-1.12s0.16-0.576 0.448-0.896zM10.528 15.84c-0.032-0.288-0.16-0.64-0.32-1.056-0.768-0.544-1.536-1.6-1.568-1.6h-0.544l0.384 3.456h0.8c0.448 0 0.864-0.256 1.248-0.8zM7.584 16.576c0-0.448-0.224-1.44-0.672-3.008h-0.448c-0.576 0.288-1.6 2.784-1.6 3.264 0 0.224 0.064 0.32 0.16 0.32l1.312-0.128c0.096 0.096 0.416 0.288 0.512 0.384 0.48-0.48 0.736-0.736 0.736-0.832zM30.432 16.064c0-0.096-1.408-2.72-1.504-2.976 0-0.064-0.16-1.248-0.48-1.44-0.16 0.16-0.32 0.288-0.416 0.32 0 0.576-0.16 3.456-0.16 3.392 0 2.176 0.544 2.304 1.024 2.304 0.192 0 0.96-0.256 1.152-0.256 0-0.512 0.384-1.312 0.384-1.344zM25.824 1.696c0 0.288-0.064 0.608-0.192 0.896-0.096 0.224-0.704 1.024-1.856 2.464-0.256 0.704-0.768 1.12-2.176 1.44v-0.416c0-0.224 1.152-2.016 1.248-2.208-0.256-0.288-0.608-0.448-1.024-0.448-0.576 0-1.888 1.376-3.936 2.816-0.096-0.032-0.16-0.128-0.16-0.32 0-0.48 0.32-1.088 0.928-1.824l1.152-0.992c0.416-0.352 1.184-0.832 2.304-1.376 0.288-0.384 0.928-1.408 2.56-1.408 0.896 0 1.152 1.152 1.152 1.376zM32.384 18.272c0 0.16-0.288 1.056-0.32 1.408-0.416 0.544-3.392 1.472-4.416 1.472h-2.080c-2.048 0-3.744-1.376-3.744-3.36 0-1.152 0.896-2.144 1.504-2.784l0.096-0.512c0.416-0.608 1.216-1.728 2.464-3.296l0.864-0.32c0.48-0.16 0.704-0.544 0.736-0.832 0-0.704-1.312-1.248-2.304-1.248 0.096 0-3.424 1.024-3.296 1.024-0.032 0-1.76-0.64-1.856-0.64-0.672 0-0.768 0.128-1.024 0.704 0.352 0.512 0.512 0.928 0.512 1.248 0 0.928-1.344 1.216-1.344 2.176v0.096c0 0.064-0.896 0.544-1.024 0.544-0.768 0-1.92-1.44-1.984-2.112 0-0.352 0.192-1.28 0.192-1.536 0-0.576-0.064-0.608-0.32-0.608-0.064 0-1.088 0.416-1.376 0.416-0.032 0-2.016-0.544-2.048-0.544-0.192 0-0.544 0.544-0.736 0.544-0.128 0-0.48-0.032-1.024-0.032h-1.536c-0.16 0.288-0.224 0.64-0.224 0.992 0 0.224 0.352 0.448 1.088 0.736 0.608 0.224 0.832 0.864 1.088 1.408 0.192 0.096 0.416 0.288 0.704 0.512l0.48 0.768c0.864 0.768 1.376 2.048 1.376 2.72 0 0.608-0.256 1.216-0.704 1.984-0.96 1.568-2.528 1.696-5.344 1.696-0.864 0-1.6-0.064-2.528-1.056-0.416-0.416-1.056-1.728-1.056-2.112 0-0.224 0.384-0.992 0.48-1.152l0.384-1.408c0.256-0.928 0.576-1.216 1.12-2.592 0.096-0.192 1.216-1.088 1.216-1.248 0-0.448-0.192-0.832-0.576-1.184-0.992 0-2.24-0.64-2.24-1.408 0-0.288 0.576-1.088 0.832-1.088 0.032 0 2.144 0.64 2.176 0.64v0l4 0.128c3.040 0 4.032-0.128 4.032-2.24 0-0.096-0.192-0.32-0.544-0.704-1.024-1.056-1.12-1.28-1.12-2.048 0-0.288 0.128-0.672 0.416-1.152 0.256 0 0.48 0.128 0.704 0.416l0.448 0.768c0.224 0.224 0.512 0.544 0.832 1.024 0.128 0.864 0.128 1.696 0.768 2.304v0c0 0.064-0.096 0.256-0.096 0.608 0 0.16 0.064 0.256 0.224 0.256 0.224 0 0.16-0.256 0.384-0.256 0.512 0 0.288 0.064 0.8 0.896 0.416-0.096 1.632-0.288 2.048-0.384 0.16 0.384 0.352 0.896 0.736 0.896 0.16 0 0.288-0.064 0.448-0.192 0-0.032-0.224-0.352-0.64-1.024 0.096-0.224 0.384-0.544 0.8-0.96h0.416c0.096 0 0.128 0.192 0.16 0.576 0 0.704 1.184 1.088 1.376 1.088h0.64c0.128 0 0.384-0.128 0.768-0.352 0.928-0.544 0.96-0.544 1.248-0.544-0.064 0 2.528 0.384 2.496 0.384 0.256 0 1.856-1.408 2.816-1.408s1.248 1.856 1.248 2.24c0 0.544-0.32 0.832-0.992 0.832-0.256 0-0.096-0.128-0.32-0.128-0.768 0-1.152 0.256-1.152 0.736 0 0.16 0.416 0.704 0.992 1.376 0.992 1.728 1.856 5.248 1.856 6.848z"></path>
</svg>
