<!-- Generated by IcoMoon.io -->
<svg version="1.1" xmlns="http://www.w3.org/2000/svg" width="48" height="32" viewBox="0 0 48 32">
<title>e</title>
<path d="M37.248 15.584c-0.032-0.032-0.064-0.064-0.064-0.096l0.032-0.032c0.032 0.032 0.032 0.096 0.032 0.128zM21.824 19.744v-0.384h-0.576v0.384h0.576zM31.52 17.44l-0.512-0.576c-0.128 0.096-0.288 0.128-0.512 0.128s-0.352 0-0.448-0.032c0.288 0.544 0.608 0.768 0.96 0.768 0.32 0 0.48-0.096 0.512-0.288zM41.376 12.544v-0.768c-0.48-0.8-0.96-1.792-1.696-1.792-0.224 0-0.672 0.192-1.28 0.544l-1.504 0.864 1.696 0.896c0.672 0.352 1.28 0.512 1.76 0.512 0.288 0 0.928-0.256 1.024-0.256zM44.832 11.552c-0.128 0.608-0.864 1.28-0.864 1.664 0 0.16 0.064 0.384 0.224 0.608-0.16-0.064-0.256-0.096-0.352-0.096-0.384 0-0.544 0.672-0.768 1.184-0.32 0-1.216-0.736-1.536-0.832-0.128 0.128-0.192 0.416-0.352 0.544 0.672 1.056 2.176 1.056 2.176 1.696 0 0.672-0.512 0.992-1.504 0.992-0.384 0-2.976-0.768-3.552-1.152l-0.224-0.416c-0.128-0.256-0.32-0.384-0.544-0.384h-0.288c-0.032 0.032-0.032 0.032-0.032 0.064 0-0.064 0.032-0.064 0.128-0.16-0.128-0.096-0.896-0.48-2.304-1.216l-0.128-0.672c-0.48-0.384-0.96-0.576-1.44-0.576-0.352 0-1.056 0.064-2.176 0.192-2.496 0.288-3.264 0.224-4.928 1.792 0.544 0 2.432-0.288 2.592-0.288 0.288 0 4.512 0.832 5.888 1.184l0.576 0.672c0.256 0.32 0.544 0.48 0.8 0.576 0 0.384-0.352 1.024-0.704 1.024s-0.064-0.416-0.576-0.416c-0.288 0-0.768 0.096-1.504 0.256 0.256 0.512 0.608 0.96 1.152 1.184l1.216 0.512c0 0.512-0.224 1.152-0.224 1.248h-1.76c-0.8 0-1.248-0.704-2.304-0.704 0.768 0.768 1.408 1.536 1.952 2.336-0.224 0.192-0.416 0.288-0.64 0.288-1.344 0-2.048-0.704-4.992-4.096-0.288-0.32-0.768-0.736-1.376-1.056l-1.536-0.768c-0.32-0.192-0.896-0.288-1.76-0.288-0.608 0-1.28 0.32-1.952 0.992 0 0.288 0.256 0.544 2.080 1.024 0.352 0.384 0.288 0.832 3.68 1.632 0.256 0 0.48 0.096 0.704 0.32-0.16 0.128-0.512 0.32-0.672 0.448 0.096 0.32 1.28 1.952 1.504 2.336l-0.288 1.184-2.976-2.656c-1.056-0.928-2.56-2.080-3.136-2.112-0.064 0-0.16 0.032-0.256 0.128 0.832 0.48 1.792 1.28 2.912 2.336l0.256 0.8c0.128 0.416 0.256 0.736 0.256 0.928v1.184c-0.16 0-0.384 0-0.64 0.032h-0.608c-0.384 0-0.928-0.992-0.992-1.056-0.256 0.256-0.384 0.608-0.384 1.056-0.512-0.448-0.96-0.96-1.344-1.504-0.064 0.064 0.128 1.312-0.736 1.312-0.64 0-1.28-1.088-1.28-1.856 0-0.448 0.352-1.024 1.056-1.696-0.928-0.928-1.632-1.408-2.144-1.408-0.48 0-1.152 0.416-2.016 1.216-3.232 2.912-4.48 3.52-7.104 3.52-1.376 0-2.624-0.48-3.712-1.472-1.536-0.288-2.176-1.568-2.176-3.808v-5.44c1.536-0.128 2.208-1.728 2.784-1.728 0.832 0 1.728 0.16 2.656 0.512l1.088 1.376c0.48 0.64 0.736 1.024 0.768 1.216 0 0.8-0.192 1.696-0.544 2.656-1.248 0.736-2.144 1.088-2.688 1.088-0.352 0-0.48-0.192-0.864-0.192-0.576 0-0.864 0.352-0.864 1.056 0 1.408 2.080 2.592 3.776 2.592 1.664 0 3.072-0.768 4.544-2.336 0.736-0.768 0.896-3.488 1.344-4-0.192-0.224-0.448-0.48-0.64-0.928-0.704-1.568-1.76-2.624-2.912-3.488h-0.128c-0.128 0-0.224-0.032-0.256-0.128 0.096-0.16 0.224-0.224 0.352-0.224h0.096v-0.096c0.032-0.096-0.576-0.32-0.576-0.736 0-0.704 0.16-1.312 0.512-1.824 0.416 0.16 0.96 0.416 1.6 0.768 1.152 1.152 2.208 2.688 3.168 4.608 0.48-0.416 0.736-0.928 0.736-1.504 0-1.216-0.384-2.208-1.12-2.944-0.928-0.928-1.568-1.952-1.888-3.040 0.128 0 0.352-0.256 0.736-0.256 0.288 0 1.76 0.896 1.76 0.928v0c0.032 0 0.064-0.128 0.064-0.384 0-0.448-0.832-2.176-0.832-2.176 0.032-0.192 0.192-0.288 0.512-0.288-0.032 0 0.96 0.512 1.312 0.512h0.096c-0.064-0.128-0.192-0.32-0.416-0.576v-0.96c0.32-0.32 0.672-0.48 1.056-0.48 0.544 0 0.96 0.48 1.312 1.44l0.448 1.632c0.352 0.576 0.608 0.736 0.608 1.12 0 0.16-0.864 2.4-0.864 2.56 0 0.416 0.032 0.672 0.128 0.768 0.704-0.48 2.24-2.24 2.24-2.688 0-0.416-0.352-0.672-0.608-0.832 0.032-0.128 0.064-0.288 0.064-0.48 0-0.48-0.288-2.464-0.288-2.592v-1.984c0.096 0 0.864-0.224 1.216-0.224 0.608 1.472 1.024 3.040 1.248 4.736 0.544-0.8 0.896-1.728 1.92-1.728 0.256 0 0.256-0.544 0.288-0.928 0.064-1.472-0.256-1.888 0.992-1.888 0.32 0 0.832 0.736 1.568 2.176h0.736c0.032-0.064 0.064-0.128 0.064-0.192 0-0.224-0.32-0.736-0.32-0.992 0-0.416 0.352-1.184 0.736-1.408 0.704 0.384 1.536 1.856 1.6 1.92 0.128-0.448 0.448-1.088 0.928-1.92h1.632c0.608 1.504 0.896 2.624 0.896 3.328 0 0.32-0.192 0.832-0.544 1.568-0.736 1.44-1.12 1.952-2.848 2.496l-1.824 0.48c-0.224 0.096-0.608 0.128-1.152 0.16-1.376 0.096-2.88 1.216-4.64 1.728-3.2 0.96-4.128 1.792-6.208 4.768v0.736c0.672-0.128 1.472-0.64 2.432-1.408 2.56-2.048 2.88-1.6 5.824-2.528l4.032-1.568c3.296-1.28 5.504-2.624 6.304-3.872 0.16 0 0.8-0.512 1.184-0.512 0.256 0 1.44 0.224 2.432 0.224l0.544-1.088v0.704c0.352 0.032 0.832 0.16 1.44 0.384 0.576-0.128 1.088-0.192 1.568-0.192 0 0.032 0.48 0.736 0.48 1.152 0 0.608-0.32 1.056-0.96 1.376-0.16-0.16-0.416-0.224-0.832-0.224l-0.352 0.352c0.128 0.16 0.704 0.192 0.8 0.192 0.864 1.056 1.568 1.664 2.176 1.888z"></path>
</svg>
