<!-- Generated by IcoMoon.io -->
<svg version="1.1" xmlns="http://www.w3.org/2000/svg" width="56" height="32" viewBox="0 0 56 32">
<title>eight</title>
<path d="M30.976 17.696h0.192s0.16 0.032 0.224 0.128c-1.6 0-3.168 0.032-4.64 0.032 1.984-0.064 3.296-0.16 4-0.32 0.032 0.096 0.096 0.16 0.224 0.16zM53.728 17.792l-22.304 0.064s-0.032 0-0.032-0.032c6.4-0.032 13.824 0 22.336-0.032zM11.648 17.6c4.224 0.16 7.616 0.256 10.272 0.256-12.672 0.096-19.328 0.224-19.872 0.384v-0.896c0.864 0 4.064 0.096 9.6 0.256zM53.824 16.384h-51.904c-0.032-0.416-0.064-0.832-0.064-1.184s0.032-0.64 0.064-0.928c0.256 0.16 1.248 0.192 2.944 0.192 1.248 0 7.328-0.096 8.64-0.096 1.696 0 2.784 0.064 3.232 0.16l0.576-0.256c0.896 0.288 2.016 0.416 3.36 0.416 1.408 0 6.208-0.416 7.136-0.416l26.016 0.16c0.032 0.416 0.064 0.768 0.064 1.088 0 0.352-0.032 0.64-0.064 0.864z"></path>
</svg>
