<!-- Generated by IcoMoon.io -->
<svg version="1.1" xmlns="http://www.w3.org/2000/svg" width="34" height="32" viewBox="0 0 34 32">
<title>exclam</title>
<path d="M19.808 16.064l-0.16-0.064-0.16 0.32 0.16 0.096zM23.744 12.16c0-0.256-0.064-0.416-0.16-0.512-0.128 0-0.192 0.128-0.192 0.352 0.096 0 0.192 0.064 0.352 0.16zM16.416 6.624c-0.032 0-0.16-0.096-0.352-0.32l0.32-0.32c0.064 0 0.096 0.096 0.096 0.352 0 0.096-0.032 0.192-0.064 0.288zM10.144 12.704l-0.608-0.16c-0.032 0.032-0.032 0.256-0.032 0.736h0.48c0-0.288 0.064-0.48 0.16-0.576zM22.848 11.84c0-0.352-0.192-0.608-0.608-0.832 0 0.096-0.096 0.128-0.288 0.16 0.16 0.096 0.384 0.288 0.672 0.544v0.352c-0.224 0.096-0.384 0.384-0.48 0.416 0.16 0.032 0.256 0.128 0.256 0.32 0.288-0.608 0.448-0.928 0.448-0.96zM24.256 9.12c-0.16 0.16-0.256 0.32-0.256 0.448h-0.864c0-0.416 0-0.608 0.032-0.608zM20.672 12.704c-0.096 0-0.416-0.128-0.992-0.416-0.128 0.384-0.192 0.672-0.192 0.928 0 0.192 0.032 0.352 0.096 0.48 0.096-0.288 0.448-0.64 1.088-0.992zM26.848 9.952c-0.128 0.128-0.544 0.32-1.248 0.544-0.192-0.224-0.288-0.352-0.288-0.448 0-0.192 0.128-0.416 0.416-0.704h0.96l0.16 0.128v0.48zM18.624 4.416l-1.472 0.928h-0.576c0-0.064-0.032-0.16-0.128-0.32 0.16-0.16 0.352-0.448 0.576-0.8l0.48-1.184h0.96c0.096 0.288 0.16 0.768 0.16 1.376zM15.808 5.152c0-0.032-0.192 0.384-0.608 1.312v0c0 0.032-1.28 0.544-1.472 0.544-0.608 0-0.416-0.352-0.768-0.704 0.576-0.576 0.992-0.864 1.28-0.864 0.224 0 0.384-1.12 0.832-1.12 0.128 0 0.736 0.544 0.736 0.832zM12.704 3.232c-0.416 0.64-0.64 1.024-0.64 1.152s0.48 0.736 0.64 1.44c-0.672 0.448-1.088 0.672-1.216 0.672-0.544 0-1.088-0.64-1.088-1.152 0-0.128 0.32-0.8 0.928-2.016 0.032-0.096 0.352-0.256 0.928-0.544zM31.2 7.328c0 0.48-0.672 0.832-0.96 0.832-0.224 0-0.8-0.128-1.024-0.128-0.096 0-1.152 1.536-1.44 1.536 0-1.216-0.992-2.048-1.312-2.048-0.256 0-0.448 0.128-0.48 0.128-0.096-0.096-0.16-0.256-0.16-0.416 0-0.128 0.064-0.512 0.064-0.64 0-0.352-0.192-0.608-0.576-0.768 0.224-0.416 0.48-0.608 0.768-0.608 0.352 0 1.792 2.048 1.728 2.048h0.448c0.224 0 0.576-0.672 0.672-0.704 0.32-0.224 0.64-0.32 0.992-0.32 0.288 0 1.28 0.768 1.28 1.088zM30.816 13.184c0 0.16-0.128 0.896-0.384 2.144-0.096 0.096-0.224 0.16-0.384 0.16-1.088 0-1.056-1.344-1.44-3.52-0.032-0.064-0.736-1.248-0.736-1.44v-0.8c1.312-0.256 1.952-0.384 1.92-0.416 0.416 0 0.704 0.192 0.896 0.608-0.48 0.512-1.024 0.992-1.024 1.536 0 0.96 0.384 1.536 1.152 1.728zM30.944 22.048l-1.152 0.544c-0.48 0.224-0.768 0.352-0.896 0.352-1.12 0-1.504-0.928-1.504-1.088 0-1.376-0.032-2.592-0.128-3.712-0.768-0.832-1.312-1.6-1.664-2.272-1.376 0-1.856 0.896-2.688 0.896-0.256 0-0.448-0.064-0.544-0.16l-0.48-0.48-0.192 0.224c0.576 0.864 1.184 1.312 1.856 1.344 0.064-0.064 0.16-0.192 0.256-0.352-0.032-0.032-0.032-0.096-0.032-0.16 0-0.16 0.032-0.352 0.16-0.544 0.384 0.224 0.64 0.768 0.96 1.568l0.672 1.696v3.136c-0.544 0.352-0.992 0.544-1.344 0.544-0.544 0-0.64 0-1.056-1.056-0.032-0.032-0.032-0.064-0.032-0.096 0-0.768 0.352-1.28 0.352-2.304 0-1.12-1.152-1.92-2.176-1.92-0.16 0-0.544 0.256-0.768 0.256-0.064 0-1.952-1.056-1.984-1.056-0.16 0-0.416 0.128-0.64 0.128-0.576 0-1.088-0.288-1.568-0.832-0.512-0.032-2.848-0.448-2.816-0.448-0.192 0-0.864 1.28-0.96 1.376 0.128 0.128 0.32 0.192 0.576 0.192 0.224 0 0.288-0.288 0.512-0.288 0.288 0 0.448 0.16 0.512 0.48 0.128 0.608 0.192 0.96 0.224 0.992 0.768 0.384 1.024 1.504 1.28 3.232 0.032 0.096 0.64 0.768 0.64 1.024 0 0.544-0.448 0.832-1.312 0.832-0.8 0-1.568-0.48-1.632-1.088 0 0.032 0.288-0.608 0.288-1.888 0-0.768-0.544-1.184-1.6-1.184-0.192 0-0.384 0.032-0.608 0.064-0.16-0.256-0.32-0.64-0.448-1.184l-0.256-1.184c-0.096-0.16-0.16-0.416-0.256-0.768-0.352-0.224-0.704-0.352-1.056-0.352-0.128 0.256-0.096 0.512-0.864 0.832-1.792 1.184-2.688 2.528-2.688 4.064 0 0.192 0 0.384 0.032 0.576-0.064 0.48-0.16 0.576-1.12 0.576-1.056 0-1.6-0.352-1.6-1.088 0-0.096 0.096-0.256 0.288-0.48 0.64-0.704 0.48-0.736 0.768-1.568-0.064-0.192-0.128-0.704-0.192-1.568 0.032-0.064 0.416-0.288 1.088-0.704 0.736-0.448 0.864-1.12 0.864-2.24 0-0.16-0.384-1.28-0.448-1.696-0.128-0.768-1.696-0.448-2.368-1.216v-2.144c0.768-0.16 1.28-0.256 1.536-0.256 0.192 0 0.448 0.096 0.736 0.288v0.096c0 0.64 0.768 2.304 1.312 2.304 0.064 0 1.696-0.896 1.888-0.896 0.416 0 1.6 0.128 3.584 0.416 0.096 0.032 0.544 0.352 0.8 0.352h0.352c0.128-0.16 0.192-0.256 0.192-0.32 0-2.24-2.592-1.92-3.2-2.944v-1.856h0.608l0.992 1.408c0.608 0.864 1.088 1.28 1.408 1.28 0.224 0 0.736-0.128 0.896-0.128 0.256 0 0.512 0.096 0.768 0.256l1.344 1.024v0.864c-0.16 0.192-0.512 0.448-1.024 0.768 0 0.256 0.192 0.512 0.608 0.736 0.032 0.352 0.224 0.96 0.576 1.824-0.256 0.192-0.352 0.064-0.768 0.48 0.384 0.384 0.704 0.576 0.96 0.576 0.192 0 0.352-0.16 0.48-0.48l0.256-0.608c0-0.128-0.288-0.576-0.288-0.8 0.224-0.096 0.512-0.352 0.896-0.736-0.16-0.288-0.256-0.544-0.256-0.8 0.352-0.352 0.704-0.544 1.024-0.544 0.224 0 0.224 0.128 0.448 0.128 0.736 0 1.568-1.184 1.76-2.080-0.288-0.064-0.96-0.096-2.016-0.096-0.256 0-0.096-0.128-0.32-0.128 0 0-1.408 0.512-2.016 0.512-0.128 0-0.224-0.032-0.288-0.064 0.096-0.128 0.128-0.224 0.128-0.32h0.928c0.128 0 0.192-0.032 0.192-0.096-0.032-0.096-0.032-0.128-0.032-0.128 0.416-0.032 0.896-0.128 1.504-0.32 0.096-0.16 0.256-0.416 0.512-0.704l0.896-0.064c0.384-0.64 1.152-0.896 1.696-0.896 0.096-0.096 0.096-0.224 0.192-0.32-0.096-0.064-0.224-0.096-0.416-0.096-0.352 0-0.64 0.064-0.768 0.288-0.096-0.032-0.256-0.352-0.512-0.928-0.288-0.704-1.984-0.48-1.984-2.144h0.416c0.224 0 0.608-0.32 1.184-0.992 0.128-0.288-0.128-0.448 1.024-0.928 0.128 0.128 0.224 0.416 0.224 0.832v0.16c0 0.48 0.128 0.768 0.416 0.928 0.608-0.16 1.216-0.448 1.76-0.896h0.704v0.48c-0.48 0.256-0.768 0.64-0.928 1.152-0.256 0.256-0.768 0.96-0.768 1.536 0 0.224 0.128 0.768 0.128 1.056 0 0.096-0.48 0.992-0.48 1.344 0.096 0.032 0.8 0.608 0.96 0.608 0.224 0 0.16-0.256 0.416-0.256 0.32 0 0.832 0.064 0.832 0.928 0 0.512-0.064 1.216-0.064 1.6 0 0.512 0.096 0.768 1.024 1.472l0.224 0.512c0.224 0.224 0.448 0.352 0.736 0.352 0.224 0 0.224-0.128 0.448-0.128 0.352 0 0.704 0.256 0.928 0.8l0.48 1.28c0.256 0.224 0.48 0.576 0.48 1.056v1.024c0.064 0.288 0.32 0.672 0.736 1.088l0.96 0.992c0.224 0.32 0.352 0.64 0.352 0.992 0 0.128 0 0.224-0.032 0.352z"></path>
</svg>
