<!-- Generated by IcoMoon.io -->
<svg version="1.1" xmlns="http://www.w3.org/2000/svg" width="33" height="32" viewBox="0 0 33 32">
<title>f</title>
<path d="M24.512 3.456l-0.256-0.256-0.16 0.192 0.224 0.224zM17.728 2.4l-0.096-0.256-0.384 0.224v0.224zM14.976 14.816l-0.096 0.256-0.576-0.224v-0.256zM4.48 8.736h-0.32v-0.608h0.32v0.608zM16.672 8.768c-0.288 0-0.512-0.096-0.672-0.256 0.224-0.16 0.384-0.224 0.48-0.224 0.128 0.224 0.192 0.384 0.192 0.48zM5.024 10.688c0.128-0.224 0.256-0.384 0.448-0.448-0.384-0.032-0.768-0.352-1.024-0.576 0.128 0.288 0.32 0.64 0.576 1.024zM29.824 19.968c-0.224 0.16-0.384 0.224-0.48 0.224-0.032-0.128-0.096-0.288-0.192-0.448 0.224-0.16 0.384-0.224 0.48-0.224 0.128 0.192 0.192 0.352 0.192 0.448zM10.272 16.352c-0.352 0-0.832-0.448-0.832-0.8h0.64c0 0.128 0.192 0.704 0.192 0.8zM26.912 22.112c0.032 0.064 0.032 0.128 0.032 0.192 0 0.224-0.16 0.512-0.48 0.832-0.096-0.032-0.224-0.096-0.448-0.256 0.16-0.224 0.48-0.48 0.896-0.768zM13.92 19.744c-0.288 0.288-0.544 0.416-0.832 0.416 0-0.096-0.352-0.704-0.352-0.832 0.256 0.128 0.96 0.288 1.184 0.416zM12 15.488h-0.992c0-0.864 0-1.312 0.032-1.344 0.416 0.224 0.736 0.672 0.96 1.344zM25.312 21.216h-0.128c-0.352 0-0.608-0.128-0.704-0.448-0.224-0.544-0.32-0.8-0.352-0.832 0.256-0.064 0.384-0.16 0.384-0.256 0.352 0.16 0.608 0.48 0.8 0.928v0.608zM22.4 5.152c0-0.352-0.288-0.416-0.448-0.512-0.032 0.128-0.192 0.416-0.448 0.832-0.48 0.768 0.352 0.576-1.536 1.024 0.32 0.48 0.64 0.768 0.96 0.896 0.256-0.16 1.472-1.92 1.472-2.24zM18.592 24.256c0 0.736-0.192 1.28-0.544 1.632-0.064-0.48-0.48-3.296-0.48-3.36l0.256-0.416c0.672 0.896 0.768 1.12 0.768 2.144zM25.152 22.016c0 0.224-0.832 2.048-0.896 2.304-0.416 0-0.64-0.128-0.64-0.416 0-0.448 0.256-1.28 0.736-2.496 0.544 0 0.8 0.192 0.8 0.608zM27.584 20.544c0 0.16-0.224 0.576-0.704 1.216-0.352-1.344-0.512-2.432-0.512-3.296 0-0.16 0.16-0.416 0.448-0.704 0.224 0.448 0.352 0.928 0.352 1.408 0 0.192-0.032 0.384-0.064 0.576 0.224 0.16 0.48 0.416 0.48 0.8zM20.448 24.128h-0.352c-0.192-0.576-0.288-1.056-0.288-1.44v-3.168l0.512 0.192c0.096 0.832 0.16 1.792 0.16 2.848 0 0.512 0 1.024-0.032 1.568zM10.816 13.728c-0.128 0.096-0.32 0.64-0.448 0.768-0.448-0.576-0.928-0.928-1.44-1.088v-0.832c0-0.288 0.16-0.544 0.512-0.768l-0.672-0.32c-0.352-0.224-0.544-0.416-0.544-0.64 0-0.128 0.384-0.544 0.384-0.896 0-0.16-0.064-0.352-0.16-0.544v-0.224c0.096-0.128 0.128-0.32 0.16-0.576 0.352 0 0.608-0.064 0.736-0.16 0.064 0.064 0.064 0.128 0.064 0.192 0 0.16-0.096 0.352-0.32 0.576 0.352 0.576 0.992 3.584 1.728 4.512zM15.296 19.168c0 0.352-0.32 0.704-0.96 1.024-0.16-0.256-1.344-2.784-1.824-2.784-0.064 0.096-0.064 0.192-0.064 0.288 0 0.288 0.128 0.64 0.448 1.056-0.032 0.16-0.16 0.224-0.448 0.224-0.128 0-0.736-0.704-1.824-2.112 0-0.064-0.032-0.096-0.032-0.16 0-0.16 0.064-0.32 0.128-0.48 0.256 0.352 0.544 0.672 0.864 0.672 0.128 0 0.384-0.096 0.8-0.288 0-0.352 0.032-0.544 0.064-0.576 0.224 0.096 0.608 0.512 1.088 1.184l0.512 0.128c0.512 0.416 1.248 1.408 1.248 1.824zM29.504 12.064c0 0.384-0.416 0.864-0.8 0.864-0.224 0-1.728-0.352-1.888-0.352-0.32 0-0.768 0.096-1.312 0.288 0.096 0.096 0.384 0.256 0.864 0.448 0 0.288-0.128 0.512-0.352 0.736 0.512 0.512 0.576 0.544 1.216 1.344l0.832 0.384c0.128 0.192 1.28 1.344 1.28 1.792 0 0.128-0.032 0.256-0.096 0.384-0.576-0.48-1.568-1.152-2.944-2.080-0.032 0.032-0.032 0.096-0.032 0.192 0 0.224 0.096 0.672 0.256 1.344-0.448-0.224-1.056-0.544-1.824-0.896-0.736-1.248-1.088-1.92-1.088-2.016 0-0.672 0.224-1.12 0.64-1.344v-0.096c0-0.064 0-0.16-0.032-0.224 0.736-0.864 1.248-1.28 1.536-1.28s0.16 0.352 0.448 0.352c0.384 0 0.8-0.224 1.216-0.64-0.128-0.288-0.864-0.992-0.864-1.28 0-0.352 0.224-0.64 0.224-0.672 0.352 0.16 0.896 0.416 1.568 0.768 0.064 0.16 1.152 1.792 1.152 1.984zM30.016 22.88c0 1.536-0.672 3.008-3.392 5.728-0.224 0.224-0.48 0.32-0.832 0.352-3.232 0.288-4.8 0.416-4.736 0.416-0.032 0-2.944-0.352-2.976-0.352-0.288 0-0.704 0.288-0.928 0.288-1.12 0-2.848-0.032-5.152-0.064-2.272-0.032-3.392-0.064-3.36-0.064-0.224 0-0.608-0.256-1.12-0.768 0.096-0.192 0.448-0.768 0.448-1.248 0-0.448-0.224-1.696-0.224-1.856 0-0.384 0.48-1.056 0.48-1.312 0-0.384-0.512-1.216-0.512-1.568 0-0.224 0.096-0.448 0.32-0.608-0.064-0.288-0.352-0.448-0.832-0.448 0-0.032 0.192-0.736 0.192-0.992 0.896 0.448 1.344 0.768 1.344 0.992 0 0.096-0.096 0.224-0.256 0.32 0.192 0.096 0.48 0.288 0.864 0.608 0.416 1.152 0.608 1.888 0.608 2.208 0 0.16-0.064 0.32-0.224 0.544l-0.384 0.512-0.512-0.544c-0.064 0.064-0.096 0.256-0.096 0.608 0 0.928 0.8 1.312 1.472 1.824 0.64-0.224 0.96-1.088 0.96-2.592 0-0.064-0.64-4.288-0.704-4.896-0.832-0.416-1.504-0.672-2.016-0.704 0-0.608-0.48-0.416-1.568-1.152h-0.448l-0.48 0.448c0.224 0.288 0.672 0.672 1.376 1.152 0 0.128-0.192 0.512-0.192 0.64h-0.608c-0.224-0.224-0.512-0.576-0.864-1.024-0.352 0.096-1.024 0.288-2.048 0.512l-0.416-0.416c0.032-0.128 0.544-0.928 0.544-1.312 0-0.16-0.064-0.288-0.16-0.384v-0.448c0.288 0 0.896-0.384 1.184-0.384s1.376 0.544 1.44 0.544c0.192-0.192 0.288-0.384 0.288-0.544 0-1.504-1.216-0.256-1.216-3.328 0-0.032 0.032-0.096 0.064-0.224 0-0.032-0.096-0.064-0.256-0.064-0.288 0-0.384 0.128-0.48 0.128v-0.128c0-0.416-0.096-0.992-0.096-1.152 0-0.32 0.256-0.672 0.256-0.992-0.032-0.032-0.064-0.032-0.128-0.032-0.096 0-0.256 0.064-0.512 0.256l-0.416-1.504c0.736-0.448 1.376-0.96 1.376-1.408 0-0.64-0.224-1.12-0.672-1.472 0.224-0.224 0.448-0.672 0.736-1.376 0.736-1.76 1.216-2.176 2.304-2.176h0.512c0.256 0 0.576 0.448 0.576 2.304v0.48c0.128 0.064 0.224 0.128 0.32 0.128 0.352 0 0.512-0.384 0.512-0.736 0-0.224-0.096-0.384-0.288-0.544 0.672-0.608 1.536-1.536 2.624-2.784 0-1.088 2.176-1.632 2.304-1.632 0.384 0 0.928 0.928 0.928 1.216 0 0.512-0.896 1.568-1.28 1.568-0.352 0-0.384-0.192-0.48-0.192-0.288 0.352-0.608 0.96-0.992 1.792l0.288 0.288 1.472-0.736c1.184-0.576 1.536-0.768 2.112-1.984 0.928-1.92 0.992-2.112 1.664-2.112 0.608 0 1.888 0.256 1.888 1.984 0 0.544-0.064 1.024-0.224 1.472-0.064-0.032-0.416-0.384-1.088-1.024-0.832 0.352-1.728 1.92-1.888 2.048-0.704 0.416-3.712 1.984-3.968 3.904-0.096 0-0.224 0.064-0.416 0.192l2.176 3.36c0.352-0.128 0.736-0.224 0.736-0.608 0-0.096-0.864-2.4-0.864-2.496 0-0.928 0.608-1.76 1.824-2.56 1.376-0.928 2.176-1.632 2.368-2.112h0.832v0.32c0 0.352 0.032 0.64 0.128 0.896 0.576-0.096 1.248-0.992 2.016-2.624 0.256 0.128 0.576 0.224 0.96 0.224h0.192c-0.8-0.8-1.216-1.344-1.216-1.6 0-0.384 0.576-0.864 1.056-0.864 1.664 0 3.616 3.072 3.616 4.768 0 0.864-0.224 1.504-0.672 1.856l-1.632 0.896c-0.736 0.48-1.376 1.28-1.856 2.4l0.288 0.288c1.024-0.544 1.024-1.728 2.24-1.728 0.256 0 0.512 0.16 0.768 0.16 0.352 0 0.416-0.64 0.448-0.672 0.352 0.352 0.672 0.544 0.896 0.544v0.64c-2.72 0-4.096 1.088-4.096 3.552 0 2.112 0.576 2.176 1.696 4.032-0.576 0-1.024-0.16-1.312-0.512l-0.096-0.512c-0.288-0.384-0.736-0.864-1.312-1.472-0.352-0.16-0.8-0.256-1.248-1.184 0.064-0.064 0.224-0.096 0.448-0.096 0.128 0 0.288 0 0.48 0.032 0.064-0.256 0.128-0.544 0.128-0.864 0-0.48-0.096-1.024-0.256-1.632 0-0.032 0.032-0.512 0.128-1.376 1.568-1.216 2.432-1.952 2.656-2.208 0.384-0.48 0.576-1.28 0.576-2.336 0-0.48-0.16-0.832-0.448-1.12-0.288 0.224-0.608 0.704-0.896 1.504-0.736 2.048-1.536 2.080-1.856 2.784-0.992 0.416-1.312 2.080-1.312 2.624 0 0.32 0.704 1.856 0.704 1.856-0.288 0.256-0.48 0.384-0.64 0.384v0c0-0.192-0.768-2.048-0.992-2.048-0.288 0-0.576 0.128-0.928 0.128 0-0.224-0.384-1.376-0.384-1.504 0-0.288 0.224-0.768 0.704-1.408 0.064 0.352 0.224 0.896 0.448 1.568 0.288-0.416 0.832-1.152 1.632-2.144-1.056-1.12-1.344-1.248-2.176-1.504-0.256 0-0.256 0.672-0.32 0.672-0.16 0-0.416-0.16-0.736-0.48-0.352 0.384-1.024 0.96-1.952 1.696-0.032 0.064-0.032 0.192-0.032 0.384 0 0.352 0.192 0.672 0.608 1.024l0.64-1.024c-0.032 0.128-0.032 0.704-0.032 1.728 0 1.664 0.48 3.008 1.408 4 1.248 1.344 2.112 2.688 2.56 4.032v0.608l-1.12-1.28c-0.16-0.192-0.32-0.512-0.512-0.96-0.704-1.632-0.96-2.016-2.016-2.688l-1.824-0.896c-0.288-0.032-0.704-0.128-1.216-0.288l-0.544-0.608c-0.288-0.288-0.576-0.48-0.832-0.608-0.384-0.352-0.576-1.632-0.64-2.784 0 0.032-0.448-1.376-0.448-1.824 0-0.288 0.064-0.48 0.224-0.64-0.064-0.224-0.16-0.416-0.32-0.576-0.864 0.288-1.664 1.024-2.4 2.272l-0.512-1.216c-0.288 0.576-0.448 0.992-0.448 1.216s0.416 1.024 0.448 1.12c-0.256 0.864-0.384 1.408-0.384 1.664 0 0.672 0.288 1.44 0.832 2.24l0.448 0.48c0.224 0.224 0.352 0.448 0.352 0.608v0.768c-0.288-0.064-0.608-0.352-0.992-0.864l-0.832-1.024h-0.608l-0.32 0.32v1.152c0.256 0.448 0.608 0.992 1.024 1.632l1.6 1.408c2.56 2.24 3.456 5.248 3.488 6.592 0 0.704-0.064 1.12-0.064 1.344 0 1.056 0.448 1.568 1.312 1.568 0.384 0 0.608-0.192 0.672-0.608 0-0.288-0.256-1.28-0.288-1.568 0.032-0.128 0.192-0.48 0.192-0.736 0-0.096-0.064-0.32-0.192-0.64 0.032-0.096 0.192-0.288 0.416-0.512-0.64-0.64-1.056-0.064-1.056-1.024 0-0.32 0.032-0.672 0.064-1.12 0.16 0.224 0.512 0.544 1.056 1.024 0.032-0.064 0.064-0.224 0.064-0.416 0-0.288-0.032-0.64-0.128-1.12 0.032 0 0.608-0.192 1.152-0.192 0.256 0.512 0.384 0.896 0.384 1.12v0c-0.032 0-0.832 4.928-0.864 4.928v0c0 0.416 0.896 1.216 1.312 1.216 0.288 0 1.184-0.544 1.344-1.024 0.256 0.064 0.48 0.064 0.672 0.064 0.16 0 0.32 0 0.416-0.064l0.32 0.32c0.064 0 0.064-0.512 0.544-0.512 0.896 0 0.704 0.448 2.56 0.448 0.288 0 0.512-0.032 0.736-0.096l0.352 0.352h0.448c0.032-0.16 0.416-0.736 1.12-1.728v1.056c0.096 0 0.128 0.128 0.48 0.128 1.696 0 2.336-2.816 2.912-4.608 0.032-0.032 0.384-0.224 1.088-0.576 0.288 0.544 0.416 0.992 0.416 1.312z"></path>
</svg>
