<!-- Generated by IcoMoon.io -->
<svg version="1.1" xmlns="http://www.w3.org/2000/svg" width="16" height="32" viewBox="0 0 16 32">
<title>five</title>
<path d="M12.768 15.744c0 0.192-0.32 2.752-0.32 3.104-1.824 0-3.104-0.064-3.904-0.224l-0.192 0.192v1.824l1.312 0.832c1.184 0.736 1.44 1.632 1.44 2.752 0 1.248-0.576 2.336-1.632 2.336-0.992 0-1.504-0.736-1.504-2.176v-1.792c-0.096-0.16-0.512-0.416-1.216-0.768 0.224-0.736 0.32-1.376 0.32-1.984 0-1.12-0.768-1.28-1.952-1.28-0.544 0-1.216 0.032-1.92 0.032v-3.616c0-1.312 0.576-3.296 1.696-5.92s2.176-4.256 3.040-4.928c0.288 0 1.152 0.48 1.408 0.896 2.272 3.808 3.424 7.36 3.424 10.72zM6.816 16.672v-3.456h-0.448v3.456h0.448zM8.192 13.472h-0.48l-0.256 3.2h0.48zM10.4 16.672v-2.912h-0.48v2.912h0.48zM11.2 12.832l-0.288-2.080h-0.448l0.288 2.080h0.448zM11.488 16.384v-1.824h-0.576v1.824h0.576zM7.936 12.832v-0.992h-0.48v0.992h0.48zM10.656 10.656v-0.736h-0.48v0.736h0.48zM9.28 14.752v-0.736h-0.448v0.736h0.448zM9.28 16.384v-0.736h-0.448v0.736h0.448z"></path>
</svg>
