<!-- Generated by IcoMoon.io -->
<svg version="1.1" xmlns="http://www.w3.org/2000/svg" width="30" height="32" viewBox="0 0 30 32">
<title>four</title>
<path d="M24.48 7.808v-0.448l-1.28-0.32zM10.368 7.648l-0.32-0.8-0.384 0.16 0.32 0.352zM7.648 20.384l-0.384-0.128-0.352 0.704 0.384 0.16zM8.736 19.008l-0.384-0.128-0.352 0.704 0.384 0.16zM5.312 7.52v-0.48h-0.736v0.48h0.736zM6.688 7.52v-0.48h-0.992v0.48h0.992zM6.976 6.016c0-0.48-0.096-0.832-0.32-1.056-0.224 0-0.48 0.384-0.736 0.672 0.224 0.256 0.576 0.384 1.056 0.384zM13.024 14.048h-1.056c0 0.224-0.128 0.544-0.416 1.024l-0.64 1.056c0.512-0.48 1.216-1.184 2.112-2.080zM10.944 16.352l-0.384-0.256-2.016 2.592 0.352 0.288zM26.688 3.168c-0.896 1.248-1.344 2.144-1.344 2.688 0 0.48 0.192 0.96 0.544 1.44-0.992 0.8-2.304 1.408-3.904 1.856-0.416 0.416-0.96 0.8-1.632 1.12-1.92 0.928-1.76 1.216-3.488 2.496 6.016 7.52 9.024 11.68 9.024 12.416 0 0.416-0.544 0.832-0.96 0.832-0.64 0-0.832-0.832-1.696-1.824l-0.832-0.192c-2.848-3.904-5.856-8.096-7.872-9.472-1.344 0.864-4.64 4.992-7.36 8.704-0.16 0.192-2.272 1.28-2.976 1.92h-0.992c1.312-3.136 6.432-9.568 9.824-12.128-0.352-0.16-0.896-0.384-1.632-0.736 0-0.224 0.672-0.48 0.832-0.608-1.632-0.8-2.112-0.256-3.040-1.12 0.288-0.096 0.736-0.256 1.376-0.544-0.576-0.16-2.624-0.32-3.232-0.48 0-0.032 0.16-0.256 0.512-0.608-0.8-0.352-3.424-0.864-4.096-1.088 0.448-0.384 1.088-1.952 1.088-2.624 0-1.12-0.352-1.792-1.056-1.952v-1.024h1.152c0.32 0 0.8 0.384 1.248 1.184l0.704 1.248 0.544-0.544c0.896 0.704 2.304 1.76 4.096 3.328 0.32 0.288 0.512 2.080 0.832 2.432 0.16-0.128 0.224-0.48 0.224-1.024v-0.352c0.32 0.352 0.992 1.248 1.984 2.72 0.032-0.256 0.192-0.704 0.448-1.344 0.032 0 0.256 0.192 0.608 0.544l0.832-1.536c0.32-0.608 0.672-0.928 0.96-0.928 0.224 0 0.352 0.064 0.352 0.128s-0.032 0.128-0.032 0.192c0 0.096 0.032 0.192 0.096 0.224 0.352-0.352 0.544-1.376 0.768-1.6l2.4-1.952c0.096 0.192 0.16 0.384 0.16 0.512 0 0.192-0.064 0.32-0.192 0.448 0.192 0.416 0.672 0.736 1.408 0.96 0-0.128 0.16-0.352 0.512-0.704l-0.832-0.8c0.16-0.384 0.832-1.152 2.048-2.336l0.576 0.544c0.16-0.288 0.544-0.64 1.088-1.088 0.224 0.16 0.768 0.512 0.928 0.672z"></path>
</svg>
