<!-- Generated by IcoMoon.io -->
<svg version="1.1" xmlns="http://www.w3.org/2000/svg" width="45" height="32" viewBox="0 0 45 32">
<title>g</title>
<path d="M23.648 17.088c-0.096 0-1.504-0.288-1.568-0.288 0.48 0.48 0.736 0.864 0.736 1.152zM20.8 9.6v-1.088c-0.16-0.032-2.112-1.024-2.688-1.024-0.512 0-1.568 0.384-1.696 0.384 0 0.736-0.64 3.296-0.64 3.712 0.8 0.576 3.2 1.376 4.32 2.56 0-0.928 0.704-4.384 0.704-4.544zM42.368 16.672c0 2.016-1.792 3.488-3.648 3.488-0.8 0-1.568-0.544-2.304-1.6h-0.032c-0.224 0-0.928 1.12-1.088 1.28-0.16 0-0.416-0.032-0.768-0.096-0.832-0.736-1.632-1.92-1.632-3.072 0-0.576 0.288-2.144 0.288-2.304 0-0.352-0.096-0.544-0.32-0.544-0.32 0-2.176 0.96-2.528 0.96-0.256 0-0.704-0.032-1.312-0.16-1.792-0.352-0.896-0.288-1.856-1.248 1.28-1.632 2.848-3.584 2.848-4.128 0-0.288-0.352-0.704-1.024-1.28-1.536-1.312-1.632-1.504-2.272-1.504-0.256 0-0.608 0.032-1.184 0.032 0 0.832-0.224 1.472-0.704 1.952-0.608 0-1.312-0.192-2.208-0.64-0.064 0.256-0.096 0.544-0.096 0.832 0 0.032 0.128 0.96 0.384 2.784 0.032 0.192 0.032 0.384 0.032 0.576 0 0.864-0.288 1.728-0.864 2.592-0.032 0.032-0.064 0.064-0.064 0.096 0 0.064 0.192 0.096 0.544 0.096 1.952 0 1.056-3.040 1.568-4.736 0.896 2.176 3.488 6.528 5.568 10.24v0.768c-0.32 0.576-0.736 0.864-1.216 0.864-0.416 0-1.952-0.864-2.464-0.864-0.064 0-0.128 0-0.192 0.032-0.032-0.032-0.064-0.064-0.096-0.064-0.096 0-0.16 0.224-0.16 0.576 0 0.256 1.28 2.912 1.28 3.168 0 1.44-0.576 1.536-1.344 1.536-0.224 0-0.448-0.032-0.672-0.128-0.288 0.608-0.48 1.344-0.576 2.208-0.128 0-0.608 0.352-1.216 0.352-0.704 0-4.736-2.944-4.736-4.256 0-0.48 0.96-2.592 0.928-2.528-0.16-0.128-0.992-0.192-2.432-0.192-0.352-0.224-0.736-0.32-0.736-0.96 0-0.384 0.256-0.928 0.8-1.6 2.080-2.56 2.144-2.816 2.144-4.16v-0.256l-1.536 1.152c-0.576 0.448-1.024 0.768-1.376 0.736-0.672 0-1.216-0.128-1.472-0.48l-1.28-1.728c-0.48 0.192-0.96 0.768-1.504 1.728 0.096 0.16 0.16 0.384 0.16 0.64 0 1.12-1.152 3.008-2.112 3.008-0.544 0-1.088-0.512-1.632-1.568-1.28 0.64-2.112 0.96-2.496 0.96-1.408 0-2.368-1.664-2.368-3.328 0-1.056 0.608-2.080 1.6-2.080 0.48 0 1.408 0.64 1.888 0.64 0.384 0 3.040-1.12 3.040-2.848 0-0.16-0.128-0.672-0.128-1.12 0-1.696 2.368-3.232 5.408-5.408 0.224-0.096 0.64-0.128 1.184-0.128 0.768 0 2.272 0.448 2.944 0.96-0.032-0.384-0.064-0.736-0.064-1.088 0-3.072 1.376-4.608 4.096-4.608 1.792 0 2.528 0.576 3.168 2.4-0.224 0.224-0.544 0.32-0.928 0.32-0.352 0-1.472-0.192-1.952-0.192-0.768 0-1.408 0.256-1.888 0.8v1.856c0.576 0.544 1.152 0.832 1.76 0.832 0.48 0 0.992-0.384 1.568-1.12 2.944-0.32 4.448-0.48 4.448-0.48 0.224 0 3.84 1.024 6.016 4.512 0.416 0.704 0.8 2.752 0.864 2.88v-0.032c0.096 0 0.48 3.424 2.624 3.424 0.384 0 1.664-0.64 2.048-0.64 0.864 0 1.28 0.64 1.28 1.888z"></path>
</svg>
