<!-- Generated by IcoMoon.io -->
<svg version="1.1" xmlns="http://www.w3.org/2000/svg" width="40" height="32" viewBox="0 0 40 32">
<title>h</title>
<path d="M17.248 7.168l-0.256 0.224-0.352-0.352 0.256-0.224zM22.688 8.576c0 0.352-0.256 0.672-0.8 0.928l-3.488-0.352zM19.104 13.92c-0.16-0.16-0.256-0.32-0.288-0.512h-0.896c0.096 0.992 0 2.112 0.896 2.336zM5.632 23.872c-0.224 0.16-0.512 0.256-0.928 0.256-0.608 0-1.12-0.16-1.472-0.512 0-0.672 0.64-0.864 1.44-0.864 0.544 0 0.96 0.608 0.96 1.12zM21.984 7.264c-0.8 0.48-1.664 1.056-2.016 1.056-0.384 0-1.536-0.288-2.016-0.288 0-0.16-0.256-0.736-0.256-0.896 0.416 0.032 0.832 0.064 1.184 0.064 1.184 0 2.048-0.192 2.528-0.576zM16.704 14.464c-0.608-2.368-0.736-2.976-1.632-2.976-0.352 0-0.544 0.128-0.544 0.416 0 0.48 0.64 1.088 0.64 1.344 0.064 1.344 0.32 1.632 0.96 1.792zM21.76 12.896c0-0.544-0.448-1.12-1.376-1.696 0 0.544-0.32 2.688-0.32 2.88 0 0.608 0.288 1.088 0.896 1.44 0-0.288 0.8-2.464 0.8-2.624zM27.296 9.76c0-0.512-0.384-0.736-0.64-0.96-0.128 0.448-1.504 2.56-1.504 2.784v2.016c1.44-1.536 2.144-2.816 2.144-3.84zM20.8 17.824c0-0.608-0.704-1.344-1.344-1.344-0.512 0-0.928 0.192-1.28 0.576v1.312c0.224 0 0.512 0.416 0.768 0.768h1.088c0.032-0.064 0.768-0.896 0.768-1.312zM21.76 20.928c-0.224-0.224-0.608-0.48-1.12-0.736-0.128 0.032-0.288 0.032-0.448 0.032-0.768 0-2.176-0.352-2.176-0.352-0.224 0-0.448 0.096-0.672 0.32l-0.384 0.48 0.864 1.664c0.48 0.736 0.992 1.12 1.536 1.12 0.384 0 2.112-1.888 2.4-2.528zM22.464 26.336c0-0.8-0.256-1.856-0.256-1.856-3.744 0-5.792 0-6.144 0.032-0.544 0.352-0.8 0.704-0.8 1.12 0 1.152 2.816 1.184 4.224 1.184 1.376 0 2.368-0.16 2.976-0.48zM25.856 8.416l-0.576-0.16-0.896 0.48c-0.352 0.192-0.608 0.288-0.832 0.288-0.288 0-0.416-0.032-0.416-0.096 0-0.032 0-0.032 0.032-0.064 0-0.256 0.992-1.536 0.992-1.76 0-0.512-0.128-0.576-0.352-0.704-0.64 0.32-1.056 0.48-1.216 0.48-0.48 0-0.48-0.224-0.608-0.384 0.128-0.288 0.224-0.736 0.224-1.28v-0.256c-0.064 0-0.096 0.032-0.16 0.032-0.704 0-1.408-1.728-2.144-1.728-0.672 0.48-1.44 1.472-1.472 1.888 0.096-0.032 0.192-0.064 0.288-0.064 0.608 0 1.056 0.224 1.344 0.672-0.128 0.224-0.192 0.384-0.704 0.384-0.256 0-2.848-0.736-3.008-0.736 0 0-2.656 0.224-3.68 1.536-0.096 1.632-0.288 1.792-1.248 2.656l0.96 2.080c0.416 0.928 0.896 1.664 1.408 2.144v-1.824c0-0.544-0.128-1.312-0.384-2.336 0.096-0.16 0.224-0.288 0.32-0.384h0.64c0.48 0.352 1.408 0.8 2.752 1.248 0.928 0.32 1.408 0.704 1.408 1.216 0 0.192-0.032 0.384-0.128 0.608 0.16 0 0.352-0.032 0.608-0.064-0.032-0.16-0.032-0.288-0.032-0.448 0-0.864 0.096-1.12 1.824-1.12 0.384 0 0.928 0.224 1.312 0.224s1.088-0.704 1.44-0.704c0.288 0 0.416 0.032 0.416 0.096 0 0.032 0 0.032-0.032 0.064l-0.96 2.144c-0.416 0.96-0.736 1.696-0.992 2.176l0.864 0.8c0.16-0.16 0.32-0.256 0.48-0.32 0.8-1.056 1.216-2.112 1.216-3.168 0-0.064-0.16-0.864-0.16-1.728 0-0.512 0.256-0.8 1.472-1.888zM36.672 8.416c0 0.448-1.888 2.080-2.944 2.848l-1.664 1.44c-0.608 0.672-1.568 1.6-2.912 2.752-0.928 0.64-3.488 1.504-4.032 1.504 0.032 0-0.384-0.096-1.312-0.096-0.32 0-0.576 0.032-0.8 0.096v-0.064c0-0.192-0.16-0.544-0.416-1.12-0.544 0.736 0 1.184-0.832 2.016 1.088 0.736 1.824 1.12 2.176 1.12h1.056c1.696 0 3.424-0.704 5.248-2.080l5.92-4.896v0.864c0 0.192-0.288 0.832-0.832 1.92l-0.864 0.128c-0.064 0.32-1.12 1.28-3.2 2.88-2.080 1.568-3.328 2.368-3.776 2.368h-1.888c-0.96 0-1.76-0.032-2.464-0.032h-0.48l-0.192 0.608c0.224 0.16 0.512 0.224 0.896 0.224 0.16 0 0.352 0 0.544-0.032-0.192 0.576-0.832 1.408-1.92 2.496l0.416 0.352c1.088 0 5.984-0.256 5.984-0.256v0c0.352 0 0.896 0.48 1.312 0.48 0.192 0 2.368-0.224 2.56-0.224h2.912c0.352 0.352 0.512 0.736 0.512 1.152-0.48 0.032-1.056 0.064-1.792 0.064-0.928 0-2.144-0.032-3.584-0.128s-2.176-0.128-2.176-0.128c-0.16 0.032-0.576 0.064-1.248 0.128l-1.6 0.192c-0.224 0.096-0.512 0.288-0.896 0.576v0.608c0.384 0.288 2.24 0.704 2.592 0.832l0.928-0.096c0.416-0.032 0.896-0.064 1.376-0.064 0.576 0 1.152 0.032 1.792 0.096-0.032 0.064-0.032 0.096-0.032 0.128 0 0.192 0.16 0.256 0.448 0.256 0.416 0 1.056-0.48 1.472-0.48 0.352 0 1.504 0.256 1.984 0.256v0.032c0 0.064 0.096 0.384 0.096 0.96 0 0.256-0.032 0.448-0.096 0.64-3.392-0.16-9.12-0.224-17.152-0.224-0.192 0-1.856-0.48-2.176-0.48-0.224 0-1.664 0.48-1.92 0.48-0.384 0-0.576-0.48-0.96-0.48 0.16 0-6.048-0.224-5.888-0.224-0.8 0-1.632 0.16-2.56 0.48-0.384-0.352-0.576-0.864-0.576-1.6 0.16-0.448 0.64-0.544 1.28-0.544 0.96 0 2.176 0.064 3.616 0.064 0.256 0.16 0.512 0.384 0.992 0.384 0.16 0 1.056-0.096 2.624-0.288 0.416-0.064 0.864-0.352 1.376-0.832 0-0.224-0.192-0.512-0.672-0.96l-3.616-0.224c-1.536-0.096-2.4-0.128-2.624-0.128h-0.8l0.288-0.672c0.384-0.032 0.864-0.064 1.408-0.064 0.8 0 1.824 0.064 3.072 0.16 1.28 0.096 1.92 0.128 1.952 0.128 0.128 0 2.688-0.48 3.2-0.48 0.032 0.032 0.032 0.064 0.064 0.064 0.064 0 0.096-0.16 0.096-0.416 0-0.544-0.384-0.992-1.184-1.408 0.224-1.152 1.664-1.28 1.664-1.28v-0.192c-0.8-0.256-1.472-0.384-2.016-0.384-0.384 0-1.344 0.256-1.696 0.256-0.608 0-1.632-0.416-3.072-1.248-2.976-1.696-3.52-2.752-6.432-5.856 0.16-0.16 0.448-0.928 0.608-1.088 0.704 0.544 5.088 4.96 6.56 5.984 0.16 0.096 0.768 0.224 1.888 0.352 0.096 0.096 0.096 0.64 0.576 0.64 0.16 0 0.768-0.16 1.248-0.16 0.608 0 0.992 0.416 1.28 0.416 0.48 0 0.992-0.288 1.568-0.864-0.544-1.056-0.992-1.568-1.344-1.568-0.384 0-0.544 0.256-0.96 0.256-0.352 0-1.056-0.192-2.112-0.576-3.168-1.12-4.704-2.4-7.296-5.536l-1.408-1.568c-0.224-0.256-0.352-0.64-0.352-1.12 0-0.288 0.192-0.8 0.544-1.536 0.768 0.416 1.952 1.6 3.552 3.52 1.504 1.824 2.848 2.976 4.032 3.52h0.288c-0.736-1.408-1.92-4.192-1.92-4.64 0-0.576 0.096-1.056 0.32-1.44 0.096 0 0.256 0.064 0.512 0.224 2.24-3.264 2.656-3.424 6.688-3.648 1.44-1.76 1.6-1.888 2.336-1.888 0.8 0 1.408 0.256 1.824 0.8 0.032 0.512 0.032 1.088 0.512 1.312 0.768 0.224 1.888 0.672 3.392 1.376l1.408 1.088c1.344 0.928 1.984 0.864 1.984 1.92 0 0.96-0.32 1.92-0.992 2.88-1.184 1.696-1.824 2.624-1.888 2.752l0.608 0.64c1.92-1.696 4.8-4.16 8.608-7.456h0.832c0.352 0.352 0.544 0.704 0.544 1.056z"></path>
</svg>
