<!-- Generated by IcoMoon.io -->
<svg version="1.1" xmlns="http://www.w3.org/2000/svg" width="35" height="32" viewBox="0 0 35 32">
<title>i</title>
<path d="M25.824 22.432l-1.024 0.736c-0.416 0.32-0.736 0.48-0.928 0.48-0.512 0-1.92-0.64-2.688-1.184-0.352 0.128-0.576 0.416-0.64 0.896 0.032 0.256 0.064 0.608 0.064 1.056 0 1.376-1.504 4.384-2.688 4.384-0.32 0-1.12-0.736-2.912-2.016-0.64-0.704-1.664-3.232-1.984-3.744-0.64 0.416-1.056 0.992-2.176 0.992-1.248 0-1.888-0.736-1.888-2.176 0-0.8 0.32-1.44 0.96-2.048 1.056-0.992 1.632-1.504 1.696-1.6 0.992-1.44 6.144-1.728 6.496-1.728 0.672 0 1.216 0.192 1.696 0.576h0.096c0.288 0 0.384-0.16 0.672-0.16 0.704 0 3.232 0.736 3.328 2.016 0.896 0.128 2.016 1.824 2.016 2.976 0 0.224-0.032 0.384-0.096 0.544zM22.464 6.048c0 0.192-0.608 1.152-1.824 2.848-2.112 2.912-2.208 3.872-2.784 6.592-0.864-0.256-0.8-1.696-0.8-1.824l-0.48-0.448c0.032-0.096 0.032-0.224 0.032-0.352 0-2.016-4.288-4.512-4.288-6.752 0-0.672 0.864-0.96 1.12-0.96 0.352 0 1.856 0.768 1.952 0.8 0.064-0.064 0.064-0.192 0.064-0.32 0-0.288-0.32-0.736-0.32-1.28 0-0.352 0.224-0.96 0.512-1.312-0.064-0.192-0.064-0.416-0.064-0.672 0-0.224 0-0.48 0.064-0.768 0.16 0 0.608 0.576 0.96 0.576s0.256-0.192 0.608-0.192c1.184 0 2.080 1.12 2.080 2.368 0 0.096-0.992 2.56-0.992 2.656v1.152c0.096 0 0.256 0.128 0.48 0.384 0.032-0.032 0.096-0.128 0.16-0.288-0.096-0.16-0.128-0.32-0.128-0.512 0-0.608 0.448-1.152 2.336-2.56h1.088c0 0.096 0.224 0.48 0.224 0.864zM14.112 16.256c-0.64 0.096-1.568 0.352-2.816 0.704-0.608 0.416-1.472 0.992-2.592 1.664-1.6 0.832-2.752 1.248-3.424 1.248-1.376 0-2.080-0.672-2.080-1.984 0-0.544 0.224-1.12 0.672-1.792 0.224 0.192 0.608 0.512 1.088 0.96 0.032 0.032 0.352 0.032 0.928 0.032 1.472 0 2.56-0.256 3.264-0.8-0.288-0.16-0.704-0.224-1.28-0.224-0.224 0-0.48 0-0.768 0.032l-0.288 0.16v-1.28c0.608-0.864 0.992-1.088 2.336-1.088 1.92 0 4.64 1.12 4.96 2.368zM31.616 17.984c0 0.672-0.832 1.12-2.464 1.28-2.368 0-3.104-1.632-3.68-1.952l-1.344-0.576c-0.352-0.16-0.8-0.256-1.344-0.32l-1.28-0.16v-0.704c0.704-0.544 2.336-1.248 2.752-1.248 0.288 0 0.928 0.192 1.216 0.192 0.192 0 1.696-0.8 1.888-0.8 0.736 0 1.088 0.416 1.088 1.216 0 0.32-0.256 0.736-0.8 1.28 0.512 0.32 1.184 0.48 1.984 0.48 0.288 0 1.088-0.16 1.344-0.16 0.416 0.864 0.64 1.344 0.64 1.472zM16.128 15.2l-0.288 0.896-3.616-4c-1.632 0.288-3.296 0.416-4.992 0.416l-0.448-0.48c0.608-1.472 2.24-2.688 3.36-2.688 2.656 0 4.672 1.952 5.984 5.856zM23.84 21.024c-0.128-0.416-0.352-0.896-0.672-1.472-0.8-0.704-3.2-1.888-3.584-1.888-1.664 0-2.848 0.032-3.584 0.096-1.312 0.096-5.44 2.048-5.44 3.392 0 0.288 0.096 0.512 0.288 0.704 2.528-1.6 4.48-2.4 5.856-2.4 1.728 0 3.36 0.224 4.864 0.672 0.064 0.032 1.12 0.896 1.44 0.896h0.832zM27.84 11.328c0 0.544-0.32 0.8-0.992 0.8-0.224 0-1.664-0.416-1.888-0.416-0.864 0-1.728 0.288-2.592 0.896l-2.048 1.664-0.128 0.832c-0.032 0.096-0.256 0.224-0.672 0.384v-1.248c0-0.416 0.48-0.64 0.512-0.672 0-1.984 2.528-4.64 4.736-4.64 0.608 0 1.408 0.16 2.368 0.512 0.48 0.864 0.704 1.472 0.704 1.888zM20.064 21.888l-3.36-0.192c-0.544-0.032-0.96-0.032-1.184-0.032-0.256 0-0.576 0.224-0.992 0.672 0.16 0.448 0.384 1.152 0.64 2.144 0.48 2.080 0.64 2.592 2.464 2.944 1.152-1.408 1.824-3.552 2.432-5.536zM16.8 7.424l-0.896-1.12-0.256 0.192 0.864 1.088z"></path>
</svg>
