<!-- Generated by IcoMoon.io -->
<svg version="1.1" xmlns="http://www.w3.org/2000/svg" width="32" height="32" viewBox="0 0 32 32">
<title>j</title>
<path d="M21.952 14.688l-0.224-0.48-0.256 0.096 0.224 0.384h0.256zM16.96 18.304l-0.192-0.512-0.256 0.096 0.224 0.416h0.224zM23.104 26.88l-0.448-0.224-0.096 0.224 0.448 0.224zM25.664 10.528l-0.64-0.288-0.064 0.224 0.608 0.32zM27.168 10.72v-0.32l-0.8-0.192v0.288zM14.304 17.44h-0.256s-0.128-0.608-0.128-1.12c0.064 0.16 0.384 0.32 0.384 0.704v0.416zM27.744 11.648l-0.16-0.224-0.864 0.576 0.16 0.224zM17.6 15.2c-0.256-0.096-0.576-0.256-0.992-0.448v0.64zM18.784 13.344c-0.192-0.416-0.448-0.64-0.8-0.64v0.64h0.8zM27.712 14.112c-0.224-0.224-0.512-0.352-0.864-0.352 0.096 0.064 0.16 0.16 0.16 0.256 0 0.032-0.096 0.256-0.288 0.672 0.48 0 0.8-0.192 0.992-0.576zM20 10.304h-1.824l-0.224 0.288h1.824zM7.488 13.664c-0.224-0.416-0.416-0.64-0.608-0.64-0.32 0.16-0.512 0.448-0.544 0.832 0.384 0 1.12-0.192 1.152-0.192zM20.32 6.56l-0.8-0.192-0.192 0.64c0.16 0 0.448 0.192 0.8 0.544 0-0.096 0.192-0.608 0.192-0.992zM27.68 12.864l-1.856-0.128 0.512 0.384c0.224 0.16 0.448 0.256 0.608 0.256 0.48 0 0.736-0.16 0.736-0.512zM16.928 16.544c0-0.288-0.064-0.416-0.224-0.416h-0.608c0.064 0.384 0.192 0.896 0.384 1.504 0.288-0.544 0.448-0.928 0.448-1.088zM18.784 6.816c-0.288-0.224-0.896-0.48-1.824-0.8l0.16 0.832c0.16 0 0.448 0 0.832-0.032h0.832zM11.392 11.296c-0.32-0.352-0.8-0.96-1.472-1.824l0.384-0.096c0.576 0.416 0.928 1.056 1.088 1.92zM19.040 11.648c-0.224 0-0.864-0.16-1.888-0.512-0.256 0.256-0.384 0.544-0.384 0.832h0.896c0.288 0 0.864 0.192 1.152 0.192 0.256 0 0.384-0.096 0.384-0.256s-0.064-0.256-0.128-0.256h-0.032zM19.456 5.632v-1.632h-1.152c0.16 0.352 0.224 0.608 0.224 0.8 0 0.064 0 0.128-0.032 0.192-0.256 0-0.832-0.16-0.864-0.16 0 0.096-0.064 0.256-0.192 0.448 0.768 0.352 1.184 0.544 1.28 0.544 0.352 0 0.64-0.192 0.736-0.192zM20.672 8.384c0-0.128-0.224-0.544-0.224-0.672-0.224 0.224-0.416 0.352-0.608 0.352-0.096 0-2.496-0.512-2.592-0.512-0.384 0-0.672 0.768-0.672 1.312v0.576c0.416 0 0.928-0.032 1.504-0.032s1.184 0.032 1.888 0.032v-0.64c-0.416 0.064-0.832 0.096-1.248 0.096-0.48 0-0.96-0.032-1.44-0.128 0 0.224-0.064 0.32-0.224 0.32-0.032-0.128-0.064-0.256-0.064-0.352 0-0.448 0.256-0.672 0.768-0.672 0 0 2.528 0.32 2.912 0.32zM18.464 20.992c-0.16-0.064-0.512-0.096-1.024-0.096-0.288 0-0.416-0.512-0.704-0.512-0.256 0-0.32 0.352-0.576 0.352-0.064 0-2.496-0.384-2.88-0.384-0.064-0.032-0.032-0.32-0.384-0.32-0.064 0-2.816 0.704-2.912 0.704-0.256 0-0.224-0.352-0.512-0.352-0.352 0-0.448 0.352-0.608 0.608 0.48 0.48 3.296 0.736 3.68 1.28 0.16-0.224 0.32-0.512 0.704-0.512-0.096 0 3.712 0.512 3.68 0.512 0.608 0 0.576-1.28 1.536-1.28zM12.128 26.752c-0.224 0.544-1.888 1.824-2.464 1.824h-1.6c-0.16 0.032-0.48-0.096-0.992-0.192l-1.216-0.192-0.736-0.64v-0.992c0.544-0.608 1.12-1.376 1.888-1.376 0.32 0 0.672 0.192 1.152 0.192 0.416 0 1.152-0.128 2.24-1.056v0.8c0 0.672-1.024 0.768-2.912 1.184 0.32 0.608 0.64 0.928 0.96 0.928h2.56c0.256 0 0.864-0.48 1.12-0.48zM29.056 13.44c0 0.224-0.16 0.736-0.384 1.536-0.384 1.344-0.576 2.496-2.016 2.496-0.096 0-0.544-0.672-1.6-0.672-0.512 0-0.864 0.064-1.056 0.16-0.288-0.352-0.416-0.64-0.416-0.864 0-0.736 0.512-1.152 1.568-1.312-0.128-0.288-0.352-0.608-0.64-0.928-0.128 0-0.352 0.448-0.448 0.48-0.416 0.032-0.96 0-1.184 0.256-0.48 0.608-0.992 1.696-1.472 3.328-0.032 0.096-0.064 0.256-0.064 0.416s0.032 0.384 0.064 0.608c0 0-0.224 0.224-0.224 0.576 0 0.416 0.608 0.864 1.024 0.864 0.16 0 1.92-0.16 2.080-0.16 0.64 0 1.184 1.376 1.184 1.952 0 0.416-0.32 0.608-0.928 0.608-0.128 0-2.624-0.352-2.656-0.352-0.352 0-0.704 1.088-0.704 1.536 0 1.088 2.112 2.4 3.872 2.4h0.48c0.224 0.032 0.416 0.032 0.608 0.032v1.632c-0.192 0.288-2.080 1.088-2.56 1.088 0.064 0-2.688-0.576-3.232-0.576 0.064-0.096 0.096-0.192 0.096-0.352 0-0.416-1.12-2.976-1.12-3.104 0-0.512 0.704-1.44 1.184-1.728l-0.64-0.608c-0.096 0-0.256 0.224-0.48 0.704-0.128-0.352-0.32-0.544-0.608-0.544-0.384 0.032-0.64 0.064-0.8 0.064-0.032 0-0.096-0.032-0.096-0.032-0.288 0.288-0.448 0.576-0.448 0.864 0 0.064 1.024 2.56 1.024 2.656 0 0.16-0.192 0.864-0.544 2.048-1.088 0.288-1.952 0.416-2.624 0.416-1.088 0-1.792-0.96-1.792-2.304 0-0.352 0.352-0.608 0.608-0.768l0.192 0.768c0.16 0.416 0.352 0.608 0.576 0.608 0.736 0 1.536-0.768 1.536-1.376 0-0.16-0.064-0.32-0.192-0.48l-0.288-0.256c0.096-0.16 0.192-0.384 0.224-0.672v-0.128c-0.288 0.224-0.448 0.32-0.48 0.32l-0.384-0.32c-0.16 0.16-0.448 0.352-0.928 0.64 0.352-0.576 0.512-1.024 0.512-1.344 0-0.416-0.32-1.024-0.704-1.024-0.416 0-0.928 0.192-1.536 0.608 0.352 0.352 0.512 0.64 0.512 0.864 0 0.352-0.256 0.992-0.736 1.952-0.288 0-0.448-0.128-0.448-0.416 0-0.192 0.672-1.28 0.672-1.472 0-0.16-0.096-0.32-0.256-0.544l-0.544-0.64c-0.224 0.224-0.512 0.512-0.928 0.864-0.064-0.128-0.128-0.224-0.128-0.352 0-0.192 0.128-0.416 0.32-0.64 0-0.288-1.952-0.736-2.752-0.736-0.224 0-0.64 0.192-0.928 0.192-0.352 0-0.768-0.64-0.928-0.736 0.224-0.8 0.768-1.344 1.568-1.6l2.048-0.448c0.32-0.224 0.48-0.64 0.48-1.248 0-0.16-0.064-0.448-0.192-0.832l-0.288-0.896c0.224-0.256 0.32-0.416 0.32-0.48 0-0.128 0.032-0.512-0.832-0.992 0.032-0.096 0.032-0.192 0.032-0.288 0-0.864-0.512-1.44-1.504-1.728-0.128 0.096-0.288 0.064-0.288 0.416 0 0.256 0.704 0.928 0.704 1.216 0 0.64-1.952 1.44-2.752 1.44-0.64 0-2.56-1.984-2.56-4.096 0-0.384 0.256-1.632 0.736-3.712 0.096-0.48 2.144-1.76 2.432-1.76 0.512 0 2.848 1.536 3.168 1.952-0.16 0.16-0.224 0.352-0.224 0.576-0.768-0.224-1.216-0.32-1.312-0.32-0.672 0-1.152 0.064-1.408 0.224-0.608 0.352-2.72 1.504-2.72 3.648 0 0.16 0.448 0.832 1.376 1.952 0.064-0.224 0.16-0.544 0.16-0.96 0-1.568 0.32-2.112 2.656-2.112 0.16 0 0.512 0.256 1.024 0.64 1.408 1.056 0.928 1.184 1.344 2.656 0.16 0.576 0.864 2.112 0.864 3.232 0 0.512-0.16 0.832-0.416 0.96 0 0.064 0.224 0.32 0.64 0.736h0.8l0.288-0.288c-0.224-0.448-0.32-0.8-0.32-1.056 0.192-0.128 0.352-0.192 0.448-0.192 0.224 0.864 0.384 1.056 0.768 1.184 0.096-0.288 0.256-0.672 0.48-1.216 0.096 0.16 0.16 0.576 0.16 1.248 0.096 0.096 0.224 0.128 0.448 0.128 0.576 0 0.992-0.224 0.992-0.672 0-0.48-0.032-0.992-0.032-1.472 0.16-1.056 0.256-2.016 0.256-2.944 0-0.576-0.096-1.152-0.096-1.664 0-0.64 0.224-1.152 0.672-1.568 0-0.128-0.384-0.352-0.48-0.448-0.032-0.608-0.032-1.216-0.032-1.792 0-1.632 0.064-3.104 0.192-4.416 0-0.288-0.576-1.152-0.992-1.44-0.992 0.448-1.344 1.888-2.144 2.336h-0.032c0 0.064 0.32 0.224 0.32 0.512s-0.448 1.536-0.448 1.696c0 0.992 1.728 7.008 1.728 7.424s-0.16 0.704-0.48 0.864c-0.224-2.016-2.080-7.36-2.080-8.032 0-2.176 0.128-3.584 0.384-4.224 0.224-0.576 0.96-1.536 2.208-2.88 0.128-0.128 2.464-0.448 3.2-0.448 1.376 0 2.88 2.112 3.488 4.352 0.032 0.256 0.8 1.408 0.8 1.568 0 1.088-0.992 4.768-1.952 6.144l-0.864 1.248c-0.64 1.184-0.608 1.696-1.024 4.384l-0.224 0.16c-0.16 0.096-0.224 0.256-0.224 0.448 0 0.672 0.32 1.024 0.96 1.024 0.064 0 0.32-0.096 0.768-0.288-0.224-0.736-0.32-1.312-0.32-1.76 0-0.48 1.088-2.944 2.080-5.28 0.32 0 0.704 1.024 2.24 1.024 0.192-0.192 0.288-0.384 0.288-0.576-0.032-0.032-0.064-0.064-0.096-0.064-0.096 0-0.256 0.128-0.416 0.128-0.416 0-0.768-0.608-1.12-1.024-0.224 0.192-0.416 0.288-0.576 0.288 0-0.256 0.48-0.96 0.768-1.12 0.352-2.56 3.168-3.616 3.552-3.616 0.416 0 0.96 0.352 1.568 1.056l0.096 0.672c0.448 0.384 0.48 2.080 1.248 2.208l0.128 1.152c0.032 0.448 0.128 0.736 0.128 0.896v0.064z"></path>
</svg>
