<!-- Generated by IcoMoon.io -->
<svg version="1.1" xmlns="http://www.w3.org/2000/svg" width="62" height="32" viewBox="0 0 62 32">
<title>k</title>
<path d="M30.496 12.32v0zM4.736 15.456l-0.32-0.32-0.224 0.224 0.32 0.32zM47.872 21.408v-0.352h-0.576v0.352h0.576zM34.304 16.32v-0.352h-0.768v0.352h0.768zM28.928 15.072l-0.512-0.768-0.288 0.192 0.48 0.736zM48.96 6.56c-0.416 0-0.608 0.224-0.608 0.672 0 0.416 0.288 0.768 0.288 0.864 0-0.608 0.096-1.12 0.32-1.536zM50.752 19.392v-1.184h-0.384v1.184h0.384zM49.152 14.112c0-0.032 0.064-0.32 0.064-0.896 0-0.16-0.032-0.288-0.096-0.352-0.128 0-0.32 0.096-0.576 0.288 0.32 0.64 0.512 0.96 0.608 0.96zM56.608 16.96c-0.16-0.16-0.448-0.256-0.832-0.256 0 0.192 0.128 0.544 0.384 1.024 0.288-0.192 0.448-0.448 0.448-0.768zM49.792 18.112c0-0.416-0.256-0.768-0.768-0.992v0.992h0.768zM50.624 13.024v-1.184c-0.384 0-0.576 0.192-0.576 0.544v0.64h0.576zM55.392 13.696c-0.32-0.576-0.608-0.992-0.832-1.248 0 0.128-0.512 0.832-0.512 0.96l0.32 0.256c0.224-0.096 0.416-0.128 0.576-0.128s0.256 0.032 0.32 0.16h0.128zM20.096 27.968h-0.544v1.376l0.544 0.256c0 0.032 0.096-0.32 0.096-1.12 0-0.224-0.032-0.384-0.096-0.512zM13.792 5.984c-0.224-0.48-0.576-0.736-1.024-0.736 0 1.248 0.128 2.080 0.512 2.432-0.192-0.192-0.224-0.384-0.224-0.608s0.128-0.48 0.352-0.704zM20.352 1.888h-1.024c0 0.128-0.192 0.832-0.192 0.992 0.288 0 1.056 0.224 1.152 0.224 0.064-0.064 0.096-0.192 0.128-0.352 0-0.256-0.064-0.832-0.064-0.864zM15.872 4c0 0.736-0.256 1.216-0.96 1.216-0.16-0.288-0.32-1.088-0.448-1.376 0.288 0.128 0.736 0.16 1.408 0.16zM7.616 17.76c-0.256 0-0.8-0.128-1.632-0.416 0.416 0.672 0.864 1.504 1.408 1.856 0-0.032 0.224-0.768 0.224-1.44zM17.376 28.256v-0.736h-0.768c-0.32 0.288-0.48 0.608-0.48 0.928 0 0.288 0.128 0.544 0.416 0.736 0.544-0.384 0.832-0.704 0.832-0.928zM30.080 11.616c0 0.16 0.128 0.416 0.416 0.704-0.064 0.064-0.576 1.216-1.12 1.216-0.16 0-0.256 0-0.736-0.352 0.352-0.608 0.576-1.216 1.44-1.568zM14.656 25.504c-0.288-0.864-0.704-1.568-1.184-2.048-0.544 0.544-0.704 0.896-0.704 1.216 0.576 0.288 0.864 0.832 0.864 1.152 0 0.032-0.032 0.096-0.032 0.128 0.384 0 0.736-0.16 1.056-0.448zM53.6 10.784c-0.096 0-0.32 0.16-0.704 0.16-0.416 0-0.8-0.384-0.928-0.384-0.288 0.928-0.448 1.536-0.448 1.76 0 0.352 0.192 0.544 0.576 0.544 0.064-0.096 0.576-0.864 0.704-0.864h0.032c0.288 0.544 0.448 0.832 0.544 0.832 0-0.64 0.064-1.312 0.224-2.048zM15.872 3.296c-0.32-0.128-0.672-0.192-1.024-0.192-0.384 0-0.768 0.064-1.184 0.224-0.192-0.032-0.288-0.192-0.288-0.544 0-0.64 1.952-1.696 2.048-1.792 0 0.768 0.16 1.536 0.448 2.304zM13.152 14.72h-1.216c-0.416-0.48-0.992-0.864-1.728-0.928l-1.696-0.16c0-0.224-0.16-0.736-0.416-1.568 0.256 0 1.184-0.256 1.568-0.256 0.416 0 1.6 0.96 3.488 2.912zM13.568 13.152c0 0.288-0.16 0.544-0.448 0.768-0.16-0.832-0.384-1.248-0.608-1.248-0.032 0-0.096 0-0.16 0.032h-0.16c-0.384 0-0.448-0.512-1.056-1.12-0.256 0.288-0.48 0.416-0.704 0.416-0.224-1.44-0.96-1.696-1.632-2.112-0.416 0.288-0.608 1.504-0.928 1.504-0.416 0-0.384-0.224-0.512-0.224l-0.288 0.352v0.064c0 0.224 0.128 0.704 0.128 0.832h-0.8v-1.856c0.608-0.032 0.672-0.416 0.672-0.832v-0.416c0.512-0.608 1.184-0.896 2.048-0.896 0.416 0 0.768 0.192 1.088 0.544 0.288 0.32 0.096 0.928 3.36 4.192zM22.912 25.632c-0.48-0.448-0.704-0.896-0.704-1.312-1.696 1.248-2.688 1.888-3.008 1.888-1.568 0-3.456-1.824-3.648-3.712 0-0.512 0.224-1.312 0.224-1.536 0-0.288-0.128-0.576-0.416-0.896 0 0.864-0.128 1.44-0.384 1.696-0.192-0.16-0.576-0.832-0.704-0.832-0.16 0.16-0.256 0.416-0.256 0.768 0.384 0.288 0.576 0.576 0.576 0.864 0 0.16-0.16 0.64-0.16 0.8s1.12 2.656 1.152 2.784c0.288 0.064 1.568 0.928 1.824 0.928 0.416 0 0.608-0.224 0.768-0.352 0.16 0.032 0.384 0.032 0.608 0.032s0.512 0 0.8-0.032c0.736-0.064 1.12-0.096 1.088-0.096 0.384 0 0.608 0.288 0.672 0.896 0.096 0.768 0.16 1.184 0.192 1.216 0.064-0.16 0.096-0.352 0.096-0.576 0-0.416-0.192-1.248-0.192-1.504 0-0.352 0.224-0.576 0.704-0.672 0.096 0.288 0.224 0.736 0.448 1.28zM46.624 5.984c0-0.576 0.224-1.12 0.672-1.632-0.224 0.192-0.384 0.256-0.512 0.256l-0.352-0.352 0.608-1.312c-0.064 0.032-1.024 0.8-1.344 0.8-0.256 0-0.384-0.032-0.384-0.096 0-0.032 0-0.064 0.032-0.096-0.064-0.128-0.128-0.288-0.128-0.512 0-0.704 0.128-0.992 0.128-0.96-0.224 0-0.512 0.192-0.928 0.608-0.16-0.288-0.448-0.64-0.896-1.056 0 0.352-0.128 0.8-0.416 1.28h-0.544c-0.352-0.704-0.672-1.12-0.96-1.28v1.024c0.416 0.224 0.608 0.416 0.608 0.672 0 0.448-1.152 0.64-1.472 0.64-0.096 0.416-1.312 2.4-1.312 2.656 0 0.32 0.096 0.48 0.32 0.512 0.448-0.832 2.208-2.112 3.072-2.112 0.384 0 0.512 0.192 0.864 0.192s0.16-0.416 0.512-0.416c0.736 0 2.24 3.36 2.24 3.808 0 0.544-0.096 1.088-0.288 1.696 0.64-0.48 0.96-1.024 0.96-1.664 0-0.48-0.48-2.144-0.48-2.656zM55.968 15.264c-0.032-0.032-0.096-0.032-0.192-0.032h-0.384c-0.32 0-0.704-0.064-0.928-0.416-0.096-0.16-0.448-0.896-1.792-0.896-0.672 0-1.344 0.16-1.696 0.512l-1.568 1.504c0.16 0.064 2.176 1.6 2.528 1.6 0.288 0 1.12-0.32 1.408-0.32 0.32 0 0.448 0.032 0.448 1.536 0 0.192 0 0.352-0.064 0.48-0.416-0.416-0.864-0.608-1.344-0.608 0 0.032 0.128 0.48 0.128 0.928 0 0.128 0 0.224-0.064 0.32l-0.896-0.864v0.768l0.48 1.056c0.224 0.032 0.704 0.288 1.056 0.288 0.544 0 1.408-0.864 1.408-1.376 0-0.096-0.224-0.8-0.64-2.080 0.416-0.416 1.024-0.768 1.888-1.056-0.16-0.192-0.224-0.384-0.224-0.608 0-0.32 0.16-0.576 0.448-0.736zM58.72 15.392c0 0.608-3.072 5.344-4.256 6.688-0.16 0.224-0.64 0.32-1.376 0.32-0.8 0-1.312-0.192-1.536-0.576-1.216-2.080-2.432-2.624-4.416-3.936 0.032-0.128 0.064-0.352 0.064-0.64-0.096-0.16-0.128-0.352-0.544-0.352-0.352 0-0.48 0.416-0.864 0.416 0.064 0-4.32-0.864-4.224-0.864-0.48 0-0.992 0.256-1.504 0.8 0 0.16 0.192 0.352 0.576 0.64 1.376 0.16 2.080 0.256 2.176 0.256 0.288 0 0.768-0.192 1.056-0.192 0.384 0 0.96 0.448 1.44 0.8l1.44 0.768c1.664 1.024 3.488 3.936 3.488 5.728 0 2.144-1.408 4.064-3.488 4.736h-0.736c0.096-0.192 0.16-0.384 0.16-0.544 0-0.416-0.768-1.568-0.8-1.888 0.096-0.096 0.352-0.128 0.832-0.128 0.224 0.224-0.032 0.928 0.928 0.928l0.352-0.352c-0.192-0.224-0.48-0.608-0.832-1.12l1.856 0.896h0.256l-0.8-1.12c-0.288-0.416-0.416-0.832-0.448-1.248 0.288 0 0.608 0.192 0.96 0.608h0.544c0.096-0.224 0.16-0.608 0.16-1.184 0-1.216-0.096-1.472-0.928-2.016l-0.352 0.928c0.224 0.16 0.512 0.448 0.864 0.896-0.064 0.032-0.096 0.064-0.16 0.064-0.192 0-0.512-0.192-0.704-0.192-0.384 0-0.512 0.192-0.608 0.192v-0.288c0-0.704-0.096-1.216-0.352-1.6-0.16 0.224-0.384 0.672-0.672 1.408-0.736 1.856-1.632 2.4-2.816 2.4-1.44 0-2.144-1.568-2.88-2.752-0.48 0.192-0.704 0.64-0.704 1.376 0 0.672 0.544 1.344 1.664 1.984s1.664 1.184 1.664 1.632c0 0.192-0.064 0.384-0.16 0.608 0.256 0.256 1.152 0.512 1.568 0.768 0.032-0.096 0.16-0.64 0.32-1.696 0.096 0.128 0.384 0.672 0.864 1.632-0.992 0.32-1.664 0.48-2.016 0.48s-0.896-0.64-1.28-0.64c-0.128 0-0.192 0.032-0.224 0.064 0 0.032 0 0.032 0.032 0.064v0.032c0 0.032-0.064 0.064-0.224 0.064-0.544 0-2.368-1.056-2.656-1.792 0-0.224 0.448-0.736 0.832-0.736 0 0.48 0.064 0.832 0.224 1.056 0.256-0.352 0.32-0.928 0.448-1.152-0.128-0.16-0.128-0.352-0.544-0.352-0.576 0-1.088 0.224-1.504 0.64-0.352-0.896-0.512-1.568-0.512-2.016 0-2.048 1.248-3.904 3.136-4.32 0.032 0.128 0.032 0.32 0.032 0.512 0 0.352-0.064 0.96-0.064 1.344 0 0.992 1.056 1.952 1.984 1.952 1.12 0 2.112-1.568 2.112-2.976 0-0.896-2.88-3.392-3.68-3.392-0.32 0-0.992 0.128-2.048 0.384v0.096c0-0.032-0.064 2.528-0.832 2.528-0.256 0-0.832-0.384-1.632-1.76-0.352 0.16-0.544 0.48-0.544 0.992 0 0.096 0.064 0.832 0.064 1.152 0 0.416-0.672 0.608-0.832 0.608 0-0.48-0.128-0.896-0.544-1.248-0.16 0.224-0.64 1.152-1.44 2.752-0.8-0.416-1.216-0.992-1.216-1.696 0-2.112 1.792-4.288 3.936-4.48l0.32-0.288v-0.416c-0.32-0.352-0.672-0.544-1.088-0.544-0.704 0-1.408 0.256-2.080 0.736-1.568 1.152-2.432 1.76-2.528 1.792 0-0.096-0.256-0.224-0.256-0.608 0-0.16 0.128-0.448 0.352-0.8l0.512-0.768c-0.16-0.064-0.352-0.192-0.64-0.416v-0.736h0.864c0-0.128 0.128-0.32 0.384-0.576l-0.32-0.32c-0.256 0.256-2.080 0.864-2.752 0.864-0.224 0-0.704-0.352-0.928-0.352-0.096 0-0.16 0.032-0.224 0.064l1.216 0.96c0.608 0.48 0.896 0.928 0.896 1.344 0 0.288-0.16 0.608-0.512 0.96-0.128-0.16-0.256-0.384-0.384-0.704l-1.824-1.376c-0.416-0.32-0.832-0.48-1.312-0.48-0.544 0-1.024 0.128-1.472 0.352 0.992 1.376 1.824 2.048 2.496 2.048 0.128 0 0.256-0.032 0.416-0.064 0.736 1.888 1.12 2.944 1.12 3.168 0 0.544-0.32 1.12-0.96 1.696-0.576-0.416-1.152-1.216-1.696-2.336-0.288 0.288-0.576 0.416-0.896 0.416-0.128-0.64-0.416-1.632-0.896-2.944-0.16 0.256-0.448 1.824-0.704 2.304-1.056-0.288-1.568-0.928-1.568-1.92 0-0.288 0.064-0.512 0.16-0.704-0.064-0.064-0.384-0.096-0.96-0.096-0.16 0-0.864 0.096-2.112 0.288-1.024 0.16-2.88 1.952-2.88 2.88 0 1.344 1.408 2.752 2.432 2.752 0.672 0 1.952-0.96 1.952-1.696 0-0.48-0.128-1.088-0.352-1.824 0.192-0.192 0.448-0.288 0.736-0.288 0.704 0 2.432 1.952 2.56 2.624v0c0 0.128 0.512 1.408 0.512 1.92 0 0.416-0.256 0.352-0.288 0.448 0.096 0.224 0.128 0.448 0.128 0.704 0 1.792-2.592 3.84-4.384 3.84-0.352 0-0.992-0.416-1.28-0.416-0.352 0-0.8 0.192-1.152 0.192-0.704 0-1.568-0.224-2.56-0.704 0.416-0.608 0.64-1.12 0.64-1.504 0-0.448-0.256-1.056-0.768-1.824-0.512 0.384-0.768 0.768-0.768 1.12 0 0.192 0.064 0.416 0.224 0.672v0.768c-0.768-0.512-2.080-2.272-2.080-3.072 0-2.272 1.184-4.32 3.552-6.080 0.224-0.128 0.416-0.352 0.544-0.704 0.416-0.224 1.056-0.512 1.92-0.864 0.256-0.064 1.312-0.096 3.2-0.096 0.096 0 0.448-0.416 0.864-0.416 0.384 0 0.672 0.704 0.832 0.832 0.48-0.736 0.736-1.44 0.736-2.112 0-0.416-0.32-0.64-0.576-0.864-0.32 0-0.608 0.288-0.896 0.96 0.224 0.096 0.48 0.32 0.832 0.704-0.16 0-0.416-0.096-0.768-0.256l-0.992-0.448c-0.16-0.064-0.96-0.096-2.368-0.096-0.576 0-1.888 0.384-3.968 1.152-0.16 0.032-1.216 1.056-1.6 1.152 0-0.16 0.032-0.32 0.032-0.48 0-0.512-0.096-0.96-0.224-1.408-0.352 0-0.736 0.544-1.12 0.96 0.576 0.576 0.864 0.992 0.864 1.28 0 0.224-0.096 0.416-0.32 0.608l-0.576 0.544c-0.032-0.416-0.16-1.12-0.32-2.112-0.096 0.032-1.76 0.512-2.24 1.056-0.288 0-0.928-0.768-1.088-0.832-0.16 0.256-0.288 0.608-0.352 1.024-0.128 0.736-0.192 1.12-0.192 1.152 0.096 0.16 0.096 0.352 0.512 0.352s0.512-0.192 0.64-0.416c0.192 0.224 0.544 0.512 1.024 0.864 0.096-0.512 0.224-1.152 0.448-1.92l0.736 0.704c0.288 0.288 0.448 0.544 0.448 0.768 0 1.024-1.408 1.696-2.432 1.696-0.832 0-2.048-0.992-3.712-3.008-1.568-1.888-2.336-3.040-2.336-3.552 0-0.576 1.568-2.688 2.432-3.392 0.288 0.288 0.512 0.672 0.736 1.184-0.064 0.064-0.192 0.128-0.32 0.128-0.256 0-0.48-0.128-0.608-0.256l-0.576 0.8v0.704c0.608-0.128 1.152-0.864 1.504-0.864 0.416 0 0.608 0.224 0.704 0.224l0.48-1.632c0.032 0.128 0.512 0.8 0.512 1.088 0 0.448-0.8 2.016-1.376 2.016-0.096-0.096-0.224-0.128-0.384-0.128-0.256 0-0.512 0.16-0.768 0.448 0.032 0.032 0.384 0.096 0.992 0.192 0.064 0.032 0.192 0.384 0.384 1.024-0.032 0.032-0.096 0.096-0.096 0.128s0.128 0.032 0.32 0.032c0.384 0 1.12-0.416 1.472-0.416 0.288 0 0.448 0.64 0.736 0.64 0.352 0 1.152-0.288 2.4-0.896 0.256-0.128 0.672-0.608 1.248-1.44h0.768c0.352 0.704 0.672 1.056 0.992 1.056h0.96c0.416 0 1.024-0.608 1.28-1.12-0.288-0.096-0.864-0.16-1.728-0.16-0.352 0-0.512 0.224-0.512 0.64-0.16-0.608-0.224-1.44-0.224-2.624 0.256 1.088 3.968 1.76 4.128 1.76 0.384 0 0.192-0.416 0.544-0.416s0.48 0.224 0.832 0.224c0.992 0 1.76-0.128 2.272-0.384 0-0.384-0.48-1.088-0.992-1.088-0.352 0-1.216 0.192-1.568 0.192-0.192 0-2.528-0.864-2.944-0.864-0.032-0.288-0.16-0.704-0.384-1.248-0.064 0.096-0.096 0.352-0.096 0.832h-0.704c-0.64 0-0.96-0.608-0.96-1.824v-0.352c-0.192-0.096-0.352-0.16-0.544-0.16-0.224 0-0.448 0.096-0.672 0.224l-1.056-1.728c-0.608-0.992-0.928-1.792-0.928-2.4 0-0.544 0.48-1.44 1.408-2.656 0.512 0.992 1.184 1.824 1.984 2.432-0.192 0.288-0.32 0.576-0.32 0.896l0.096 1.184 0.352 0.384c0.256-0.256 0.32-1.024 0.352-1.152 0.192-0.384 1.28-2.24 2.816-2.24 1.472 0 2.72 1.12 3.008 2.752 0.48-0.224 0.704-0.672 0.704-1.376 0-1.824-2.4-1.76-3.328-2.72 0-0.128 0.16-0.544 0.16-0.928v-0.736c-0.16 0.16-0.416 0.256-0.768 0.256-0.416 0-0.48-0.224-0.608-0.448-0.128 0.256-0.192 0.608-0.192 1.024v0.256c-0.256-0.416-0.576-1.024-0.992-1.856 0.736-0.16 1.568-0.256 2.528-0.256 0.224 0 2.112 0.704 2.272 0.832h0.096c0.224 0 0.352 0.096 0.352 0.224 0 0.224-0.384 1.056-0.384 1.344l0.32 0.352c0.064-0.416 0.192-0.928 0.416-1.472 0.288 0.288 0.672 0.64 1.216 1.12-0.096-0.064-0.224-0.096-0.32-0.096-0.224 0.256-0.352 0.512-0.352 0.736 0.032 0.032 0.096 0.064 0.192 0.064 0.32 0 0.736-0.128 0.832-0.128 0.16 0.352 0.32 0.832 0.416 1.472l0.256 1.664c-0.128 0.064-0.64 0.608-1.568 1.664-0.736 0.8-1.472 1.248-2.208 1.312l0.096-1.408c0-1.344-0.352-2.176-1.344-2.24s-1.504-0.128-1.6-0.16c-0.8 1.6-1.216 2.496-1.216 2.656 0 0.608 2.432 3.328 3.104 3.456l2.304 0.48c0.256 0 0.896-0.416 0.896-1.248 0-0.288-0.128-0.704-0.384-1.216 0.416-0.48 0.736-0.736 0.96-0.736 0.48 0 0.864 0.32 1.152 0.928v0.736c-0.256 0.16-0.448 0.224-0.576 0.224v-0.64c-0.096 0-0.288-0.128-0.544-0.384-0.16 0.256-0.192 0.896-0.352 1.152 0.128 0.256 0.928 0.48 1.024 0.768 0.48-0.192 1.312-1.12 1.536-1.248 0-0.224-0.448-1.12-0.448-1.536 0-0.8 0.16-1.472 1.024-1.472 0.128 0.288 0.448 1.216 0.608 1.472 0.224-0.16 0.512-0.512 0.864-0.992l0.096-0.832c0.032-0.416 0.256-0.736 0.704-0.928l0.48 0.096c0.48 0.736 0.704 1.248 0.704 1.504 0 1.312-0.16 2.848-2.624 3.776-0.416 0.32-1.024 0.768-1.856 1.344 0 0.48 0.352 1.12 0.768 1.12h1.472c0.288 0 0.576-0.832 0.96-0.832 0.224 0 1.408 0.832 1.696 0.832 0.352 0 0.256-0.192 0.64-0.192 0.352 0 0.16 0.608 0.512 0.608 0.16 0 0.224 0 0.224-0.032s0-0.064-0.032-0.096c0.032-0.032 0.096-0.064 0.224-0.064 0.416 0 0.8 0.48 0.928 0.48h0.256c-0.864-1.12-1.28-1.824-1.28-2.176 0-0.512 0.096-0.864 0.288-1.056 0.192 0.064 0.512 0.32 0.928 0.736 0.928 0.992 1.184 1.248 2.4 1.536l1.344 0.256c0.16-0.096 0.352-0.096 0.352-0.512 0-0.448-0.32-0.832-0.992-1.184-2.528-1.248-2.848-1.728-2.848-3.488 0-0.512 0.864-2.080 1.408-2.208 0.736 0.672 1.088 1.664 1.472 2.528 0.16-0.128 0.512-0.704 0.64-0.864 0.384 0.8 0.576 1.536 0.576 2.208 0 0.064 0 0.16-0.032 0.288v0.256c0 0.416 0.16 0.768 0.512 1.088 0.16-0.224 0.256-0.544 0.32-0.928l0.224-0.928c0.16-0.192 0.384-0.288 0.608-0.288 0.544 0 1.536 0.736 1.536 1.408 0 0.224-0.096 0.416-0.256 0.608 0.448 0.224 0.864 0.32 1.28 0.32 0.224 0 2.048-0.416 2.208-0.416 1.024 0 2.016-2.176 2.016-3.296 0-1.248-1.216-2.208-2.528-2.208-0.896 0-1.728 0.736-1.728 1.504 0 0.352 0.16 0.64 0.448 0.896 0 0.864-0.256 1.376-0.256 1.376h-0.16c-0.576 0-0.992-0.16-1.248-0.48-1.76-2.272-1.984-2.336-1.984-3.104 0-1.952 0.128-3.424 0.736-4.384 0.48-0.768 2.144-1.952 2.688-1.952 0.576 0 0.416 0.416 0.544 0.416 0.352-0.544 1.088-0.832 2.208-0.832 0.032 0 0.64 0.192 1.856 0.576 2.72 0.864 4.096 2.56 4.096 5.024 0 3.232-1.856 6.144-4.96 7.264-0.8 0.288-4.704 0.928-5.216 1.024 0.416 0.544 1.504 1.152 2.112 1.152 0.352 0 1.44-0.224 1.824-0.224 1.12 0 4.96-2.272 5.952-3.552 0.704-0.896 1.696-2.592 3.040-2.592 0.288 0 0.928 0.64 1.28 0.64 0.128 0 0.192-0.032 0.224-0.064-0.032-0.032-0.032-0.064-0.032-0.096 0.032-0.032 0.096-0.064 0.224-0.064 0.288 0 0.992 1.024 2.144 3.040 0.096 0.096 0.288 0.352 0.672 0.608 1.216 0.864 1.632 1.984 1.632 2.496z"></path>
</svg>
