<!-- Generated by IcoMoon.io -->
<svg version="1.1" xmlns="http://www.w3.org/2000/svg" width="37" height="32" viewBox="0 0 37 32">
<title>l</title>
<path d="M18.624 1.952c-0.128-0.128-0.32-0.128-0.512-0.128-0.128 0-0.224 0.032-0.288 0.096 0 0.224 0.128 0.48 0.416 0.736 0.096-0.128 0.256-0.608 0.384-0.704zM31.424 15.392c0-0.416-0.096-0.704-0.288-0.864 0 0.032-0.352 0.48-0.352 0.768 0 0.16 0.096 0.256 0.256 0.256s0.288-0.064 0.384-0.16zM4.704 16.352c-0.224 0.224-0.416 0.352-0.544 0.352-0.384 0-0.832-0.8-0.832-1.12 0-0.384 0.128-0.576 0.384-0.608 0.48 0 0.8 0.256 0.992 0.832v0.544zM25.952 21.856c0.352 0.416 0.608 0.64 0.704 0.704h-0.192c-0.544 0-1.152 0.096-1.888 0.224-0.128-0.032-0.192-0.16-0.192-0.384 0-0.352 0.48-1.024 0.864-1.024 0.16 0 0.384 0.16 0.704 0.48zM13.888 21.28l0.96 0.48-0.512 0.384c-0.288 0.224-0.512 0.32-0.64 0.32-0.864 0-1.312-0.16-1.312-0.48 0-0.512 0.128-0.768 0.384-0.768 0.064 0.032 0.192 0.064 0.32 0.064 0.192 0 0.416-0.032 0.576-0.032 0.096 0 0.192 0 0.224 0.032zM26.272 14.592l-0.736-1.472c-0.352-0.608-0.704-0.896-1.12-0.928l-0.192 0.864c0.64 0.992 1.248 1.632 1.856 1.92 0-0.096 0.064-0.224 0.192-0.384zM20.48 21.792c-0.704 0.352-1.12 0.512-1.248 0.512-0.16 0-0.704-0.288-1.568-0.864 0.288-0.096 0.992-0.832 1.248-0.832 0.384 0 1.216 0.672 1.568 1.184zM17.376 20.96c-0.256 0.384-0.48 0.928-0.672 1.632h-1.024l-0.032-0.576c0-0.032 0.256-0.16 0.768-0.416-0.544-0.224-1.216-0.064-1.216-0.8 0.48-0.224 0.8-0.352 0.992-0.352 0.096 0 0.48 0.16 1.184 0.512zM5.344 14.144c-0.096 0.16-0.128 0.352-0.48 0.352-0.544 0-1.248-0.672-1.248-1.088 0-0.736 0.288-1.088 0.864-1.088s0.864 0.224 0.864 0.672v1.152zM12.224 13.056l-0.224-0.736c-0.64 0.384-1.952 1.664-1.952 1.984v0.8c0.096 0 0.224 0.064 0.352 0.192 0.992-0.128 1.312-1.408 1.824-2.24zM19.872 7.712c0-0.704-1.248-1.632-1.792-1.632-0.992 0-1.952 1.376-1.952 2.112 0 0.768 0.928 1.312 1.856 1.312 1.248 0 1.888-0.608 1.888-1.792zM21.088 10.624l-1.024 2.272v0.672c0 0.544-0.128 1.248-1.152 1.248-0.064 0-1.6-0.608-1.696-0.608-0.256 0-0.384 0.128-0.64 0.128-0.608 0-0.896-1.6-0.896-2.432v-1.152c0.512 0.512 1.216 1.824 1.312 1.888 0.544-0.384 0.448-1.12 0.736-1.408 0.832 0.352 0.8 0.384 0.864 2.048 0.032 0 0.448 0.16 0.672 0.16 0.416-1.248 0.8-2.176 1.12-2.816h0.704zM14.080 10.944c-1.12 1.056-1.824 3.712-1.792 3.68-0.256 0.48-1.984 1.28-2.4 1.28-0.48 0-0.96-0.704-0.96-1.152 0-1.408 3.136-3.808 4.48-3.808h0.672zM15.008 10.4l-0.544 0.352c-0.992-0.96-1.088-1.088-1.44-1.088h-0.64c-2.784 0-5.6 3.104-5.6 6.080 0 0.384 0.032 0.736 0.096 1.088-0.352 0-0.96-0.32-1.056-0.32v-3.2c1.184-1.248 1.728-2.144 1.728-2.688 1.056 0 1.312-0.16 1.408-0.832-0.096 0-0.192-0.128-0.48-0.128-0.768 0-2.4 2.432-2.4 2.944-0.8-0.32-1.216-0.704-1.216-1.152 0-0.48 0.736-1.472 1.12-1.472 0.288 0 0.608 0.16 0.64 0.16 0.032-0.032 0.128-0.288 0.288-0.736 0.352-0.896 1.792-0.992 4.224-0.992 0.96 0 3.072 0.544 3.872 1.472v0.512zM25.952 26.176v-0.672c0-0.832-3.648-1.152-3.744-1.152h-2.336c-1.28 0-2.272 0.032-2.912 0.032h-0.448c-1.184 0.064-4.832 0.608-4.896 0.608 0 0.352-0.16 1.056-0.16 1.184 2.496 0.736 4.096 1.12 4.832 1.12 0.288 0 0.672-0.288 0.832-0.288-0.032 0 3.168 0.288 3.2 0.288 1.088 0 2.368-0.128 3.84-0.352 0.352-0.064 1.664-0.736 1.792-0.768zM21.728 3.84c-0.512 0.352-1.056 0.512-1.632 0.512-0.256 0-0.288-0.16-0.544-0.16-0.288 0-0.576 0.288-0.928 0.864 0.544 0.256 1.312 0.704 2.24 1.344 0.16 0.16 0.256 0.576 0.256 1.248 0 0.8-1.504 2.656-2.272 2.656h-0.928c-0.224 0-0.576-0.128-1.056-0.352-1.12-0.48-1.696-0.832-1.696-2.24 0-0.544 0.16-1.12 0.512-1.696 0.8-0.256 1.856-0.384 1.856-1.184 0-0.416-0.192-0.64-0.576-0.64-0.256 0-0.96 0.16-1.248 0.16s-0.672-0.608-0.672-0.992c0-0.096 0.128-0.384 0.352-0.864 0.288 0.096 0.544 0.128 0.768 0.128 0.192 0 0.384-0.032 0.544-0.128 0 0.224 0.096 0.416 0.288 0.608h0.416c0.096-0.064 0.128-0.192 0.128-0.384 0-0.576-0.192-0.864-0.576-0.864-0.288 0-0.48 0.128-0.512 0.128 0.096-0.416 0.16-0.896 0.16-1.504 0.448-0.224 0.8-0.32 1.024-0.32h1.728c0.128 0.096 0.352 0.16 0.352 0.448 0 0.512-0.896 1.824-1.088 1.984 0.032 0.032 0.032 0.096 0.032 0.128v0.032c-0.032 0.096-0.032 0.128-0.032 0.16 0.032 0 0.864 0.192 0.992 0.192 0.416 0 0.96-0.192 1.568-0.608 0.16 0.096 0.288 0.16 0.384 0.16v0.288c0 0.352 0.032 0.64 0.16 0.896zM21.92 20.544l0.384-0.544c-0.672-0.352-1.216-0.512-1.728-0.512-1.088 0-10.848 1.088-11.104 1.152-0.608 0.16-1.536 0.768-1.792 1.312 0.576 0.224 1.408 0.576 2.464 1.088 0 0.096-0.032 0.224-0.032 0.352 0 0.352 0.032 0.768 0.096 1.248h0.544c0.96-0.64 2.432-1.024 4.416-1.152l6.72-0.096v-0.864c0-0.128 0-0.32 0.032-0.576v-1.408zM33.76 17.824c0 1.12-0.128 1.824-0.384 2.112-1.44 1.536-3.072 2.88-4.896 4.064l-0.096 1.408c-0.512 0.448-2.208 2.368-4.064 2.368h-2.496c-0.672 0 0.256 0.48-2.336 0.48-0.032 0-1.952-0.128-5.76-0.352-0.16-0.032-0.8-0.448-1.056-0.448-0.16 0-0.608 0.16-1.344 0.16-0.096-0.096-0.192-0.672-0.32-0.768-0.128 0-0.416 0.288-0.416 0.448-0.64-0.64-1.44-1.664-2.432-3.040 0.096-0.16 0.256-0.384 0.48-0.64v-0.416c-0.032-0.032-0.544-0.064-1.504-0.16-0.096-0.128-0.832-0.736-2.272-1.856-1.056-0.8-1.6-1.536-1.6-2.208 0-0.16 0.032-0.32 0.096-0.48h-0.032c-0.128 0-0.16-0.128-0.16-0.352v-0.8c0.48-0.224 0.8-0.352 0.992-0.352 0.128 0 0.256 0.096 0.416 0.288l0.416 0.48 0.768 0.192c0.416 0.096 0.704 0.384 0.832 0.672v0.672c-0.128 0.128-0.416 0.192-0.864 0.192h-0.416c-0.032-0.032-0.064-0.032-0.064-0.032-0.064 0-0.064 0.096-0.064 0.288 0 0.384 0.768 0.992 1.184 0.992 1.824 0 3.68-0.992 3.68-2.4 0-0.192-0.672-0.608-1.248-1.28 2.016-0.352 3.008-0.512 3.040-0.512l0.384 0.384c-0.256 0.352-0.896 0.672-1.408 0.96v0.288l1.28 0.864c0.352 0.256 0.8 0.32 1.28 0.32 0.096 0 0.512-0.128 1.312-0.352 1.728-0.448 2.976-0.384 2.976-1.6 0-0.224-0.192-0.608-0.544-1.184-0.288 0.096-0.544 0.352-0.736 0.768h-0.704c0-0.096-0.16-0.672-0.16-0.896 1.408-0.544 2.272-0.8 2.56-0.8 0.672 0 1.536 0.256 2.56 0.8v0.576h-0.672c-0.16 0-0.352-0.064-0.576-0.224l-0.544-0.384c-0.256 0.256-0.704 0.32-0.704 1.024 0 0.992 1.28 1.952 1.952 1.952h2.432c1.248 0 1.856-0.288 1.856-0.896v-0.864c-0.256-0.064-0.576-0.16-0.928-0.32 0-0.736 1.728-0.736 1.792-0.736 0.256 0 0.128 0.48 0.384 0.48s0.224-0.16 0.48-0.16c0.32 0 1.44 0.736 1.856 1.152-0.096 0.192-0.288 0.288-0.576 0.288-0.32 0-0.928-0.256-1.312-0.256-0.416 0-0.608 0.256-0.608 0.768 0 0.288 0.288 0.672 0.896 1.088l1.12 0.736v0.736h-0.544c-0.832-0.928-1.28-1.088-3.808-1.088-0.288 0-0.448 0.128-0.448 0.384 0 0.288 0.288 0.512 0.544 0.768 0 0.288 0 0.544-0.032 0.832 0.032 0.352 0.256 0.576 0.704 0.704 0 0.032-0.16 0.224-0.448 0.512 0.224 0.416 0.608 0.64 1.216 0.736l1.376 0.192 1.088 0.544c0.288-0.096 0.448-0.32 0.448-0.736 0-0.16-0.064-0.544-0.192-1.088h0.064c0.416 0 1.824-0.64 1.824-1.152 0-0.096-0.064-0.224-0.16-0.32 0.352-0.128 0.928-0.352 1.728-0.48 0.576-0.096 0.672-1.536 0.736-1.6-0.16-0.16-0.32-0.224-0.48-0.224-0.256 0-0.608 0.128-0.896 0.128-0.128 0-0.192-0.128-0.192-0.384 0-0.352 0.704-1.152 1.088-1.152 0.256 0 0.128 0.16 0.384 0.16 0.352 0 0.416-0.256 0.544-0.416 0-0.288-0.16-0.576-0.544-0.992l-0.512 0.32c-0.288 0.192-0.48 0.288-0.576 0.288-0.288-0.064-0.48-0.416-0.512-1.056l-0.096-1.344c-0.736-2.88-2.88-5.088-5.088-5.088-0.416 0-1.056 0.256-1.888 0.736v0.032c0 0.032 0.032 0.096 0.128 0.16 2.432 0.576 4.448 2.496 4.448 4.704 0 0.736-0.64 0.928-1.216 0.928-0.256 0-0.128-0.32-0.384-0.32s-0.064 0.16-0.32 0.16c-0.128 0-0.352-0.128-0.64-0.352l-0.704-0.608c0-1.504-1.376-4.032-2.848-4.224v-0.544c0.16-0.096 0.352-0.32 0.64-0.672 0.832-1.056 2.368-1.248 3.264-1.248 2.080 0 4.8 0.768 5.696 1.6-0.032 0.096-0.032 0.256-0.032 0.416 0 0.224 0.032 0.512 0.064 0.832 0.352 0.064 0.8 0.224 1.376 0.48-0.032 0.352-0.064 0.928-0.064 1.728 0.064 0.064 0.672 0.48 0.672 0.736 0 0.224-0.064 0.48-0.224 0.832 0.128 0.192 0.928 0.8 0.928 1.024 0 0.16-0.128 0.352-0.352 0.64-0.384 0.48-0.576 0.704-0.576 0.704 0.064 0.16 1.088 0.288 1.088 0.576z"></path>
</svg>
