<!-- Generated by IcoMoon.io -->
<svg version="1.1" xmlns="http://www.w3.org/2000/svg" width="38" height="32" viewBox="0 0 38 32">
<title>m</title>
<path d="M16.16 6.688l-0.448-0.16-0.384 0.832 0.416 0.192zM16.64 22.848v-0.544h-1.472l0.544 0.544h0.928zM31.584 14.784c0-0.608-0.416-0.896-1.216-0.896 0 0.96-0.032 1.504-0.128 1.6-0.512 0.672-1.504 1.088-2.112 2.080 0.256 0 0.512 0.416 0.96 0.416 1.024 0 2.496-2.080 2.496-3.2zM27.136 21.952c-1.44-0.576-4.64-1.44-5.248-1.44h-2.912c-0.096 0.224-0.16 0.416-0.16 0.608s0.032 0.352 0.128 0.512c0.352 0.032 3.008 0.768 3.296 0.768 0.544 0 1.152-0.64 1.568-0.64 0.544 0 0.608 0.64 1.12 0.64 0.448 0 2.016-0.448 2.208-0.448zM29.312 14.432l-0.384-4.064-0.544 1.12c-0.256 0.544-0.384 0.928-0.512 1.12-0.16 0-0.256-0.352-0.896-0.352-0.512 0-0.736 0.64-1.248 0.64-0.256 0-0.384-0.096-0.384-0.288v-0.032c0-0.192-0.128-0.288-0.416-0.288h-2.496l0.384 1.856c0.192-0.096 0.384-0.128 0.576-0.128 0.288 0 0.704 0.128 1.248 0.384-0.032 0.352-0.032 0.64-0.032 0.896 0 0.448 0.032 0.704 0.096 0.768h1.088c0.16-0.16 0.8-1.6 1.792-2.208 0.352 0.384 0.928 0.576 1.728 0.576zM28.096 18.752c-0.224-0.224-0.352-0.704-0.352-1.376-4.576-0.448-7.936-0.672-10.112-0.672-0.672 0-2.176-0.928-2.528-1.664 0.416-0.032 0.8-0.064 1.216-0.064 1.216 0 2.464 0.16 3.744 0.48l0.416-0.736v-1.056c0-0.416-0.384-0.992-1.12-1.728-1.184 1.92-1.312 2.048-1.824 2.24-0.224-0.544-0.608-2.016-1.216-4.416-0.416 0-1.536 1.152-1.696 1.248-0.672-0.288-1.248-0.672-1.728-1.12 0.608-0.928 0.896-1.888 0.896-2.944h-1.184v3.68c1.12 0.704 2.336 1.344 2.816 2.112-0.224 0.224-0.576 0.896-0.8 1.12l-0.448-0.608c-0.224-0.224-0.48-0.352-0.8-0.352-0.544 0-0.448 0.32-0.96 0.32-0.64 0-0.672-0.288-0.8-0.544 0-0.736 0.224-1.856 0.224-1.984-0.64 0.544-1.472 1.184-1.472 1.728 0 0.416 0.608 1.088 1.856 2.016 1.408 1.056 2.144 1.632 2.24 1.792-0.544 0.512-1.248 1.088-1.248 1.344l0.992 1.056c0.384 0.448 0.736 0.64 1.184 0.608 0.032 0.032 10.752 0.608 10.816 0.64 0.544 0 1.184-0.384 1.888-1.12zM34.752 14.176c0 0.832-0.448 1.856-1.376 3.072-2.176 2.88-2.208 2.912-2.208 3.52 0 0.256 0.416 2.016 0.416 2.528 0 0.608-0.224 1.12-0.64 1.536v1.152c1.056 0.416 1.952 0.512 2.496 1.6v1.728c-0.352-0.416-0.864-0.64-1.472-0.64-0.352 0-0.896 0.096-1.664 0.224l-2.464 0.448c0-0.128-0.384-0.32-0.384-0.928 0-0.288 1.6-3.072 1.6-3.36v-1.792c0.032-0.032 0.064-0.064 0.064-0.096 0-0.096-0.192-0.128-0.544-0.128-0.288 0.032-0.608 0.16-0.896 0.448l-0.704 0.704c-1.248 0.864-4.544 2.016-5.536 2.016-1.76 0-3.36-0.288-4.8-0.832-1.024-0.384-4-2.336-4.864-2.336-0.576 0-1.056 0.224-1.056 1.12 0 0.352 0.032 0.832 0.032 1.44 0 0.864-0.16 1.472-0.48 1.856-0.928 0-1.664-0.288-2.144-0.288-0.288 0-2.816 1.248-3.168 1.248-0.512 0-1.152-0.384-1.888-1.12 0.512-0.416 0.768-0.864 0.768-1.344 0 0-0.128-0.544-0.416-1.6 0.384 0 1.376-0.352 1.856-0.352 0.352 0 0.64 0.128 0.928 0.352l0.576 0.608c0.288 0 0.704-0.48 0.8-0.832 0-0.544 0.864-4.352 0.864-4.416 0-0.544-1.216-2.080-3.68-4.672-0.096-0.192-0.128-0.704-0.128-1.504 0-1.248 2.72-5.824 4.256-7.424 0.288-0.288 1.12-0.736 2.496-1.312 0.32-0.128 2.336 0.32 3.584-1.28-0.032-0.032-0.032-0.512-0.032-1.44 0-0.864 0.416-1.504 1.248-1.856 0.096 0 0.448 0.16 0.992 0.512 0.288 1.344 0.448 2.080 0.448 2.176 0 0.512-0.128 1.088-0.384 1.728h-1.888c-0.192 0.096-0.288 0.32-0.288 0.736 0.48 0.192 0.832 0.288 1.088 0.288 0.416 0 0.8-0.672 1.312-0.672 0.576 0 1.152 0.48 1.536 1.44 0.16 0.448 1.248 4.896 1.728 5.536h0.768c0.064-0.544 1.44-4.544 1.632-5.536 1.056-0.512 1.984-1.184 2.752-1.984-0.128-0.448-0.768-0.736-1.536-1.12v-1.184c0.128 0.032 0.288 0.064 0.416 0.064 0.864 0 1.728-0.672 1.824-1.312 0.704 0.192 2.688 1.92 2.752 1.952 0 0.32-0.416 0.864-1.248 1.664l3.072 2.176c1.632 1.152 2.496 2.272 2.816 3.168 0.512 1.632 0.768 3.104 0.768 4.32z"></path>
</svg>
