<!-- Generated by IcoMoon.io -->
<svg version="1.1" xmlns="http://www.w3.org/2000/svg" width="26" height="32" viewBox="0 0 26 32">
<title>n</title>
<path d="M14.016 25.152l-0.192-0.48-0.224 0.096 0.192 0.384h0.224zM13.536 5.824l-0.224-0.096-0.224 0.416 0.736 0.096zM12.832 6.336l-0.768-0.256c-0.032 0.224-0.128 0.448-0.224 0.704 0.096 0.192 0.224 0.288 0.32 0.288 0.224 0 0.64-0.736 0.672-0.736zM11.2 9.664c-0.032-0.8-0.096-1.6-0.384-2.4-0.512-1.44-0.864-1.856-3.712-1.856-0.768 0-1.152 0.832-1.376 0.832-0.288 0-0.448-0.16-0.544-0.16-0.064 0.448-0.832 2.368-0.832 2.432 0 0.16 0.192 0.544 0.544 1.12l0.864 1.44c-0.096 0.256-0.128 0.448-0.128 0.576s0.032 0.224 0.096 0.288c0.224-0.416 0.576-0.64 0.992-0.64 0.48 0 1.312 0.48 1.952 0.48 1.152 0 2.528-1.024 2.528-2.112zM20.672 9.664c0-0.128-0.352-0.416-0.352-1.024 0-0.192 0.032-0.416 0.064-0.672 0-0.416-2.016-1.888-2.976-1.888-0.288 0-0.544 0.16-0.832 0.16-0.256 0-0.384-0.32-0.64-0.32-0.32 0-1.152 0.608-2.496 1.856v0.064c0 0.192-0.16 0.608-0.448 1.28 0.32 0.416 0.768 1.12 1.344 2.080 0.096 0 2.304 1.408 2.656 1.408 1.024 0 1.728-0.256 2.944-1.216 0.032-0.224 0.736-1.568 0.736-1.728zM23.264 9.76c0 0.608-0.704 3.456-1.216 4.128-0.416 0.576-2.56 1.472-2.816 1.632 0.032 0.16 0.064 0.352 0.064 0.64l-1.408 1.472c-0.896 0.928-1.312 1.504-1.312 1.76 0 0.192 0.608 0.608 1.792 1.248 0 0.352-0.192 0.704-0.608 1.088 0-0.064 0.032-0.128 0.032-0.192 0-0.128-0.064-0.704-0.448-0.704-0.032 0-0.096 0.096-0.096 0.32s0.096 0.768 0.8 0.768v0.576c0 0.224-0.064 0.608-0.224 1.184-0.32 1.216 0.064 1.28-1.856 1.952 0.096-0.64 0.128-1.856 0.128-3.616l-0.256-0.256c-1.056 0.672-0.96 2.208-1.088 3.552-0.128 0-0.704 0.16-1.696 0.512l-0.352-0.384 0.128-2.24c0-0.64-0.128-1.248-0.32-1.792h0.032c0.128 0 0.384 0.16 0.736 0.512h0.416c0.032-0.096 0.448-0.416 0.448-0.736 0-0.096-0.256-0.416-0.768-0.896-0.192 0-0.384 0.224-0.608 0.64-0.064-0.096-0.192-0.288-0.384-0.512h-0.864c0.224 0.16 0.352 0.608 0.352 1.312 0 0.48-0.096 1.184-0.192 2.112-0.192 1.728 0.032 1.728-0.736 1.728-1.152 0-1.312-0.064-1.312-0.288 0-0.032 0.224-1.44 0.224-2.208 0-0.704-0.288-1.152-0.832-1.344l-0.32 1.312c-0.256 0.672-0.64 0.992-1.184 0.992-0.448 0-0.96-0.8-1.536-2.368 0-0.48 0.16-0.736 0.48-0.736 0.256 0 0.064 0.16 0.32 0.16 0.192 0 1.472-0.96 1.632-0.96 0.288 0 0.224 0.16 0.512 0.16 0.224 0 0.512-0.224 0.832-0.64l0.512-0.832c0.16 0.064 0.48 0.064 0.96 0.064s1.088 0 1.888-0.064c0.16 0.16 0.224 0.32 0.224 0.48s-0.192 0.512-0.192 0.544c0.064 0.064 0.16 0.096 0.32 0.096 0.352 0 0.544-0.224 0.544-0.704 0-0.128-0.032-0.256-0.032-0.384 1.12-0.288 1.408-0.64 1.504-1.504 0.128 0.128 0.256 0.544 0.384 0.64 0 0-0.032 0.032 0 0.032 0.096 0 2.176-1.312 2.176-1.568 0-0.352-0.224-0.672-0.704-0.896-0.704 0.512-1.184 1.056-1.472 1.632-1.408-1.728-1.856-2.88-1.856-4.48 0-0.32 0.032-0.64 0.064-0.992-0.096-0.128-0.256-0.224-0.544-0.32-0.032-0.48-0.192-0.96-0.48-1.408-1.152 0.608-1.696 3.040-2.24 5.184-0.096 0.192-1.568 1.344-1.568 2.080 0 0.416 0.256 0.608 0.8 0.608l-0.704 1.76c-0.384-0.16-1.568-1.376-1.888-1.504 0.032-0.16 0.064-0.288 0.064-0.448 0-0.864-0.192-1.184-2.464-3.776-0.672-0.768-1.824-4.544-1.856-4.544v0c0-0.48 1.504-3.68 1.632-3.744l0.416 0.32c0.096-0.128 0.288-0.128 0.416-0.256l-0.32-0.288v-0.736c0.672-0.352 1.312-0.512 1.984-0.512 0.032-0.032 0.128-0.928 0.864-1.312 0 0 0.32 0.32 0.992 0.96l0.48-0.384c0.224-0.16 0.384-0.256 0.544-0.256 0.48 0 0.768 0.224 0.928 0.672 0.736-0.384 0.224-1.376 1.664-1.376 0.224 0 0.416 0.032 0.64 0.096 0 0-0.16 0.256-0.448 0.832 0.064 0.064 0.256 0.096 0.576 0.096 0.864 0 0.8-0.032 0.864-1.12 0.16 0.128 0.192 0.544 0.32 0.64 0.256 0 0.384-0.416 0.384-0.64h0.864c1.984 0 1.952 0.256 5.376 2.848 1.248 0.96 1.888 2.464 1.888 4.576z"></path>
</svg>
