<!-- Generated by IcoMoon.io -->
<svg version="1.1" xmlns="http://www.w3.org/2000/svg" width="36" height="32" viewBox="0 0 36 32">
<title>numbersign</title>
<path d="M13.088 10.976v-0.608l-0.192-0.128-0.672 0.48c-0.192 0.128-0.288 0.32-0.288 0.544 0 0.128 0.064 0.256 0.192 0.384 0.352-0.192 0.672-0.416 0.96-0.672zM18.752 16.96c0-0.032-0.64-2.144-0.64-2.176 0-0.352 0.096-0.8 0.256-1.312-0.288-0.032-0.672-0.128-1.12-0.288-0.16 0.288-0.224 0.576-0.224 0.832 0 0.096 0.16 0.448 0.16 0.64 0 0.32-0.416 0.832-0.704 1.152 0.128 0.64 0.16 1.056 0.16 1.28v0.128c-0.032 0.192-0.576 1.568-0.576 1.696 0 0.384 0.288 0.576 0.832 0.576 0.352 0 0.864-0.192 1.536-0.544-0.032-0.192-0.064-0.448-0.064-0.704 0-0.704 0.384-1.088 0.384-1.28zM19.264 8.096c0-0.224-0.704-0.768-0.736-0.928-0.128-0.576-0.32-1.952-1.824-1.952-0.352 0-0.544 0.064-0.64 0.16 0 0.032 0.064 1.664-0.832 2.144-0.224-0.672-0.352-1.024-0.352-1.088 0-0.224 0.16-0.48 0.448-0.704l0.576-0.48c-0.16 0-0.672-0.288-0.832-0.288-0.448 0.64-2.112-0.032-2.112 1.408 0 0.256 0.32 0.576 0.352 0.704 0.224 1.92 0.128 1.92 0.608 2.24 0.288-0.064 0.704-0.192 1.216-0.416 0.48-0.384 0.736-1.28 1.088-1.504 0.032 0.224 0.768 1.152 0.768 1.44 0 0.224-0.128 0.416-0.416 0.576 1.824 0 0.512 1.344 1.472 1.344 0.256 0 0.512-0.288 0.544-0.288 0-0.224-0.16-0.416-0.48-0.576 0.064-0.224 1.152-0.32 1.152-1.792zM32.64 10.752c0 1.056-0.288 1.728-0.832 1.952l-0.352 0.288c0.096 0.16 0.288 0.288 0.544 0.384l0.608 0.352c0 1.856 0.128 3.296-1.024 3.296-0.224 0-1.056-0.512-1.28-0.512-1.12 0-0.16 2.976-1.856 2.976-0.48 0-0.8-0.192-0.96-0.608v0c0-0.032-0.224-1.6-0.512-1.6s-1.216 1.088-1.44 1.664c-0.256 0-0.864-0.288-0.96-0.544-0.032-0.064-0.064-0.672-0.064-1.792 0-0.832-0.224-1.248-0.544-1.248-0.544 0-0.704 1.056-0.768 1.152-0.672-0.672-1.024-1.248-1.024-1.728 0-0.096 0-0.16 0.032-0.256l-0.096-0.832c-0.16 0.128-0.384 0.288-0.736 0.512l-0.32-0.192c0.16-0.288 0.256-0.576 0.256-0.896 0-0.576-0.256-0.96-0.768-1.184 0.096-0.032 0.384-0.288 0.64-0.288 0.48 0 1.44 0.224 2.912 0.672 0.16 0.256 0.64 0.704 1.312 0.736 0 0.032 0.032 0.064 0.032 0.096 0 0.224-0.128 0.512-0.128 0.576 0.096 0.16 2.272 1.12 2.624 1.12 0.896 0 1.984-1.6 1.984-2.368 0-0.544-0.128-1.184-0.416-1.92-0.064-0.16-0.864-0.448-0.96-0.512l-0.96-0.64c-0.704-0.384-2.24-0.448-5.856-0.736 0-0.064-0.064-0.16-0.16-0.288 0.16-0.384 0.512-0.864 1.152-1.408l1.76-1.504c0.16 0.192 0.32 0.288 0.416 0.288l-0.288 0.672c-0.128 0.288-0.192 0.512-0.192 0.64 0 0.384 0.16 0.576 0.512 0.576 0.224 0 0.352-0.256 0.576-0.256s0.224 0.128 0.448 0.128c0.384 0 1.024-0.352 1.952-1.024h0.48c0.064 0.672 0.288 1.024 0.64 1.024 0.224 0 0.16-0.128 0.384-0.128 1.312 0 1.024 1.792 1.92 1.792 0.192 0 0.32-0.16 0.48-0.16 0.064 0 0.096 0.032 0.128 0.032 0.128-0.064 0.352-0.096 0.64-0.096 0 0.224 0.064 1.696 0.064 1.792zM20.544 16.896c0 1.184 0.064 2.4-1.728 3.712-1.184 0.896-1.824 0.928-2.464 0.928-0.192 0-0.064 0.064-2.176-0.448-1.184-0.288-1.824-0.448-1.92-0.448 0 0-2.336 0.384-2.304 0.384 0.064 0-3.072-0.384-3.040-0.384-0.16 0-0.64 0.128-0.896 0.128-0.8 0-2.816-0.96-2.816-2.24 0-0.608 0.736-1.12 1.152-1.12 0.16 0 5.248 2.336 5.408 2.336 2.112 0 2.816-2.24 2.816-2.656 0-0.096-0.64-0.992-0.64-1.152 0-0.224 0.16-0.416 0.16-0.544h0.704c0.224 0.48 0.32 0.992 0.32 1.504 0 0.608-0.256 1.888-0.288 2.496l0.224 0.224c1.472-0.608 2.208-1.44 2.208-2.464 0 0.032-0.192-0.832-0.192-1.28 0-0.128 0-0.224 0.032-0.32-0.032-0.096-0.256-0.256-0.672-0.48-0.128-0.608-0.192-1.376-0.704-1.376-0.448 0-0.704 0.224-0.704 0.576 0 0.16 0.032 0.416 0.064 0.8-0.288 0.096-0.608 0.16-0.928 0.16-0.576 0-2.368-0.512-2.912-0.512-1.12 0-2.272 1.12-2.624 1.28h-0.64c-0.224 0-0.192 0.128-0.416 0.128-1.152-0.096-1.792-0.32-1.984-0.544v-0.832c0.032-0.032 0.128-0.416 0.384-0.416 0.16 0 0.8 0.256 1.024 0.256-0.032 0 0.288-0.096 0.96-0.32l1.184-0.192c0.96-0.16 1.568-0.416 1.728-0.576-1.888-0.48-3.552-0.768-4.992-0.864 0-0.032-0.16-0.384-0.16-0.608 0-0.416 0.448-0.768 0.832-0.768-0.064 0 2.944 0.384 2.912 0.384 0.352 0 0.672-0.224 1.024-0.704l-0.32-0.32c-0.096 0.096-0.288 0.128-0.512 0.128-0.352 0-1.568-0.704-3.68-2.112 0.096-0.128 0.16-0.224 0.16-0.32h0.8c0.544 0 1.44 0.256 2.72 0.8 0.576 0.832 1.856 1.504 2.304 1.504 1.344 0 2.88-1.024 2.88-2.272 0-0.672-0.096-1.056-0.288-1.216-0.64-0.512-2.24-1.28-2.592-1.28 0 0-1.952 0.512-2.176 0.512s-0.736-0.256-0.992-0.256c-0.224 0-0.48 0.096-0.832 0.256l-0.256-0.256c-0.128 0.096-0.288 0.128-0.448 0.128-0.416 0-0.8-0.224-1.152-0.704 0.096-0.192 0.32-0.416 0.672-0.64 0.224-0.128 1.056-0.224 1.184-0.64 0.416-0.224 0.8-0.32 1.152-0.32 0.096 0 1.504 0.64 4.704 0.64 0.224 0 0.96-0.512 1.216-0.608 0.64-0.192 1.12-0.288 1.408-0.288 0.224 0 0.672 0.192 0.8 0.224l2.304 0.064c1.504 0.032 2.752 0.96 2.752 1.952v3.488c0 0.256-1.152 1.44-1.408 1.536 0.352 0.448 0.512 0.992 0.512 1.664 0 0.288-0.032 0.576-0.128 0.864 0.256 0.16 0.576 0.256 0.96 0.256h0.192c-0.128 0.352-0.192 0.736-0.192 1.088 0 0.608 0.32 1.696 0.32 2.080z"></path>
</svg>
