<!-- Generated by IcoMoon.io -->
<svg version="1.1" xmlns="http://www.w3.org/2000/svg" width="36" height="32" viewBox="0 0 36 32">
<title>o</title>
<path d="M29.088 29.344v0.032h-0.064c0.032 0 0.032-0.032 0.064-0.032zM4.48 19.68c0 0.128-0.032 0.192-0.064 0.224 0-0.064 0.032-0.128 0.064-0.224zM15.456 18.688l-0.256 0.224-0.288-0.352 0.192-0.224zM10.56 5.408l-0.64 0.256v-0.32l0.512-0.256zM17.888 16.512l-0.288 0.576-0.288-0.128 0.256-0.544zM13.248 16.288l-0.288 0.608-0.288-0.16 0.288-0.544zM24.064 22.24l-0.288 0.608-0.288-0.128 0.256-0.576zM8.64 17.632l-0.288 0.576-0.32-0.128 0.288-0.576zM25.792 4.48l-0.608-0.288-0.096 0.32 0.576 0.288zM9.728 20.8h-0.384v-0.608h0.384v0.608zM3.776 23.072l-0.288 0.864-0.32-0.128 0.288-0.736h0.32zM8.192 8.288h-0.32l-0.288 0.736 0.32 0.128zM21.856 19.904h-0.384v-1.696h0.384v1.696zM30.56 28.352c0 0.128-0.224 0.928-0.224 1.088-0.096-0.064-0.192-0.128-0.416-0.128-0.448 0-0.736 0.032-0.832 0.032 0.48-0.448 0.992-0.768 1.472-0.992zM10.752 20.096c-0.608-0.064-1.504-0.64-1.504-1.216 0.224 0 0.672 0.16 1.28 0.448 0 0.352 0.064 0.608 0.224 0.768zM27.968 26.016c-0.224 0.064-0.864 0.096-1.92 0.096l-0.48-0.576c0.128-0.032 0.256-0.032 0.384-0.032 0.64 0 1.856 0.48 2.016 0.512zM23.296 25.216h-0.8c0-0.032-0.32-0.352-0.928-0.96 0.192-0.16 0.448-0.32 0.736-0.48l0.768-0.288zM7.168 25.024c-0.032 0.032-3.008-1.056-3.2-2.176 0.16 0.096 0.32 0.224 0.448 0.416l0.288 0.448c0.128-0.16 0.32-0.224 0.544-0.224 0.224 0.032 0.512 0.064 0.928 0.256l0.992 0.448v0.832zM7.456 27.968c0 0.32-0.928 1.408-0.928 1.44h-0.832c0.096-0.384 0.672-1.888 0.672-2.144 0.256 0 0.608 0.224 1.088 0.704zM25.504 24.832c0 0.256-0.544 0.832-1.024 1.056v-0.128c0-0.352-0.224-0.672-0.672-1.024v-0.224c0-0.512 0.096-1.088 0.288-1.696 0.128 0.16 0.864 0.384 0.992 0.512 0 0.416-0.224 0.704-0.64 0.928 0 0 0.096 0.768 0.544 0.768 0.416 0 0.416-0.192 0.512-0.192zM32.128 28.512c-0.32 0-0.48 0.16-0.48 0.48-0.608-0.736-0.48-1.76-1.472-2.752 0.128-0.224 1.248-0.992 1.248-0.992 0 0.16-0.064 0.64-0.064 0.8 0 0.48 0.256 0.8 0.768 1.024v1.44zM32.384 18.72c-0.16 0.192-0.352 0.608-0.576 1.248-0.544 1.568-0.96 1.952-1.952 1.952-1.44 0-2.176-0.128-2.24-0.416-0.16 0.128-0.288 0.736-0.448 0.864-0.032-0.096-0.128-0.288-0.288-0.512 0.64-1.888 3.52-0.16 3.744-2.4-0.576-0.192-1.152-0.576-1.76-1.152 1.024-1.376 1.536-2.304 1.536-2.784s-0.288-0.864-0.832-1.12v-0.832c0.352 0.16 0.768 0.576 1.184 1.216l0.096 1.216c0.032 0.48 0.576 2.016 0.576 2.624 0.064-0.064 0.16-0.096 0.32-0.096 0.288 0 0.512 0.096 0.64 0.192zM14.72 8.352c0 0.16-0.032 0.448-0.128 0.832l-0.192 0.992c-0.96 0.928-1.728 1.376-2.304 1.376-0.832 0-1.984-1.344-2.208-2.176h1.056l0.512 1.088c0.224-0.224 0.32-0.48 0.32-0.736 0-0.192-0.064-0.416-0.192-0.672l-0.288-0.576c-0.224 0.16-0.448 0.256-0.672 0.256-0.192 0-0.352-0.032-0.512-0.128l0.736-0.896c0.288-0.352 0.544-0.576 0.8-0.576 1.056 0 0.896-0.032 1.408 0.672 0.096-0.128 0.16-0.256 0.16-0.416h0.8c0.384 0.32 0.704 0.544 0.704 0.96zM20.48 15.008c-0.16 0.192-0.256 0.352-0.256 0.512h-1.664c-0.288-0.224-0.576-0.672-0.896-1.312-0.32 0.096-1.792 1.76-2.048 1.76-1.152 0-1.312-0.448-1.312-0.864 0-0.384 0.736-1.248 1.472-1.536v0.288c0 0.48 0.064 0.8 0.192 1.024 0.544-0.256 1.184-1.024 1.184-1.632l-0.608-0.608c-0.096 0-0.8 0.384-1.152 0.384 0.384-0.32 0.544-0.256 1.184-1.856 0.064-0.096 0.448-0.32 1.184-0.704 0 0.864 2.688 4.192 2.72 4.544zM28.864 29.152c-0.032 0.192-0.224 0.288-0.576 0.288-0.416 0-0.096-0.448-0.544-0.448-0.16 0-0.224 0.032-0.224 0.064s0 0.064 0.032 0.096c-0.032 0.032-0.096 0.064-0.256 0.064-0.128 0-0.192-0.032-0.192-0.096 0-0.032 0.096-0.224 0.096-0.256 0 0.032-0.192-0.32-3.136-0.32l-0.416-0.416c-0.288 0.288-0.576 0.416-0.864 0.416-0.16 0-2.368-1.312-2.528-1.312-0.416 0-0.736 0.192-0.832 0.192-0.224-0.544-0.512-0.96-0.832-1.28-0.128 0.128-0.032 0.704-0.192 0.832h-1.44c0-0.032-0.16-0.224-0.448-0.512 2.144-1.568 1.92-1.344 4.352-1.408 0 0.608 0.096 0.96 0.288 1.088 0.768 0.64 2.816 1.536 3.392 1.536 2.432 0 3.872 0.48 4.32 1.472zM15.616 27.36c-0.32 0.064-0.768 0.192-1.376 0.384-2.144 0.96-4.288 1.696-6.432 2.208 0 0.032-0.224 0.576-0.704 0.576-0.352 0-0.512-0.416-0.864-0.416-0.384 0-0.416 0.64-0.768 0.64-1.472 0-2.208-0.768-2.208-2.304 0.064 0.032 0.704-1.344 0.704-2.208v-0.32c0.736 0.352 1.12 0.832 1.12 1.44 0 0.416-0.256 1.184-0.256 1.12 0 0.448 0.192 1.056 0.736 1.856 0.448-0.448 0.768-0.672 0.992-0.672 0.16 0 0.224 0.032 0.256 0.064-0.032 0.032-0.032 0.064-0.032 0.096s0.064 0.064 0.224 0.064 2.784-1.984 2.976-1.984c0.16 0 0.224 0.032 0.224 0.064s0 0.064-0.032 0.096c0.032 0.032 0.096 0.064 0.256 0.064-0.064 0 3.936-1.568 3.968-1.568 0.48 0 1.088 0.416 1.216 0.8zM25.536 8.928c0 0.608-0.8 2.208-1.44 2.208-0.224 0-1.952-0.448-2.208-0.448-1.28 0-2.080-1.024-2.080-2.336 0-1.024 2.048-1.408 3.52-1.408-0.032 0 2.208 0.832 2.208 1.984zM11.168 23.232c-0.096 0-0.32 0.256-0.736 0.256-0.128 0-3.52-1.568-3.52-1.568-0.352 0-1.184 0.224-1.568 0.224-1.344 0-2.016-0.608-2.016-1.856 0-0.32 0.192-1.248 0.608-2.816-0.416-0.16-0.896-0.928-0.896-1.408v-1.344c0.352-0.352 0.704-0.512 1.088-0.512 0.48 0 1.76 0.992 2.176 1.632v0.8c-0.32-0.288-0.768-0.672-1.376-1.12-0.256 0.288-0.672 0.576-1.248 0.8 0.512 0.512 1.536 1.376 3.104 2.624-0.352 0.384-0.672 0.576-0.896 0.576-0.064 0-0.384-0.16-0.992-0.448l-1.216 0.192v0.512c-0.032 0.032-0.032 0.064-0.032 0.064 0 0.064 0.128 0.096 0.384 0.096 0.224 0 0.352 0 0.384-0.032-0.096 0.288-0.256 0.512-0.512 0.64 0.256 0.48 0.576 0.736 0.992 0.736 0.16 0 0.224-0.032 0.224-0.096 0-0.032-0.096-0.224-0.096-0.256 0-0.096 0.832-0.16 2.4-0.16 1.024 0 1.504 0.256 2.752 0.608 0.48 0.544 0.832 1.184 0.992 1.856zM15.616 2.816c-1.28 0.416-2.784 1.12-4.512 2.112-0.064 0-0.128-0.064-0.224-0.224l-0.256-0.416c-1.92 0.096-0.608 2.272-2.016 3.68 0 0.192 0.192 0.512 0.224 0.608-0.352 1.088-0.512 1.952-0.512 2.624v2.4c0.352 0.16 0.96 0.48 1.76 0.96-0.32 0.064-0.48 0.384-0.48 0.992l1.056-0.448c0.544 0.352 0.832 0.864 0.832 1.568 0 0.096 0 0.192-0.032 0.256 0.224 0.192 0.608 0.352 1.152 0.48 0.16 0.288 0.416 0.416 0.704 0.416 0.096 0 0.16-0.032 0.256-0.064v0.864c-0.128-0.224-0.128-0.448-0.608-0.448-0.384 0-0.096 0.224-0.544 0.224-0.192 0-0.64-0.256-1.312-0.832-1.152-0.96-1.856-1.408-1.856-1.664 0-0.064 0-0.128 0.032-0.224-0.32-0.224-0.864-0.512-1.6-0.864 0.032-0.224 0.032-0.416 0.032-0.64 0-0.608-0.096-1.12-0.32-1.568-0.544-1.12-0.832-1.792-0.832-2.048 0-0.288 0.16-0.96 0.512-2.080 0.8-2.56 1.088-3.488 3.136-4.608l2.432-1.344c0.224 0.256 0.448 0.64 0.864 0.64 0.32 0 1.76-0.352 2.112-0.352zM28.416 16.48c-0.16 0.192-0.384 0.672-0.64 1.408-0.736 2.080-1.152 2.592-1.984 2.592-0.16 0-0.352-0.032-0.544-0.096v0.896c-0.032-0.16-0.096-0.384-0.256-0.672-1.568 1.024-3.68 1.856-6.368 2.496 0 0.032-0.736 0.608-1.12 0.608-0.16 0-0.256-0.032-0.256-0.064 0.032-0.032 0.032-0.064 0.032-0.096-0.032-0.032-0.096-0.064-0.224-0.064-0.224 0-0.672 0.16-1.344 0.48l-1.76 0.832c-0.16-0.128-0.32-0.736-0.448-0.896-0.192 0.096-0.832 1.28-1.856 1.28l0.512-0.608c0.544 0 0.8-0.096 0.8-0.288-0.224-0.032-0.512-0.192-0.864-0.544 0.096 0 0.448 0.192 0.864 0.192 0.288 0 0.352-0.096 0.352-0.288 0-0.224-0.064-0.352-0.064-0.384 0.16 0.16 0.448 0.224 0.928 0.224 0.288 0 1.28-0.672 1.408-0.768-0.768-0.256-1.6-0.64-2.56-1.12l-2.272-1.12c0.096 0 0.8-0.544 1.216-0.544 0.288 0 1.568 1.344 1.888 1.344 0.288 0 1.056-0.224 1.44-0.224s0.096 0.672 0.544 0.672c0.064 0 3.008-0.672 3.072-0.672 0.384 0 0.192 0.448 0.576 0.448 0.16 0 1.92-0.672 2.208-0.672 0.352 0 0.512 0.224 0.864 0.224 1.248 0 1.504-0.992 1.984-1.76 0.288 0.288 0.512 0.448 0.64 0.448 0.128-0.16 0.224-0.704 0.32-0.8 0.544-0.288 1.76-1.888 1.92-2.336h0.032c0.224 0 0.832-0.128 0.96-0.128zM28.64 9.472v0.896c0 0.672-0.128 0.736-1.312 2.048-0.096 0.416-0.384 0.992-0.8 1.76-0.384 0.384-0.928 1.024-1.6 1.952-0.096 0.192-0.64 2.752-0.832 2.752-0.096 0-0.768-1.792-1.408-1.888 1.12-1.088 3.232-3.008 4.32-5.792 0.288-0.736 0.48-3.168 0.768-3.904-0.832-0.32-4.288-3.040-4.224-3.040v0h-0.384l-0.64-0.64c-0.576 0-3.072-0.672-3.168-0.672-0.736 0-1.76 0.064-3.040 0.192 0-0.128-0.064-0.768-0.064-1.024 0-0.192 0.032-0.352 0.128-0.48l0.48 0.448c0.16 0 0.288-0.128 0.384-0.352 0.32-0.064 1.088-0.096 2.336-0.096 0.384 0 0.992 0.512 1.216 0.544 0.096 0.192 0.256 0.448 0.48 0.736 0.704 0.16 1.056 0.256 1.056 0.256 0.192 0 1.184-0.416 1.184-0.384s-0.16 0.32-0.16 0.64c0 0.096 0.032 0.128 0.096 0.192 0.384-0.256 0.672-0.384 0.896-0.384 0.032 0 0.064 0 0.064 0.032 0 0.064-0.064 0.16-0.192 0.32 0.576 0.096 1.44 0.384 2.56 0.832 0.032 0.16 0.224 0.48 0.608 0.96 0.992 1.216 1.248 2.368 1.248 4.096z"></path>
</svg>
