<!-- Generated by IcoMoon.io -->
<svg version="1.1" xmlns="http://www.w3.org/2000/svg" width="47" height="32" viewBox="0 0 47 32">
<title>one</title>
<path d="M26.112 6.144v-0.448h-0.736v0.448h0.736zM32.416 20.384v-0.48h-0.736v0.48h0.736zM23.36 12.448v-0.48h-1.248v0.48h1.248zM23.104 13.792v-0.48h-1.28v0.48h1.28zM26.656 9.408v-0.48l-1.28 0.32v0.48zM22.816 15.168v-0.48h-1.536v0.48h1.536zM26.656 13.792v-0.48h-1.536v0.48h1.536zM26.944 16.8v-0.48h-1.568v0.48h1.568zM26.944 15.168v-0.48h-1.568v0.48h1.568zM28.288 18.496v-0.48l-1.28-0.32-0.352 0.48zM22.816 16.544v-0.48h-1.824v0.48h1.824zM22.848 18.272c-0.48-0.48-0.896-0.736-1.216-0.736-0.288-0.032-1.536 0.416-1.984 0.416 1.28 0 2.336 0.096 3.2 0.32zM35.68 21.76v-0.48h-2.112v0.48h2.112zM28.8 19.936c0.896-0.032 1.6-0.064 2.176-0.064-1.088-0.064-3.488-0.48-3.872-0.48-0.352 0.096-0.64 0.32-0.864 0.736 0.224-0.224 0.256-0.128 2.56-0.192zM38.4 23.104v-0.448l-4-0.288v0.48zM33.248 21.536c-1.536-0.448-3.648-0.256-7.104-0.608 1.184 0.384 1.984 0.576 2.464 0.576 0.16 0 0.288 0 0.384-0.032 0.128 0.096-0.064 0.448 0.448 0.448 0.064 0 3.296-0.384 3.808-0.384zM33.824 22.88c-1.984-0.48-4.384-0.64-7.36-0.64 0 0.16 0.096 0.416 0.32 0.736 1.248-0.16 2.496-0.256 3.84-0.256 1.024 0 2.112 0.064 3.2 0.16zM23.136 19.616c-1.888-0.48-2.912-0.704-3.136-0.704-0.512 0-1.92 0.224-4.224 0.704 1.504 0 2.688 0.064 3.616 0.192 0.224 0.224 0.352 0.448 0.896 0.448 0.416 0 0.576-0.16 0.576-0.448 1.088-0.128 1.792-0.192 2.112-0.192h0.16zM22.048 20.704c-0.192-0.064-0.416-0.096-0.672-0.096-0.352 0-1.696 0.224-1.92 0.224-0.48 0-1.568-0.576-2.048-0.576-0.32 0-2.112 0.576-2.368 0.576h-0.736c-2.048 0-3.84 0.128-5.376 0.416 0.96 0.064 1.984 0.096 3.072 0.096 1.792 0 5.152-0.224 10.048-0.64zM21.504 22.016l-5.024 0.16c-0.416 0-2.528-0.544-2.784-0.544-0.928 0-2.432 0.224-4.512 0.704 1.248 0 5.856 0.16 7.136 0.16 2.176 0 3.904-0.16 5.184-0.48zM25.6 3.328c0-0.48-0.192-0.96-0.608-1.376h-0.928c-0.416 0.416-0.64 0.832-0.64 1.216 0 0.416 0.416 1.088 0.416 1.632 0 0.224-0.032 0.448-0.096 0.736-0.288 0-0.8 0.256-0.8 0.512 0.192-0.192 0.416-0.288 0.608-0.288 0.128 0 0.288 0.064 0.416 0.192-0.128 5.504-0.192 8.768-0.192 9.76s0.064 1.568 0.192 1.728c-0.16 0.544-0.16 2.592-0.384 3.2-0.096 0.384-0.704 0.992-0.704 1.408 0 0.544 0.352 0.736 0.608 0.96h1.216l0.608-0.64v-0.928c-0.736-0.736-1.088-1.344-1.088-1.856 0-0.224 0.448-2.848 0.448-3.008 0-6.368-0.16-1.536-0.16-7.936 0-1.76 0.096-2.88 0.352-4.064 0.032-0.288 0.736-0.832 0.736-1.248zM44.16 24.032h-40.96v-1.664c0-0.896 1.92-2.112 2.592-2.112 0.416 0 1.024 0.576 1.568 0.576 0.096-0.096 0.16-0.192 0.16-0.32s-0.096-0.256-0.224-0.416l4.832-0.832c2.144-0.48 4.288-1.344 6.432-2.592 0.576-0.32 1.152-1.216 1.76-2.592 0.096-0.224 0.384-1.408 0.8-3.552 0.224-2.528-0.032-5.056 2.048-6.016-0.032-0.096-1.12-1.216-1.12-1.76 0-1.312 1.312-2.176 3.136-2.176 0.864 0 2.080 1.024 2.080 2.048 0 0.384-0.384 0.928-1.12 1.664 0.768 1.376 1.088 2.848 1.088 4.48 0 0.192-0.032 0.448-0.032 0.768v0.928c0 1.792 0.384 3.552 1.184 5.248 0.512 1.088 1.664 1.952 3.392 2.624l4.128 1.216c3.072 0.896 4.832 1.536 5.248 1.664 1.952 0.768 2.944 1.792 3.008 2.816z"></path>
</svg>
