<!-- Generated by IcoMoon.io -->
<svg version="1.1" xmlns="http://www.w3.org/2000/svg" width="43" height="32" viewBox="0 0 43 32">
<title>p</title>
<path d="M33.984 5.344h-0.032v-0.032c0.032 0 0.032 0.032 0.032 0.032zM12.032 25.888l-0.16 0.16-0.256-0.224 0.16-0.192zM25.696 9.056l-0.192 0.16-0.256-0.256 0.192-0.16zM19.232 13.472l-0.256 0.128-0.16-0.288 0.288-0.128zM34.080 27.712l-0.48 0.224v-0.256l0.384-0.192zM21.312 14.368l-0.192-0.48-0.256 0.096 0.224 0.384h0.224zM25.856 12.672l-0.416 0.416-0.192-0.16 0.416-0.416zM29.728 14.88l-0.416 0.416-0.16-0.192 0.384-0.416zM18.944 14.592l-0.192 0.672-0.256-0.096 0.224-0.576h0.224zM18.368 19.296c-0.288 0.16-0.608 0.224-0.992 0.224l0.8 0.256zM25.792 6.112c0-0.096-0.064-0.224-0.192-0.448-0.096 0-0.256 0.064-0.448 0.224 0.16 0.16 0.352 0.224 0.64 0.224zM23.744 12.736c0.064 0 0.192 0 0.288-0.096l-0.512 0.576c0-0.128-0.192-0.704-0.192-0.832zM21.664 15.968l-0.224 0.16-0.416-0.608 0.256-0.16zM15.296 16.768c-0.128 0-0.48 0.384-0.608 0.384 0.096 0.096 0.256 0.192 0.448 0.288 0.096-0.096 0.224-0.352 0.224-0.576 0-0.064-0.032-0.096-0.064-0.096zM24.704 6.976v-0.8h-0.32v0.8h0.32zM30.304 12.224c0 0.224-0.096 0.448-0.32 0.608h-0.8c0.32-0.16 0.704-0.352 1.12-0.608zM26.208 17.6c0.352-0.224 0.64-0.384 0.864-0.576-0.224 0.096-0.576 0.096-1.056 0.096 0 0.096 0.064 0.256 0.192 0.48zM30.336 15.904c-0.096 0-0.736 0.128-0.992 0.128 0.032-0.064 0.288-0.32 0.768-0.8 0.16 0.16 0.224 0.384 0.224 0.672zM24.96 15.36h-0.992v-0.608h0.64c0 0.16 0.128 0.352 0.352 0.608zM27.328 18.912c-0.224-0.48-0.352-0.8-0.352-0.96-0.16 0-0.416 0.192-0.832 0.608 0.256 0 0.928 0.352 1.184 0.352zM23.104 12.64c-0.192 0.192-0.384 0.288-0.608 0.288-0.128 0-0.256-0.032-0.384-0.096 0.096-0.32 0.224-0.704 0.448-1.12 0 0.224 0.192 0.544 0.544 0.928zM16.832 20.288v-0.832l-1.472 1.312h0.64c0.192-0.32 0.416-0.512 0.64-0.512 0.064 0 0.128 0.032 0.192 0.032zM27.328 19.52c-0.384-0.384-0.64-0.576-0.768-0.576-0.288 0.128-0.544 0.768-0.576 0.8 0.256 0 0.64 0.128 1.12 0.384 0-0.128 0.224-0.512 0.224-0.608zM21.6 17.216c-0.128 0.128-0.48 0.256-0.576 0.384-0.416-0.288-1.216-1.504-1.44-1.632 0.384 0 0.64 0.128 0.896 0.48 0.704 0.928 1.12 0.224 1.12 0.768zM33.888 11.712c0.32 0 0.736 0.352 0.8 0.384-0.128 0.128-0.48 0.608-0.8 0.608-0.256 0-0.224-0.16-0.512-0.16-0.256 0-0.992 0.64-1.28 0.64h-0.736c1.568-0.992 2.4-1.472 2.528-1.472zM24.096 27.68h-0.608c0-0.32-0.096-0.48-0.288-0.48-0.352 0-0.352 0.16-0.384 0.16 0-0.096-0.192-0.48-0.192-0.832s0.256-0.448 0.48-0.576c-0.096-0.096-0.224-0.128-0.32-0.128 0.032-0.064 0.096-0.096 0.192-0.096 0.416 0 0.64 0.128 0.64 0.416 0 0.032-0.032 0.096-0.064 0.128 0.128 0.096 0.32 0.256 0.544 0.48v0.928zM32.352 15.52c-0.224 0.256-0.32 0.448-0.32 0.544 0 0-0.448-0.192-0.768-0.192-0.064 0-0.128 0-0.192 0.032 0-0.096 0.288-0.288 0.288-0.544-0.032-0.032-0.064-0.064-0.096-0.064-0.16 0-0.32 0.128-0.48 0.128-0.32 0-0.928-0.896-0.928-0.96 0.608 0 1.472 0.32 1.728 0.32s0.512-0.128 0.768-0.352v1.088zM15.552 25.696c0 0.928-1.088 0.96-1.088 1.792 0 0.064 0.032 0.128 0.032 0.192-0.608-0.416-1.12-0.64-1.568-0.64-0.352 0-0.48 0.256-0.64 0.384l-0.288-0.096c0-0.416 0.128-0.64 0.416-0.64s0.224 0.16 0.512 0.16c0.576 0 0.576-0.544 1.152-1.504 0.032 0 0.16 0.128 0.384 0.352 0.128 0 0.672-0.416 0.832-0.512 0.16 0.16 0.256 0.32 0.256 0.512zM36.928 19.488c-0.096 0-0.224 0.064-0.384 0.16 0-1.696-0.032-1.248-0.576-1.632 0.032-0.128 0.064-0.224 0.064-0.32 0-0.224-0.096-0.416-0.256-0.576l-0.288-0.192c-0.128 0.256-0.192 0.544-0.192 0.896-0.096 1.312 0 1.344-0.544 1.664v0.8c0.288-0.032 1.248-0.416 1.6-0.416 0.128 0 0.224 0.032 0.32 0.096 0.096-0.096 0.192-0.256 0.256-0.48zM32.704 6.56c-0.064-0.064-0.192-0.288-0.416-0.672-1.472-0.48-2.24-0.736-2.272-0.736-0.256 0-0.896 0.32-1.184 0.32-1.184 0-1.6-0.64-1.664-0.64 0 0.224-0.032 0.384-0.064 0.512-0.64 0.352-1.536 1.28-1.696 1.792 0.192-0.064 0.672-0.992 1.76-0.992 0.256 0 0.736 0.352 0.992 0.352 0.288 0 0.768-0.48 0.896-0.512l0.288 0.288c0 0.256-0.544 0.704-0.64 0.864 0.416-0.224 0.832-0.32 1.312-0.32 0.16 0 0.256 0.032 0.256 0.064l0.096 0.192-0.512 0.512c0.096 0.096 0.256 0.192 0.416 0.256 1.504-0.48 2.336-0.896 2.432-1.28zM28.48 9.376c-0.224 0-0.864 0.32-1.152 0.32-0.224 0-0.352-0.288-0.352-0.832-0.352 0-1.472-0.608-1.472-0.704s0.032-0.256 0.128-0.448h-0.64c0.032 0.224 0.16 0.512 0.32 0.864-0.416 0.416-0.64 0.672-0.64 0.768v0c0.064 0 0.256 0.064 0.288 0.096-0.352 0.128-0.672 0.576-0.896 0.576-0.064-0.064-0.128-0.128-0.128-0.16s0.032-0.064 0.032-0.096-0.16-0.064-0.512-0.064c-0.448 0-0.288-0.32-0.384-0.32h-0.608c0 0.224 0.064 0.352 0.16 0.352 0.032 0 0.064-0.032 0.096-0.064h0.128c0.672 0.352 1.12 0.768 1.312 1.184v0.192h-0.768c-0.288 0-0.928-0.352-1.184-0.416 0.16 0.064 0.416 0.32 0.416 0.448-0.288 0.032-0.704 0.096-1.184 0.224 0.224 0 0.448 0.096 0.672 0.32-0.32 0.064-0.832 0.32-1.504 0.736h0.608c0.352-0.192 0.576-0.256 0.736-0.256 0.064 0 0.128 0 0.16 0.032-0.288 0.192-0.672 0.544-1.184 1.056 0.128 0 0.608-0.128 0.704-0.128 0.224 0.416 0.416 0.672 0.608 0.832 0-0.096 0.704-0.672 0.704-0.672 0.288 0 0.672 0.352 0.928 0.352 0.192 0 0.992-0.192 2.432-0.544v-1.12c-0.192 0-0.448 0.128-0.832 0.128-0.064 0-0.128-0.032-0.16-0.064l0.384-0.288c0.16-0.096 0.288-0.128 0.448-0.128 0.224 0 0.352 0.096 0.352 0.288h0.64c-0.096-0.096-0.288-0.48-0.64-1.216l0.416-0.32c0.128-0.064 0.192-0.16 0.192-0.288 0.256 0.096 0.96 0.384 1.184 0.512v-0.224c0-0.384 0.064-0.672 0.192-0.928zM23.264 25.312h-0.64c0-0.096 0.16-0.416 0.16-0.544-0.032-0.032-0.288-0.096-0.8-0.16-0.352-0.352-1.024-0.8-2.016-1.376 0-0.128-0.544-0.832-0.544-1.184 0-0.096 0.096-0.416 0.256-0.928 0.32-1.024 0.096-0.96 0.928-1.6v-0.48c-0.288-0.192-0.768-0.448-1.44-0.768-0.032 0.032-0.032 0.032-0.032 0.064 0 0.096 0.192 0.448 0.192 0.704 0 0.736-4.064 2.496-4.128 2.528 0.352 0.672 0.512 1.056 0.512 1.088 0 0.224-0.128 1.664-0.544 1.664-0.128 0-0.192-0.064-0.192-0.128 0-0.032 0.032-0.064 0.064-0.096-0.352-0.288-0.512-0.544-0.512-0.8 0-0.288 0.352-0.928 0.352-1.216s-0.16-0.544-0.512-0.832c0.128-0.224 2.688-2.432 2.912-2.816 0.128 0.128 0.32 0.192 0.544 0.192 0.288 0 0.48-0.32 0.736-0.608-0.288-0.288-0.576-0.416-0.928-0.448-0.064-0.16-0.224-0.448-0.48-0.8-0.064 0.064-0.096 0.192-0.096 0.352 0 0.288 0.096 0.544 0.096 0.672 0 0.544-0.96 0.832-2.112 0.832-1.92 0-2.304-0.736-2.656-1.184-1.056 0.384-2.368 1.248-3.936 2.592l-3.104 2.624-0.416-0.416c0.224-0.384 0.576-0.896 1.088-1.568 0.352-0.192 0.832-0.48 1.472-0.896 0.672-0.832 1.696-1.76 4.512-3.008l0.416 0.16 0.256-0.288v-0.96c-0.352-0.448-0.608-0.704-0.768-0.8v0c0 0.032-0.288 0.032-0.832 0.032-1.888 0-4.512 0.992-7.872 3.008 0.096-1.728 1.632-1.536 1.632-2.144 0-0.032 0-0.096-0.032-0.16h0.064c0.128 0 0.224 0.064 0.32 0.128 0.032 0 0.736-0.832 0.992-0.832 0.288 0 0.16 0.16 0.448 0.16-0.128 0 4.256-1.696 4.128-1.696 0.224 0 1.088 0.352 1.344 0.352-0.064 0 2.784-1.504 3.68-1.504 0.352 0 1.408 1.216 2.464 2.24-0.288 0.832-0.416 1.376-0.416 1.632v0.064c-0.096 0-0.224 0.064-0.448 0.16 0.352 0.256 1.024 0.096 1.28 0.608 0.128-0.416 0.352-0.992 0.672-1.696l0.416 0.448c-0.16 0.096-0.384 0.288-0.672 0.512v1.44c-0.032 0.032-0.032 0.064-0.032 0.064 0 0.064 0.096 0.064 0.288 0.064s0.288-0.096 0.288-0.32c0.416 0.16 0.992 0.512 1.728 1.024 0.288 0.288 0.448 1.248 0.576 1.984h-0.16c-0.576 0-0.832 0.512-0.832 1.536 0 0.704 0.224 1.216 0.672 1.536 0.736 0.544 1.28 1.12 1.664 1.792zM39.616 19.040c0 0.608-1.696 1.44-2.368 1.44-0.256 0-0.128-0.192-0.416-0.192-0.096 0-1.856 0.672-2.016 0.672-1.184 0-2.944-0.128-5.248-0.352l-0.192-0.224c-0.064-0.032-0.128-0.032-0.16-0.032 0.032 0-0.192 0.128-0.704 0.384 0.16 0.32 1.408 1.12 1.44 1.152-0.032 0.032-0.032 0.064-0.032 0.096 0 0.16 0.096 0.352 0.288 0.512l0.416 0.544c0 0.736-0.096 0.736 2.848 3.648 0.224-0.224 0.352-0.32 0.384-0.32 0 0.128-0.064 0.288-0.192 0.48l-0.32 0.512h-0.128c-0.576 0-1.184-0.448-1.824-1.376l-1.632-2.784c-0.608-1.056-1.184-1.568-1.664-1.568-0.256 0-0.736 0.352-1.024 0.352s-0.896-0.512-1.184-0.512c-0.256 0-0.224 0.16-0.512 0.16-0.224 0-1.408-0.832-1.568-0.864 0-0.16 0.096-0.32 0.32-0.544-0.512-0.16-1.248-0.512-2.176-0.992 0-0.032 0-1.12 0.544-1.536-0.032-0.096-0.064-0.192-0.064-0.288 0-0.128 0.032-0.224 0.064-0.352 0.064-0.032 1.28-1.152 1.536-1.152 0.448 0 0.832 0.16 1.12 0.448-0.128 0.096-0.416 0.224-0.512 0.352 0 0.256 0.288 0.448 0.288 0.544l-0.576-0.384c-0.256-0.192-0.48-0.288-0.64-0.288s-0.288 0.064-0.384 0.16l-0.384 0.288c0.16 0.224 0.512 0.48 1.024 0.832-0.448 0-0.672 0-0.704 0.032v0.736c0.096 0 0.48 0.16 0.736 0.16 0.288-0.544 0.544-0.992 0.768-1.344-0.032 0.256-0.16 0.64-0.32 1.12v1.632c0.16 0.096 0.352 0.224 0.608 0.448 0-0.032 0.032-0.32 0.128-0.928l0.96-0.704c-0.32-0.256-0.48-0.544-0.48-0.896 0-0.064 0-0.128 0.032-0.224-0.256-0.224-0.384-0.48-0.384-0.8 0-0.032 0.192-0.448 0.576-1.248 0.128 0 0.32-0.064 0.608-0.16-0.384-0.384-0.608-1.312-0.864-1.6l-0.416 0.32c-0.352-0.352-0.544-0.512-0.64-0.512l-0.288 0.256c0.192 0.224 0.32 0.352 0.448 0.352h-0.224c-0.288 0-0.512-0.032-0.704-0.128 0-0.032 0.096-0.16 0.32-0.384-0.064-0.064 0.064-0.256-0.352-0.256-0.256 0-0.48 0.096-0.672 0.256 0.064 0.096 0.224 0.576 0.512 1.408h-0.224c-0.256 0-0.48 0.032-0.736 0.16 0-0.288 0.032-0.48 0.128-0.576-0.128-0.096-0.32-0.448-0.448-0.576-0.256 0.096-1.664 0.96-2.24 0.96 0-0.16 0.064-0.288 0.16-0.384-0.224-0.224-0.512-0.576-0.832-1.024 0.224-0.128 0.48-0.288 0.48-0.64s-0.288-0.8-0.832-1.344c0.416-0.384 0.64-1.152 0.736-2.336 0.352-0.256 0.512-0.512 0.512-0.832 0.832-0.32 0.864-1.76 1.44-2.080-0.096-0.096-0.384-0.224-0.48-0.352 0.992-0.288 1.536-1.216 1.92-1.216 0.288 0 0.16 0.16 0.416 0.16 0.032 0 3.264-2.016 3.296-2.016 0.288 0 0.256 0.16 0.288 0.16 0.064-0.064 0.128-0.16 0.128-0.224 0-0.032-0.032-0.096-0.064-0.128 0.096 0.096 0.128 0.192 0.128 0.256s-0.032 0.128-0.064 0.192l0.256 0.192c0.448-0.064 0.896-0.096 1.376-0.096 1.984 0 3.648 0.576 4.992 1.696v0.864c0 0.416 0.192 0.608 0.544 0.608 0.256 0 0.224-0.16 0.48-0.16 0.288 0 0.992 0.416 2.112 1.216-0.096 1.632-0.576 2.752-1.408 3.328-0.8 0-1.28-0.224-1.28-0.224l0.704-0.96c0.32-0.448 0.48-0.768 0.48-0.928 0-0.704-1.248-1.408-1.952-1.408-0.224 0-0.96 0.48-1.248 0.48-0.128 0-1.696 0.16-2.048 0.16 0.032 0.064 0.064 0.192 0.064 0.352 0 0.128-0.064 0.32-0.064 0.448 0 0.064 0.064 0.064 0.288 0.064s0.672-0.512 0.896-0.512c0.352 0 0.736 0.192 0.832 0.192 0 0.256-0.352 0.832-0.736 0.832-0.224 0-0.928-0.256-1.28-0.256-0.096 0-0.192 0.032-0.288 0.064v-0.064c0-0.192-0.096-0.512-0.32-0.928-0.256 0.128-0.672 0.384-1.216 0.736 0.064 0.032 0.16 0.064 0.288 0.064 0.48 0 0.832-0.096 0.864-0.096 0 0.544 0.16 0.8 0.512 0.8 0.8 0 1.376-0.064 1.664-0.16 0 0.288-0.224 0.544-0.64 0.832l-0.416-0.32c-0.16 0.064-0.352 0.256-0.608 0.576l0.288 0.256c0.608-0.16 1.632-0.48 3.072-0.992 0 0.192-0.032 0.32-0.064 0.416-0.48 0.384-2.208 1.248-2.528 1.248-0.288 0-0.224-0.16-0.512-0.16-0.224 0-0.896 0.672-1.184 0.672s-0.64-0.16-0.992-0.512c-0.096 0.032-0.224 0.128-0.448 0.288v0.768c0.064 0.032 0.16 0.032 0.256 0.032 0.224 0 0.512-0.064 0.672-0.064s0.128 0.48 0.672 0.48c0 0 0.608-0.064 1.792-0.192-0.32 0.256-2.016 0.544-2.016 1.088v0.096c-0.064 0.032-0.16 0.064-0.256 0.064-0.416 0-0.928-0.192-1.024-0.192-0.192 0-0.384 0.096-0.576 0.288v0.608l0.256 0.288c0.32-0.32 0.576-0.48 0.736-0.48 0 0.192-0.16 0.448-0.48 0.768 0 0.128 0.224 0.192 0.64 0.224v0.576c0 0.128-0.032 0.192-0.064 0.192-0.064 0-0.128-0.032-0.16-0.032s-0.064 0.032-0.064 0.032c0 0.16 0.128 0.896 0.128 1.248 0 0.672-0.32 1.056-0.992 1.12 0.256 0.16 0.288 1.056 0.832 1.056 0.608 0 1.12-0.96 1.12-2.656 0-0.32-0.032-0.608-0.096-0.864 0.224 0 0.544 0.128 0.992 0.384-0.032 0.128-0.16 0.32-0.32 0.544v0.608c-0.032 0.032-0.032 0.064-0.032 0.064 0 0.064 0.096 0.064 0.288 0.064 0.48 0 0.704-0.192 0.704-0.544 0-0.128-0.096-0.256-0.096-0.384 0-0.224 0.672-1.12 0.704-1.248 0.352 0.352 0.928-0.672 0.928 1.984-0.288 0-0.48-0.032-0.576-0.128l-0.512 0.832c-0.224 0.352-0.448 0.512-0.736 0.512-0.256 0-0.448-0.064-0.576-0.192l-0.256 0.256c0.192 0.128 0.448 0.192 0.768 0.192h0.192l-0.288 0.32c0.384 0.416 0.704 0.608 0.928 0.608 0.48 0 1.12-0.96 1.632-1.344 0.064 0 0.128 0.064 0.192 0.16l0.224 0.32 0.736-0.096c-0.608-0.544-0.288-0.48-1.536-0.96 0-0.16 0.608-0.8 0.608-1.088v-0.096c0-0.16 0.032-0.384 0.128-0.736l0.16-0.832c0.192-0.256 0.448-0.384 0.8-0.384 0.032 0 2.4 0.384 4 1.984 0.928 0.512 1.376 1.056 1.376 1.632z"></path>
</svg>
