<!-- Generated by IcoMoon.io -->
<svg version="1.1" xmlns="http://www.w3.org/2000/svg" width="35" height="32" viewBox="0 0 35 32">
<title>parenleft</title>
<path d="M27.84 17.472v-0.224h-0.32v0.224h0.32zM23.36 14.4v-0.224h-0.352v0.224h0.352zM23.616 14.656v-0.224h-0.48v0.224h0.48zM9.536 8.928l0.64-0.32c-0.064 0-0.128-0.064-0.128-0.128s0.032-0.096 0.096-0.128c-0.16 0-0.608 0.352-0.608 0.576zM12.192 17.376c-0.224-0.224-0.384-0.32-0.48-0.32 0 0.288-0.064 0.48-0.16 0.576 0.224 0 0.544-0.256 0.64-0.256zM9.344 9.6h-0.608v0.352h0.48c0-0.096 0.032-0.192 0.128-0.352zM8.256 15.744l-0.864-0.544-0.096 0.16 0.832 0.576zM13.6 13.408c-0.128-0.192-0.416-0.384-0.832-0.608-0.288 0.288-0.416 0.416-0.448 0.416l0.32 0.352c0.224-0.096 0.512-0.16 0.768-0.16h0.192zM10.4 14.528c-0.128-0.224-0.416-0.544-0.832-0.96-0.288 0.288-0.48 0.416-0.576 0.416 0.16 0.224 0.32 0.576 0.544 0.992 0.256-0.064 0.544-0.224 0.864-0.448zM13.28 10.432c-0.608-0.736-0.992-1.088-1.152-1.088h-0.576v0.448c0.128 0.352 0.8 0.672 1.504 0.672 0.064 0 0.16-0.032 0.224-0.032zM23.232 7.584c0-0.48-0.192-0.704-0.576-0.704-0.544 0-0.928 0.16-1.088 0.448 0.256 0.384 0.416 0.768 0.416 1.12v0.096c0.8-0.288 1.248-0.32 1.248-0.96zM14.752 6.816l-0.288-0.32h-0.896c-0.608 0-0.992 0.672-0.992 1.088 0 0.48 0.256 0.704 0.768 0.704 1.28 0 1.12-0.832 1.408-1.472zM14.368 19.712c-0.288-1.184-0.672-1.792-1.152-1.792 0 0.032-0.416 0.16-1.28 0.416v0.864c0.704 0.448 1.184 0.672 1.408 0.672 0.256 0 0.864-0.16 1.024-0.16zM8.736 12.608c0-0.704-1.376-1.728-1.952-1.728-0.608 0-1.408 0.736-1.408 1.344 0 0.576 0.832 2.496 1.472 2.496 0.448 0 1.888-0.704 1.888-2.112zM32 17.344c0 0.416-0.384 2.016-2.496 3.328-0.16 0.096-0.448 0.544-0.864 1.312 0.096 0.16 0.192 0.448 0.448 0.448 0.224 0 0.288-0.128 0.512-0.128 0.256 0 0.96 0.352 0.96 0.704 0-0.032-0.128 0.384-0.416 1.216-0.288 0-2.048 0.256-2.080 0.256-0.128 0-0.288-0.064-0.512-0.192-0.096 0.032-0.576 0.032-1.44 0.064l-0.256-0.256h-0.8c0-0.032-0.128-0.416-0.128-0.64 0-0.544 0.64-1.472 1.92-2.752v-1.536c-0.288-0.128-0.544-0.192-0.832-0.192-0.224 0-0.864-0.64-1.088-0.64s-0.224 0.128-0.448 0.128c-0.192 0-0.416-0.128-0.672-0.416h-0.48c-0.16 0.352-0.256 0.64-0.256 0.8-0.16-0.416-0.448-0.64-0.896-0.672-0.032 0.064-0.448 0.384-1.248 0.992 0.096 0.16 0.384 0.416 0.896 0.768l-2.336 2.080c-0.128 0-0.288 0.032-0.48 0.128v0.608l0.512 0.48c0.16 0.16 0.224 0.352 0.256 0.576-0.48 0.192-0.992 0.288-1.472 0.288-2.464 0-1.024-1.824-3.36-1.952l-1.088-1.12c-0.416-0.416-0.704-0.64-0.832-0.64-0.224 0-0.032 0.128-0.256 0.128-0.704 0-1.6-1.056-1.6-1.856 0-0.192 0.032-0.352 0.128-0.512-0.416-0.224-0.608-0.352-0.64-0.352-0.448 0-2.816 1.024-2.816 1.632 0 0.832 1.952 2.624 1.952 3.488 0 0.608-0.32 0.768-0.928 0.832-1.728 0.256-1.696 0.48-2.016 0.48-0.288 0-1.28-0.64-1.472-0.96 0.096-0.16 1.664-0.768 1.952-1.28-0.192-0.256-0.48-0.608-0.896-1.056l-1.248-0.768c-1.152-0.704-1.184-1.664-1.216-2.272 0-0.704 0.96-0.992 1.088-0.992 0.224 0 0.288 0.128 0.512 0.128 0.48 0 1.088-1.152 1.088-1.472 0-0.672-0.864-0.864-2.112-1.504-1.184-0.864-1.344-2.048-1.344-2.848 0-0.704 0.032-1.376 2.464-2.592 0.032 0 0.096 0.032 0.128 0.032 0.512 0 1.12-0.48 1.12-0.48 0.544 0 1.088 0.128 1.6 0.384 0.32-0.224 0.864-0.576 0.864-1.856 0-0.544-0.256-1.376-0.768-2.464 0.224 0 1.44 0.096 1.536 0.096 0.16 0 0.608-0.128 0.832-0.128l2.112-0.384c0.288 0 0.736 0.192 1.408 0.544 1.184 0.608 1.344 0.96 1.344 1.632 0 0.384-0.064 1.024-0.064 1.664l-0.8 0.64c-0.448 0.352-0.608 0.736-0.608 0.96 0 0.288 0.224 0.64 0.768 0.832l0.928 0.32c-0.96 0.928-1.44 1.472-1.44 1.568s0.16 0.352 0.512 0.8c0.8 1.12 0.768 1.568 1.504 1.568 0.224 0 0.16-0.128 0.384-0.128 0.32 0 0.864 0.064 1.216 0.672v0.576c-0.224 0.192-0.352 0.288-0.448 0.288s-1.504-0.64-1.6-0.64c-0.224 0-0.352 0.256-0.576 0.256-0.256 0-0.576-0.256-1.152-0.8l-0.672-0.608c-0.416 0.096-0.736 0.352-0.992 0.768-0.256-0.224-0.704-0.544-1.312-1.024l-0.032-0.032c-0.032 0-0.032 0.096-0.032 0.224 0 0.192 1.568 2.816 1.984 3.040l0.224 0.512c0.192 0.224 0.512 0.384 0.928 0.416 0.128 0.288 0.448 0.704 0.928 1.248 0.128 0.672 0.16 0.736 1.504 2.432 0.416-0.768 3.392-1.28 3.808-1.6-0.096-0.128-0.256-0.288-0.512-0.512l1.344-2.24c0.544-0.928 0.8-1.504 0.832-1.632 0-0.384-0.352-0.896-0.704-0.896-1.696 0-2.752-0.032-3.136-0.096 0.064-0.512 1.056-0.768 1.248-1.088l0.416-1.472c-0.256-0.032-1.376-0.992-1.472-0.992s-1.6 0.512-1.664 0.512c-0.256 0-0.576-0.096-0.96-0.32 0.128-0.384 1.248-1.088 1.728-1.088 0.224 0 0.224 0.128 0.448 0.128 0.16 0 0.8-0.416 1.024-0.416 0.128 0 0.576 0.256 1.344 0.8 0.224-0.128 0.32-0.32 0.352-0.608v-0.704c0.032-0.288 0.096-0.512 0.224-0.672-1.216-0.864-1.28-0.992-1.28-1.728 0-1.504 1.856-2.72 4.064-2.72 0.224 0 0.48 0.16 0.8 0.448 1.12 1.056 1.568 1.888 1.568 2.688 0 0-0.512 2.336-0.512 2.304 0 0.8 1.184 1.504 1.792 1.504 0.576 0 0.864-0.992 0.832-0.96l0.544-0.544c0 0.032-0.256-1.472-0.256-2.016 0-0.928 0.288-1.376 0.864-1.376 0.16 0 0.96 0.416 1.344 0.416v5.312c0 0.352-1.152 1.6-1.984 1.6-0.224 0-0.16-0.128-0.384-0.128-0.128 0-0.288 0.064-0.48 0.224h-0.8c-0.608 0.064-0.96 0.32-0.96 0.736 0 0.8 2.112 1.376 2.752 1.44 1.856 0.224 2.784 0.736 2.784 1.504z"></path>
</svg>
