<!-- Generated by IcoMoon.io -->
<svg version="1.1" xmlns="http://www.w3.org/2000/svg" width="34" height="32" viewBox="0 0 34 32">
<title>parenright</title>
<path d="M21.504 14.848c-0.096 0.096-0.192 0.16-0.32 0.224 0.192 0 0.288 0.096 0.288 0.288 0.064 0 0.096-0.064 0.128-0.224 0-0.128-0.032-0.224-0.096-0.288zM26.048 12.576v-0.224h-0.608v0.224h0.608zM8.864 11.712c-0.224-0.096-0.416-0.352-0.608-0.704 0.064 0.288 0.16 0.64 0.288 1.024 0-0.224 0.096-0.32 0.32-0.32zM12.448 15.616v-0.352h-0.48v0.352h0.48zM22.592 16.832c-0.608-0.416-1.056-0.768-1.376-1.088 0 0.096-0.16 0.064-0.16 0.32s0.64 0.992 0.672 1.088h0.736c0-0.096 0.032-0.192 0.128-0.32zM8.352 8.992c0-0.8-0.288-1.216-0.832-1.216-0.224 0-0.96 0.16-1.216 0.16v1.888c0.16 0.032 0.896 0.544 1.152 0.544 0.608 0 0.896-0.448 0.896-1.376zM12.32 21.984c-0.448 0.448-0.64 0.576-1.344 2.080-0.544 0.064-0.736 0.128-0.704 0.16-0.768-0.032-1.152-0.448-1.152-1.344 0-0.704 1.088-1.696 1.952-1.76 0.096-0.096 0.64-0.992 1.248-1.12v1.984zM29.152 19.168c0-0.128-1.024-1.76-1.024-1.824 0-0.128 0.032-0.224 0.096-0.224 0 0 0.032 0.032 0.064 0.032 0.416-0.608 0.608-1.12 0.608-1.536 0-0.704-0.32-1.184-0.928-1.408 0 0-0.672-0.128-1.984-0.384-0.192 0.384-0.288 0.704-0.288 0.96 0 0.192 1.408 1.664 1.504 1.824 0.288 0.512 0.16 3.104 1.408 3.392 0.352-0.48 0.544-0.736 0.544-0.832zM31.072 23.84c0 1.056-0.16 1.408-1.216 1.408-1.216 0-1.024-1.664-1.92-1.664-0.128 0-1.28 0.768-1.344 0.768-0.512 0-0.768-0.48-0.768-1.408 0-0.992 0.352-1.024 0.64-1.472-0.192-0.544-1.792-1.056-1.792-1.696v-0.544c0.032 0 0.416 0.128 0.64 0.128 0.416 0 0.64-0.288 0.64-0.832 0-0.032-0.128-0.256-0.352-0.736h-0.576c-0.096 0.192-0.16 0.448-0.16 0.768-0.192-0.352-0.48-0.512-0.896-0.512-0.384 0-0.48 0.32-0.608 0.576 0.032 0.032 0.448 0.32 0.672 0.544-0.224 0.16-0.48 0.32-0.8 0.448l-0.768 0.32c0.096 0.416 0.224 1.024 0.416 1.76 0.096 0.16 0.608 0.96 0.608 1.248 0 0.768-0.352 1.792-1.024 1.792-0.576 0-0.864-0.512-0.864-1.504 0-0.672 0.064-1.088 0.224-1.248-0.576-0.16-1.152-0.32-1.152-0.768 0-0.064 0-0.16 0.032-0.256-0.128-0.768-0.704-1.248-0.704-1.504 0-0.064 0.032-0.096 0.064-0.096l0.224-0.224c-0.128-0.096-0.288-0.16-0.448-0.16-0.096 0-1.376 0.384-1.472 0.384s-1.472-0.512-1.536-0.512c0 0-2.048 0.512-2.080 0.512l-1.056-0.288c-0.096 0.192-0.224 0.544-0.384 1.056-0.48-0.256-1.216-1.92-2.208-1.92-0.928 0-2.56 1.92-2.624 2.048-0.48 0.768-0.64 0.64-1.152 0.992-0.608 0.928-0.928 1.536-0.928 1.76 0 0.416 0.16 0.672 0.448 0.768-0.096 0.096-0.544 0.448-0.768 0.448-0.64 0-0.96-0.352-0.96-1.088 0 0.064 0.416-2.176 0.416-2.4 0.256-0.32 0.48-0.768 0.64-1.312 0.384-1.312 0.736-1.6 1.792-1.728 0.064-0.384 0.16-0.928 0.32-1.632-0.032-0.16-0.064-0.352-0.064-0.64 0-0.576 0.128-0.928 0.64-1.152-0.416-0.32-1.056-0.768-1.984-1.344 0.032 0.096 0.032 0.32 0.032 0.608l-0.48 0.32c-0.224 0.16-0.416 0.224-0.544 0.224h-0.608l-0.192-0.8c-0.192-0.224-0.384-0.352-0.608-0.352-0.256 0-0.096 0.128-0.32 0.128-0.416 0-0.96-0.768-0.96-2.048 0-1.792 0.48-1.28 1.504-2.176 0.128-0.576 0.608-2.368 2.336-2.848 0.128-0.128 0.192-0.32 0.192-0.608 0-0.16-0.032-0.352-0.032-0.512 0-0.736 0.288-0.8 0.96-0.8 0.096 0 1.248 0.896 1.344 0.896s0.416-0.192 0.992-0.576c1.824-1.216 4.32-1.216 5.184-1.216 0.992 0 1.632 0.192 1.92 0.544 0 0.288-0.128 0.544-0.352 0.832-1.952 0.224-3.008 0.32-3.136 0.352-1.28 0.32-1.92 0.928-1.92 1.792 0 1.536 0.736 2.112 1.472 2.112 0.608 0 1.056-0.064 1.408-0.16 0.16-0.032 0.544-0.48 0.8-0.48 0.224 0 0.672 0.128 0.896 0.128h0.544c0.256-0.096 0.672-0.448 1.216-0.992h0.576c0 0.032 0.16 0.256 0.16 0.48 0 0.736-0.864 2.336-2.304 2.336-0.224 0-0.928-0.128-1.088-0.128-0.128 0-1.28 0.512-1.376 0.512-0.224 0-0.224-0.384-0.448-0.384-0.544 0-1.76 0.448-1.824 0.8v0.256c0 0.256-0.032 0.608-0.064 0.992h-0.384c-0.192 0-0.32 0.032-0.352 0.064 0.224 0.224 0.416 0.32 0.64 0.32-0.032 0 0.352-0.128 1.12-0.384 0.096 0.16 0.32 0.384 0.608 0.64 0.256-0.096 0.864-0.768 1.088-0.768 0.064 0 1.632 0.384 1.696 0.384 0.224 0 0.704-0.32 0.8-0.352 0.288-0.096 0.864-0.16 1.792-0.192 0.096-0.096 0.192-0.224 0.288-0.416l0.896-0.096c0.448-0.032 0.736-0.064 0.832-0.096-0.128 0 3.552 1.12 3.552 1.152v0h0.608c0.128-0.128 0.16-0.224 0.16-0.32 0-0.16-0.096-0.288-0.096-0.352 0-0.096 0.096-0.096 0.16-0.096 0.224 0 0.608 0.128 0.704 0.128 0.224 0 0.992-0.64 1.216-0.64 0.096 0 0.384 0.224 0.896 0.64l1.12 0.96c1.248 0.864 1.568 3.872 1.568 3.84 0 1.088-0.128 2.24-0.416 3.488-0.032 0.16-0.608 0.768-0.608 1.28 0 0.576 1.024 0.512 1.024 2.176v0.32z"></path>
</svg>
