<!-- Generated by IcoMoon.io -->
<svg version="1.1" xmlns="http://www.w3.org/2000/svg" width="35" height="32" viewBox="0 0 35 32">
<title>percent</title>
<path d="M20.256 16.96v-0.224h-0.32v0.224h0.32zM16.48 6.72v-0.448h-0.224v0.448h0.224zM11.36 1.6c0.096 0 0.16 0.32 0.224 0.352-0.096 0.032-0.32 0.16-0.416 0.16 0-0.352 0.064-0.512 0.192-0.512zM25.632 6.752c0.128-0.128 0.288-0.192 0.48-0.192-0.064-0.032-0.096-0.32-0.288-0.32h-0.384c0 0.224 0.064 0.416 0.192 0.512zM19.104 3.264c-0.032-0.48-0.288-0.736-0.736-0.736-0.224 0-0.608 0.128-0.64 0.128 0.192 0.576 0.384 0.928 0.576 1.024 0.544-0.288 0.8-0.416 0.8-0.416zM13.344 3.968c-0.384-0.192-0.672-0.288-0.832-0.288-0.256 0-0.416 0.32-0.544 0.48l-0.832 0.32c-0.8 0.32-0.768 0.608-1.408 1.792-0.064 0.064-0.576 0.416-0.576 0.576 0 0.064 0.032 0.16 0.128 0.288l1.696-1.568c0.576-0.544 1.248-0.768 1.888-0.768h0.32s0.16-0.448 0.16-0.832zM24.64 19.424c-0.192-0.896-2.912-2.080-3.104-2.368h-0.736l0.384 1.344c0.224 0.544 0.48 0.832 0.832 0.832 0.256 0 0.704-0.256 0.832-0.256s1.056 0.896 1.216 0.896 0.352-0.16 0.576-0.448zM20.544 19.808c-0.32-0.192-2.624-2.016-2.688-2.016-0.512 0-1.824 1.184-1.824 1.76 0 0.096 0.096 0.224 0.32 0.448h1.28c0.448 0 1.024-0.16 1.696-0.512 0.128 0.032 0.544 0.448 0.8 0.448 0.128 0 0.256-0.032 0.416-0.128zM15.776 12.48c0-0.448-1.632-2.208-2.496-2.912-0.896 0.352-2.112 0.512-2.112 1.248 0 0.704 0.544 1.504 1.344 2.944 0.32 0.288 1.952 1.12 2.176 1.344 0.928-0.928 1.088-2.304 1.088-2.624zM26.208 16.064c0-0.416-0.192-0.736-0.608-0.96-0.128 0.256-0.384 0.64-0.768 1.152-0.64-0.416-0.96-0.864-0.96-1.408 0-0.576 1.184-1.728 1.44-2.112-0.512-0.448-3.52-1.728-3.936-1.728-0.224 0-1.12 0.128-1.344 0.128-0.48 0-1.088-0.16-1.76-0.512-0.192 0.192-0.288 0.352-0.288 0.448 0 0.448 0.416 1.152 1.248 2.080 0.128 0.16 0.288 0.416 0.448 0.768 0.288 0 0.928 0.608 1.024 0.64 0.256 0.096 0.832 0.672 1.056 0.672s0.032-0.128 0.256-0.128c0.416 0 1.696 0.8 3.904 2.368 0-0.096-0.032-0.16-0.032-0.256 0-0.608 0.32-0.992 0.32-1.152zM31.584 21.088c0 0.416-0.544 0.736-1.6 0.96 0.096 0-2.976-0.512-2.88-0.512-0.128 0-0.928 0.128-2.4 0.384l-0.256-0.256c-0.288 0.16-0.608 0.256-0.96 0.256-0.384 0-1.504-0.224-1.856-0.48-4.64-0.096-7.36-0.16-8.096-0.16-0.8 0-0.192 0.384-2.24 0.384-0.224 0-1.056-0.256-1.28-0.256s-1.12 0.128-1.344 0.128-1.088-0.128-1.312-0.128c-2.496 0-2.816-0.032-3.136-0.704 0.224-0.48 0.48-0.736 0.832-0.8 2.080-0.352 2.88-0.768 6.176-2.752 0.128 0.032 0.192 0.128 0.192 0.32 0 0.032-1.28 1.984-1.28 2.016 0 0.352 0.16 0.512 0.448 0.512s1.952-0.544 2.528-0.928c0.384-0.256 1.504-1.184 1.504-1.472 0-0.16-0.128-0.32-0.352-0.512-0.096 0-0.224 0.032-0.352 0.032-0.352 0-0.768-0.032-1.312-0.096-0.032-0.384-0.192-2.304-1.312-2.304-0.256 0-0.096 0.128-0.32 0.128-0.8 0-1.984-1.28-1.984-2.048 0-0.736 0.096-1.248 0.288-1.536 0.32-0.32 1.696-2.208 2.4-2.208 0.224 0 0.224 0.128 0.448 0.128 0.064 0 1.216-0.64 1.344-0.64l0.832 0.128c0.064-0.064 0.064-0.128 0.064-0.256 0-0.064 0-0.192-0.032-0.32 0-0.128 0.416-0.512 0.416-0.768 0-0.672-0.768-1.6-1.408-1.6-0.128 0-0.416-0.032-1.184 0.736l-1.664 0.576c-0.096 0.192-0.288 0.416-0.512 0.704-1.376 0.416-0.896 1.28-1.184 1.92-0.192 0.384-1.44 1.216-1.6 1.44l-1.216 1.92c-0.096 0.032-0.256 0.032-0.416 0.032-0.224 0-0.288-0.128-0.512-0.128-0.32 0-0.704 0.192-1.12 0.608h-0.736l1.152-1.088c0.512-0.48 0.768-0.8 0.768-0.928 0-0.224-0.256-0.576-0.768-1.088 0.16-0.16 0.48-0.48 0.992-0.928l1.152-1.056 0.864-1.536c0.48-0.672 1.088-1.504 1.888-2.432v-0.32c-0.032 0-0.096-0.096-0.32-0.096-0.736 0-1.216 1.184-1.696 1.536l-0.16-0.16v-0.736c0.256-0.16 0.832-0.672 2.336-1.888 0.672-0.096 0.992-0.16 0.992-0.16 0.224 0 1.056 0.512 1.28 0.512 0.096 0 0.384-0.288 0.8-0.864 0.416 0 0.832-0.256 0.928-0.48l0.864-0.096c0.928-1.152 2.336-1.408 2.56-1.408s0.48 0.256 0.704 0.256 0.48-0.128 0.704-0.128c0.512 0 0.832 0.064 0.992 0.192 0.672 0.544 1.44 3.072 1.44 4.384 0 0.48-0.16 0.704-0.512 0.704-0.224 0-0.864-0.128-1.088-0.128-1.824 0-1.856 1.248-1.856 2.112v0.64s0 0.192 0.256 0.192c0.16 0 0.48-0.256 0.704-0.256 0.256 0 0.224 0.224 0.256 0.224 0.64 0 1.12 0.064 2.432 0.64l1.984 0.192c0.768 0.064 1.152 0.256 1.152 0.384h0.448c0.16-0.16 0.192-1.28 0.352-2.656-0.032-0.032-0.128-0.064-0.224-0.16-0.064 0-0.128 0.032-0.192 0.032-0.224 0-0.448-0.032-0.736-0.096-0.448-0.32-2.080-1.024-2.080-2.4 0-1.216 0.448-1.088 1.376-1.504-0.16-0.32-0.224-0.576-0.224-0.8 0-0.704 0.416-0.928 2.080-0.928 0.416 0 1.024 1.056 1.024 1.312 0 1.312-1.44 0.672-1.44 1.984 0 0.384 0.16 0.576 0.48 0.576 0.064 0 1.792-1.024 1.856-1.024 0.128 0 0.608 0.256 0.832 0.256 0.352 0 0.96-0.448 0.96-0.832 0-0.032-0.768-1.856-0.768-1.952 0-0.48 0.256-0.704 0.768-0.704 0.832 0 2.56 0.832 2.56 1.504 0 0.032-0.352 1.376-0.352 1.664 0 0.032 0.096 0.416 0.096 1.024 0 1.504-0.992 1.44-2.976 1.504-0.256 0.352-0.352 0.736-0.352 1.28 0 0.224 0.096 0.512 0.288 0.832l0.544 1.12c0.096 0.224 0.128 0.512 0.128 0.864l-0.128 1.568c0.288 0.448 0.672 0.896 1.184 1.312 1.312 1.056 1.952 1.728 1.952 2.048 0 0.736-0.48 1.088-1.472 1.088-0.768 0-1.216-0.416-1.344-1.248 0-0.064-0.064-0.16-0.192-0.288l-0.384 1.216c0.032 0.096 0.064 0.192 0.064 0.256 0 0.32-0.384 0.512-0.896 1.024 0.096 0.352 0.352 0.8 0.736 1.376 0.64 0.512 2.112 1.408 2.4 1.408 0.128 0 0.384-0.128 0.544-0.128s0.384 0.096 0.672 0.288v0.544z"></path>
</svg>
