<!-- Generated by IcoMoon.io -->
<svg version="1.1" xmlns="http://www.w3.org/2000/svg" width="27" height="32" viewBox="0 0 27 32">
<title>plus</title>
<path d="M16.736 7.52l-0.032-0.032s0 0.032 0.032 0.032zM20.128 13.12v-0.224h-0.256v0.224h0.256zM17.6 12.224c-0.128 0.096-0.32 0.288-0.544 0.576 0-0.416 0.032-0.672 0.096-0.768zM20.896 13.728c-0.32 0.16-0.832 0.256-1.568 0.256 0 0.096-0.096 0.512-0.096 0.608 0.128-0.128 0.352-0.288 0.672-0.512 0.064 0.096 0.096 0.192 0.128 0.288 0.032-0.224 0.16-0.32 0.32-0.32s0.288 0 0.448 0.032c0-0.096 0.032-0.192 0.096-0.352zM13.248 12.416c0-0.864-0.224-1.28-0.64-1.28-0.736 0-3.904 1.44-3.904 2.368 0 0.352 0.224 0.768 0.224 0.864 0 0.128-0.064 0.256-0.192 0.384-0.224-0.16-0.448-0.256-0.608-0.256-0.384 0-0.576 0.352-0.576 1.024 0 0.288 0.352 1.024 0.64 1.024h0.384c0.16-0.864 0.32-1.792 0.704-1.952 0.288 0.608 0.544 0.928 0.704 0.928 1.152 0 3.264-1.344 3.264-3.104zM23.84 12.736c0 0.416-0.448 2.528-2.368 4.032v0c0-0.032-2.176 0.48-2.176 1.568 0 0.736 1.184 1.888 1.472 1.888 1.44 0 2.144 1.664 2.144 1.824 0 0.8-0.832 2.464-1.472 2.464-0.224 0-0.704-0.448-0.704-0.704 0-0.224 0.448-1.056 0.448-1.28 0-0.512-0.096-0.544-0.224-0.544-0.16 0-0.224 0.032-0.352 0.032-0.352 0.032-0.512 0.032-0.512 0.032-0.096 0-0.384-0.128-0.896-0.352s-0.768-0.352-0.8-0.352c-0.32-0.032-1.568-0.352-1.568-1.28v-1.44c0.224-0.096 0.48-0.16 0.736-0.16 0.064 0 0.128 0.032 0.192 0.032 0 0 0.032-0.064 0.032-0.224 0-0.896-0.352-1.344-1.056-1.344-0.288 0.032-0.768 0.288-1.344 0.992l-0.864 1.024c-0.768 0.352-1.632 0.864-1.92 1.536l-0.512 1.696c-0.32 1.056-0.768 1.568-1.088 1.568-0.224 0-0.608-0.608-0.704-0.992 0.512-0.512 0.896-1.088 1.12-1.696-0.032-0.192-0.064-0.544-0.064-0.896 0-0.192 0.064-0.448 0.512-1.536 0.384-0.928 0.832-0.736 3.552-3.104 0.16 0 0.224 0.128 0.384 0.128 0.128 0 0.384-0.128 0.64-0.512l0.416-0.64h0.448l-0.096 0.192v0.352c0.032 0.064 0.096 0.096 0.192 0.096s0.224-0.096 0.384-0.32c-0.032-0.128-0.128-0.288-0.288-0.512 0.224-0.48 0.384-0.832 0.608-1.056 0-0.064-0.032-0.352-0.064-0.768 0.16-0.224 0.224-0.448 0.224-0.704 0-0.224-0.096-0.736-0.096-0.96s0.064-0.448 0.192-0.64c-0.032-0.032-0.096-0.064-0.192-0.064-0.224 0-0.416 0.384-0.608 1.152-0.064-0.096-0.192-0.128-0.384-0.128-0.768 0-1.152 0.288-1.152 0.832 0 0.096 0 0.192 0.032 0.288-1.408 0.48-2.432 2.272-2.976 3.328l-1.536 0.768c-0.992 0.512-1.6 0.704-1.856 0.704-0.16 0-0.064-0.128-0.192-0.128-0.32 0-0.512 0.192-0.544 0.544v0.992c-0.096 0-0.224-0.032-0.352-0.032-0.192 0-0.416 0.032-0.704 0.064-0.096 0.544-0.32 1.28-0.672 2.24-0.16 0.192-1.152 0.928-1.344 0.928h-0.224c-0.256 0-0.544-0.256-0.672-0.736l-0.256-1.024-0.704-0.096c-0.288-0.096-0.448-0.352-0.448-0.768 0-0.16 0.096-0.416 0.32-0.768l0.352-0.096c0.064-0.064 0.16-0.224 0.256-0.512-0.096-0.032-0.16-0.064-0.256-0.064s-0.192 0.064-0.288 0.224c-0.224 0-0.48-0.192-0.768-0.544 0-0.224 0.224-1.088 0.256-1.44-0.032-0.288-0.064-0.64-0.064-1.056 0-1.44 0.384-2.24 1.408-2.24 0.928 0 1.28 0.768 1.568 0.768 0.16 0 0.224 0.128 0.384 0.128 0.352 0 0.64-0.192 0.8-0.608 0.672-1.664 1.312-2.048 2.88-2.912 0.064 0 0.672-0.16 1.856-0.16 1.088 0 1.568-0.352 1.568-1.664v-1.056c0.128-1.536 0.992-0.832 1.28-1.728l-0.384-0.64c-0.192-0.288-0.288-0.48-0.288-0.608 0-0.512 0.608-0.768 1.856-0.768 0.608 0 1.28 1.12 1.28 1.984 0 0.896-0.896 1.6-0.896 2.208-0.064-0.096-0.192-0.192-0.384-0.32l-0.608 1.216c0.512 0.48 0.832 0.704 0.992 0.704 0.128 0 0.416-0.512 0.576-0.512s0.32 0.128 0.352 0.128l0.256-0.832c0.16-0.032 0.736-0.192 0.896-0.192 0.96 0 1.76 0.192 2.4 0.544 0.224 0.16 0.96 1.184 2.24 3.072 0.288 0.416 0.416 0.896 0.416 1.44z"></path>
</svg>
