<!-- Generated by IcoMoon.io -->
<svg version="1.1" xmlns="http://www.w3.org/2000/svg" width="35" height="32" viewBox="0 0 35 32">
<title>q</title>
<path d="M18.496 28.48v-2.24h-0.576v2.24h0.576zM20.384 17.184h-0.128c-0.32 0-1.248 0.128-1.6 0.128-0.96 0-1.728-0.352-2.304-1.056 0.704-0.8 1.312-1.184 1.856-1.184 0.512 0 1.248 0.704 2.176 2.112zM19.36 19.712l-0.448 0.512c-0.224 0.16-0.512 0.256-0.864 0.256-0.448 0-2.4-0.448-2.688-0.448 1.056-1.056 1.888-1.568 2.56-1.568h1.44v1.248zM32.192 20.032c-0.032 0.288-0.32 0.448-0.832 0.448-0.8 0-2.56-0.768-3.744-1.76-0.032-0.16-0.192-0.416-0.48-0.768 0.448-0.448 2.304-0.864 2.816-1.184h1.152c0.352 0.704 0.704 1.792 1.088 3.264zM30.848 22.336c-0.064 0.352-0.288 0.992-0.864 1.952l-1.6 2.56c-0.32-0.128-1.216-0.672-2.72-1.664-0.032 0.096-0.064 0.224-0.064 0.352 0 0.48 0.8 2.016 0.864 2.208-0.224 0.224-0.512 0.896-0.768 1.12-0.256 0-0.8-0.16-1.728-0.64-0.128 0.096-0.192 0.32-0.192 0.672 0 0.224 0.032 0.512 0.096 0.864-0.512 0.672-1.696 1.472-2.112 1.472-0.672 0-1.216-0.32-1.568-0.992-1.12 0.416-1.984 0.608-2.592 0.608-0.448 0-0.96-0.096-1.536-0.32-0.16-0.48-0.416-2.912-0.576-3.68-0.48 0.48-1.312 2.656-1.568 3.040h-1.536c-0.256-0.032-0.384-0.32-0.384-0.832 0-0.416 0.544-1.76 1.664-4l-0.544-0.544c-0.384 0.224-0.992 0.608-1.696 1.344l-1.952 2.016c-0.768-0.768-1.152-1.408-1.152-1.952s0.416-0.64 0.416-0.672c-0.032-0.032-0.192-0.064-0.448-0.064-0.736 0-0.896 0.384-1.152 0.672-0.48-0.192-0.992-0.832-1.536-1.92 0.864-0.224 8.576-2.784 8.736-2.784 0.448 0.032 1.12 0.608 1.792 1.888l1.12 2.144c3.104-0.8 1.696-2.048 3.616-4.384 1.088 0.352 3.232 1.6 6.4 3.712 0.096-0.384 0.128-0.832 0.128-1.312 0-0.576-0.192-2.592-0.192-3.040h1.408c0.8 0 2.24 1.344 2.24 2.176zM32.192 15.648c-0.256 0.096-0.544 0.128-0.832 0.128-1.248 0-4.992-2.016-5.024-2.048l-0.704 0.672-0.928-0.8c-0.416-0.352-0.768-0.544-1.088-0.544-0.48 0-2.24 1.024-2.688 1.024-0.608 0-1.44-0.672-2.048-0.672-0.672 0-0.16 0.672-0.832 0.672-1.44 0-2.912-0.352-4.352-1.088 0-1.376 0.352-2.592 0.352-2.592h1.44c0.64 0 1.312 0.288 1.76 0.896l1.024 1.44c0.16 0 0.32-0.128 0.48-0.384l0.416-0.704c0.128 0 1.792-0.608 2.24-0.608 0.608 0 1.536 0.672 2.048 0.672 0.64 0 1.92-2.176 2.432-3.584 0.096-0.224 1.024-0.768 1.248-1.28-0.032-0.064-0.096-0.096-0.128-0.192h-0.544c-1.28 0-2.304 2.016-4.544 2.016-0.544 0-0.448 0.352-0.992 0.352-0.768 0-1.504-0.352-1.504-1.536 0-0.48 0.064-1.28 0.064-1.728 0-0.96-0.288-1.568-0.992-2.144-0.256 0-0.608 0.288-1.024 0.896 0.032 0.16 0.032 0.32 0.032 0.512 0 0.416-0.288 1.728-0.832 3.904l-0.352 0.384c-0.064 0.032-0.288 0.032-0.64 0.032s-1.568-0.672-3.616-2.048l-0.672-0.64h-1.216l-0.224 0.16c0.032 0.032 0.032 0.192 0.032 0.512 0 0.896 1.248 3.328 2.336 4.48v1.152l-0.832 0.768c-0.096-0.064-1.44-0.384-2.016-0.992-0.544 0.672-1.088 0.992-1.696 0.992-0.64 0-1.152-0.352-1.28-0.352l-0.576 0.512c0.192 0.128 6.4 3.136 6.4 3.712 0 0.32-0.448 0.96-1.312 1.888l-2.24 2.208c-0.736 0.736-1.472 1.12-2.176 1.12-0.864 0-2.048-0.544-2.336-1.184 0.608-0.672 2.976-2.176 3.68-2.848-0.288-0.16-0.64-0.224-1.12-0.224-0.288 0-2.016 0.16-2.88 0.16 0.416-0.928 0.832-1.632 1.312-2.112l-1.248-1.056c-0.512-0.416-0.768-0.8-0.768-1.152 0-0.736 0.256-1.824 0.736-3.328 1.216 0 2.144 0.096 2.752 0.32 0.224-0.32 0.352-0.608 0.352-0.832 0-0.384-1.056-1.312-1.12-1.984 0.192-0.032 0.384-0.032 0.544-0.032 0.48 0 1.6 0.224 2.144 0.224-0.16-0.224-2.048-2.176-2.048-2.784 0-0.576 0.224-0.928 0.448-1.152 1.312-0.928 2.592-1.824 3.36-2.88h1.184c0.352 0.704 0.928 1.728 1.664 3.040 0.768 0 0.768-0.064 0.768-0.704 0-0.864-0.704-2.272-1.696-3.072 2.304-0.192 4.544-0.288 6.752-0.288 0.64 0 0.512-0.672 1.184-0.672 1.12 0 1.696 0.48 1.696 1.408 0 0.416-0.384 2.336-0.384 2.72 0 0.416 0.096 0.736 0.32 0.928 0.448-0.8 1.12-1.92 2.048-3.36 0.416 0.48 0.992 1.12 1.792 1.952 0.352 0.032 0.896 0.096 1.696 0.224 0.224 0.416 0.64 1.088 1.248 1.952 0.032 0.096 0.064 0.192 0.064 0.288 0 0.288-0.736 1.12-0.736 1.984 0 0.128 0 0.224 0.032 0.32 0.224-0.224 0.768-0.576 1.632-0.992 0.32 0.256 0.576 0.384 0.8 0.384v1.536c-0.672 0.416-1.664 1.088-2.976 1.952l0.544 0.512c0.672-0.096 1.952-0.448 3.776-0.992v1.216c-0.128 0.128-1.504 0.512-1.632 0.64 0.16 0.64 1.6 1.92 2.016 2.72z"></path>
</svg>
