<!-- Generated by IcoMoon.io -->
<svg version="1.1" xmlns="http://www.w3.org/2000/svg" width="32" height="32" viewBox="0 0 32 32">
<title>r</title>
<path d="M26.848 8.224h-0.608c-1.632 0.96-4.288 1.984-7.968 3.040-0.512-0.736-0.768-2.080-0.768-4.032-0.896-1.312-1.504-3.008-2.016-4.672l-0.512-0.192v1.12c-0.032 0-0.768 3.904-0.8 4.64l0.064 1.632c-0.032 0.704-0.192 1.248-0.48 1.664h-0.448c-2.976-1.632-5.664-2.72-8.128-3.232 0.512 0.576 1.248 1.344 2.176 2.272 0.416 0.224 0.928 0.512 1.504 0.928 0.16 0.416 0.448 0.96 0.832 1.568l1.248 0.96c0.544 0.448 0.832 0.8 0.832 0.896 0 0.192-6.016 6.080-6.4 6.496 0.096 0 0.448 0.256 0.8 0.256 0.672 0 1.728-0.384 3.232-1.12 0.16-0.192 0.384-0.384 0.672-0.608 1.024-0.256 3.36-1.312 3.36-1.312 0.256 0 0.448 0.096 0.576 0.32 0.32 1.632 0.992 3.328 1.6 5.152l0.448 1.344c0.192 0.576 0.416 0.896 0.64 0.992 0.544-2.336 0.928-4.576 1.152-6.784l0.256-0.32h0.48c2.016 1.184 4.224 2.368 6.56 3.52 0.16 0 0.384-0.032 0.608-0.032s0.448 0.032 0.736 0.032c-0.416-0.448-0.896-1.024-1.44-1.76l-1.216-1.664c-2.336-1.984-3.904-3.424-3.904-4.096 0-0.32 0.96-1.248 2.848-2.752l3.008-2.368c0.704-0.64 1.056-1.248 1.056-1.728v-0.16zM28.832 7.968c0 0.512-0.896 1.568-2.688 3.136-1.76 1.568-2.656 2.528-2.656 2.912 0 0.672 1.056 0.704 1.952 0.832v1.152c-0.128 0.128-0.32 0.192-0.544 0.192s-0.832-0.128-1.088-0.128c-0.352 0-0.608 0.128-0.832 0.416 0.224 0.384 1.952 1.952 2.208 2.272 2.080 2.784 3.104 4.256 3.104 4.48 0 0.608-0.576 1.152-1.152 1.152-0.352 0-2.368-0.832-6.016-2.464l-0.288 0.256c0.544 0.512 1.728 2.976 2.656 3.52l-0.192 1.696h-0.64c-0.16-0.576-0.48-1.344-0.992-2.304-0.64-0.736-1.632-1.536-3.008-2.464l-1.088 5.088c-0.16 0.288-0.448 0.416-0.928 0.416-0.608 0-1.056-0.288-1.28-0.864l-0.64-1.664c-0.224-0.8-0.704-2.048-1.44-3.68-0.704 1.088-2.656 4.736-3.36 5.856-0.384-0.16-0.832-0.736-0.832-1.056 0-0.48 0.224-0.992 0.64-1.6 1.184-1.664 1.024-1.696 1.888-3.776-0.096 0-0.128-0.16-0.48-0.16-0.16 0-1.12 0.256-2.88 0.8l-4.416 1.344c-0.416-0.32-0.608-0.608-0.608-0.896 0-0.704 1.312-2.176 3.936-4.448 0.224-0.384 0.608-0.96 1.216-1.696 0-0.736-2.208-0.608-3.488-0.608l-0.224-0.224v-0.8c0.352-0.384 0.832-0.576 1.408-0.576 0.352 0 1.152 0.064 2.368 0.192 0.096-0.096 0.128-0.192 0.128-0.352 0-0.224-0.448-0.736-1.376-1.536l-1.6-1.376c-0.48-0.544-1.376-1.984-2.016-3.2v-0.608c0.544-0.256 1.024-0.384 1.44-0.384-0.064 0 3.808 1.312 4.352 1.408 0.032 0 0.352 0.544 0.704 0.544h0.864c0.064-0.096 0.096-0.192 0.096-0.352 0-0.256-0.992-2.048-3.008-5.408v-0.608l0.416-0.384c0.896 0 2.016 2.24 4.128 5.664 0.672-0.48 0.704-2.048 0.832-3.456 0-0.032 0.64-1.984 0.64-2.592 0-0.16 0-0.288-0.032-0.416 0-0.096 0.288-0.448 0.832-0.992h0.96c0.16 0.416 1.664 5.504 2.656 7.136 0.704 0 2.016-2.176 4-5.696h0.64c0.16 0.16 0.224 0.384 0.224 0.704 0 0.416-1.024 2.624-3.040 6.656 0.032 0.032 0 0.256 0.352 0.256-0.032 0 1.056-0.384 3.328-1.152s3.584-1.152 3.968-1.152 0.896 0.576 0.896 0.992z"></path>
</svg>
