<!-- Generated by IcoMoon.io -->
<svg version="1.1" xmlns="http://www.w3.org/2000/svg" width="50" height="32" viewBox="0 0 50 32">
<title>s</title>
<path d="M15.808 10.336l-0.64 0.256v-0.32l0.512-0.256zM21.216 21.568c0-0.544-0.096-0.928-0.256-1.12-0.128 0.16-0.224 0.352-0.32 0.576zM39.68 25.696l-0.256-0.224-0.736 0.768 0.192 0.224zM32.096 19.904c0-0.416-0.288-0.896-0.288-0.992-0.16 0.608-0.416 1.408-0.736 2.432 0.672-0.704 1.024-1.184 1.024-1.44zM44.672 18.56c-0.224-0.48-0.64-0.864-1.28-1.152 0.224 0.576 0.48 1.344 0.768 2.304 0 0.48 0.064 1.184 0.224 2.080zM15.328 22.976c-2.4-1.376-4.992-2.912-6.368-2.912v0.768c0.32 0.32 3.712 2.048 4.16 2.048 0.384 0 0.288-0.224 0.672-0.224s0.768 0.768 0.992 0.896zM25.024 6.144c-0.128 0.416-0.224 1.024-0.288 1.76-0.16 1.824-0.416 1.632-1.12 3.072-0.672-0.992-0.992-1.728-0.992-2.208 0-0.416 1.344-2.624 1.376-2.624v0h1.024zM42.464 11.488c-1.888-2.272-3.456-4.608-5.248-4.672 0 0.16-0.16 0.256-0.48 0.288 0.352 0.512 0.832 0.96 1.44 1.344 2.336 1.44 3.456 3.392 3.968 5.184zM13.568 24.96c-1.248-1.024-4.256-2.784-4.128-2.72 0 0.128-0.16 0.224-0.512 0.288 1.312 2.656 2.144 3.456 3.424 3.456 0.896 0 1.056-0.224 1.216-1.024zM17.312 22.432v-0.8c-0.896-0.48-1.632-1.152-2.24-2.048-0.128 0-0.544 0.224-0.96 0.224-0.224 0-0.416-0.128-0.64-0.416-1.024-1.408-3.008-1.792-3.424-1.792-0.608 0-1.088 0.224-1.088 1.056 2.24 0.832 3.936 1.6 5.12 2.304l1.248 0.896c0.512 0.384 0.864 0.576 1.024 0.576h0.96zM19.712 20c-1.92-1.12-2.976-2.368-3.2-3.776-1.344-0.896-2.464-1.792-3.392-2.688 0.288-0.672 0.672-1.024 1.12-1.024s3.424 3.040 4.32 4.32c0.16 0.512 0.544 1.216 1.152 2.144v1.024zM31.68 4.064c-0.16-0.096-2.72-1.92-2.976-1.92-0.384 0-0.416 0.448-0.8 0.448-0.224 0-0.32-0.032-0.352-0.128v-0.224l-1.376-0.192c-0.576-0.064-0.96-0.096-1.12-0.128-0.928 0-1.664 0.128-2.144 0.32-0.864 0.384-2.848 0.992-2.848 1.12 0 0.096 0.064 0.224 0.192 0.32 0.736 0 3.744-0.224 3.84-0.224 0.032 0.032 2.528 0.224 7.584 0.608zM41.792 21.728v-1.024l-2.176 1.728c-0.928 0.736-1.472 1.12-1.664 1.12-0.256 0-0.384-0.032-0.384-0.096l0.064-0.064v-0.576c0.864-0.736 2.112-1.824 3.744-3.328l-0.288-0.768c-0.416 0.224-1.376 0.896-2.816 2.080-1.76 1.44-2.624 2.368-2.624 2.88v0.736c0.352 0 1.28-0.608 1.376-0.64 0.064 0.192 0.096 0.416 0.096 0.768 0 0.32-0.032 0.736-0.096 1.216 1.92-1.376 3.52-2.72 4.768-4.032zM34.304 8.128h-0.832c-0.128 0.288-2.592 4.128-3.072 5.568-1.056 3.168-1.6 5.536-1.6 7.104 0 0.864 0.16 1.504 0.48 1.856 0.192-1.088 0.576-2.656 1.12-4.704 0.096-0.288 0.288-0.64 0.608-1.088 0.832-1.184 0.8-1.44 1.184-3.168 0.416-1.952 0.096-1.952 1.824-3.904l-0.224-0.48c-0.064-0.128-0.128-0.224-0.128-0.288 0-0.032 0.032-0.064 0.032-0.096 0.416-0.544 0.608-0.8 0.608-0.8zM44.448 22.88h-0.352c-1.856 2.656-4.576 4.864-6.24 4.864-0.384 0-0.928 0.448-1.216 0.448-0.896 0-1.696-0.544-1.696-1.216 0-0.352 0.16-0.704 0.48-1.12-0.544-0.512-0.96-0.768-1.312-0.768-1.344 0-2.016 0.672-2.016 1.984 0 1.28 1.216 2.432 2.784 2.432h1.216c0.416 0 0.576-0.192 0.8-0.352 3.456-0.192 7.36-3.072 7.552-6.272zM40.288 14.176c0-0.64-0.032-0.992-0.128-1.088-0.608-0.608-1.248-1.312-1.728-2.24l-1.088-2.048h-0.8l0.64 0.736c-0.128 0.16-0.416 0.192-0.576 0.32-0.16-0.096-0.704-0.128-1.632-0.128 0.608 0.288 1.056 0.608 1.344 0.96 0 0.288-0.384 1.088-0.384 1.376 0.192-0.256 1.44-0.928 1.6-1.088 0.288 0.128 0.544 0.448 0.768 0.96-0.512 0.608-2.944 2.784-3.456 3.488-2.88 4.096-2.944 5.504-2.944 6.176 0 0.384 0.064 0.608 0.32 0.64l1.056-2.848c0.416-1.152 0.864-2.048 1.28-2.72 0.736-1.184 3.936-3.712 4.384-3.712 0.48 0 0.768 0.16 0.896 0.512-0.352 0.16-0.992 0.256-1.024 0.288-0.096 0.48-0.256 0.8-0.48 0.928-2.496 1.408-2.56 2.304-4.448 5.856v1.664h0.832c0.288-0.96 0.928-1.92 1.92-2.88l2.432-2.304c0.8-0.928 1.216-1.856 1.216-2.848zM30.56 25.984c0-0.256-0.48-1.536-0.48-1.728-1.76 0-8.288 0.448-10.080 0.448v3.040h2.272c0.16 0 2.112 0.224 2.336 0.224 0.384 0 0.832-0.448 1.216-0.448 0.448 0 1.408 1.12 1.664 1.12 0.416 0 0.512-0.224 0.64-0.384-0.192 0-0.416-0.128-0.672-0.352 2.080-0.288 3.104-0.928 3.104-1.92zM18.208 25.44l-0.544-0.576c-0.288 0.16-0.736 0.32-1.344 0.448l-1.408 0.288c0.032 0.16 0.064 0.32 0.064 0.48 0 1.248-0.544 1.888-1.632 1.888-0.288 0-1.696-0.608-4.256-1.824-0.8-0.384-2.784-4.928-2.784-6.112 0-1.088 0.544-2.4 1.76-3.616l-0.288-0.8-1.312 0.448c-0.608 0.288-0.96 0.672-1.056 1.088 0 0.352 0.704 0.096 0.896 0.288v0.224l-0.8 0.256c-0.352 1.024-0.544 1.952-0.544 2.752 0 0.64 0.576 1.344 0.576 1.472 1.12 4.576 5.024 7.136 10.912 7.136 0.288 0 1.216-0.448 1.504-0.448 0-0.256-0.096-1.216-0.096-1.984 0-0.704 0.128-1.088 0.352-1.408zM30.56 7.648c0-0.16-0.448-2.080-0.448-2.368-1.216-0.16-2.688-0.256-4.416-0.256-0.224 0-2.72 0.48-3.168 0.512-1.28 0.992-1.44 1.312-1.44 2.336 0 0.64 2.432 5.952 2.496 6.144 0.704 0.352 0.512 1.28 0.64 2.592 0.128 0.704 1.216 4.192 1.312 4.928 0.128 0 0.32-0.096 0.608-0.256-0.32-0.608-0.544-1.408-0.672-2.336-0.384-3.008-0.416-2.848-0.416-2.912 0-0.032 0.032-0.096 0.032-0.48 0.288-0.64 0.448-1.312 0.448-1.984 0-0.32-0.032-0.608-0.128-0.832-0.448 0.448-0.736 0.672-0.864 0.672 0-0.032-0.384-0.512-0.384-0.992 0-0.064 0.512-1.888 1.6-5.504 0.192-0.672 0.576-1.024 1.056-1.024 0.416 0 0.576 0.192 0.672 0.192v0.992c0 0.032-1.984 3.936-1.984 4 0 0.48 0.288 0.576 0.544 0.8 0.288-0.352 0.64-1.216 1.12-2.56 0.352-1.056 0.992-1.888 1.952-2.528l0.352 0.384c0 1.536-1.248 3.296-2.176 5.216-0.32 1.92-0.48 4-0.48 6.208 0 0.8 0.224 1.792 0.672 2.976 0.064-0.256 0.096-0.704 0.096-1.312 0-1.088-0.096-1.92-0.096-2.304 0.032-0.16 1.12-3.712 1.184-4.192l0.16-1.312c1.504-1.952 1.728-4.768 1.728-4.8zM24.128 21.952c-0.32-0.864-0.64-2.016-0.992-3.52-0.896-3.84-1.248-4.576-2.656-5.888v0.544c0.096 0.032 0.16 0.16 0.16 0.32-0.032 0.192-0.128 0.352-0.32 0.448l-0.256-0.256c-0.544-0.544-0.864-0.992-0.992-1.376 0.128-0.128 0.672-0.352 0.672-0.512l-0.672-1.536c-0.352-0.8-0.8-1.184-1.184-1.184-0.704 0-1.664 0.16-2.912 0.512-0.256 0.096-0.832 0.8-1.184 0.8-0.48 0-1.12-0.736-1.12-1.152 1.248-0.992 2.208-1.824 2.88-2.528l-1.664-0.288-2.624 1.984c-0.896 0.864-1.44 1.984-1.664 3.36 0.224 0.096 0.384 0.128 0.512 0.128 0.352 0 0.704-1.504 2.016-1.504 0.288 0 0.544 0.128 0.8 0.384v0.576c-0.224 0.288-0.48 0.672-0.832 1.088 0 0.16 0.16 0.8 0.16 0.96l-0.128 0.32 0.128 0.192c-0.16 0.288-0.256 0.512-0.256 0.704 0 0.384 3.872 2.784 7.456 8.352l0.128-1.984c0.16-0.672 0.672-1.056 1.472-1.152-0.192-0.256-1.824-3.68-2.752-4.48-1.472-1.216-2.528-2.464-3.2-3.712 0.16-0.16 0.448-0.224 0.608-0.352 1.248 0.32 4.576 3.616 5.28 5.44l1.248 3.264c0.608 1.28 1.216 1.952 1.888 2.048zM46.912 18.272c0 0.128-0.096 0.448-0.32 0.992 0.096 0.544 0.128 1.088 0.128 1.632 0 2.848-0.928 5.184-2.816 6.976-0.448 0.416-1.44 0.992-3.040 1.728-1.056 1.408-3.872 1.664-5.76 1.664-1.056 0-1.664 0-1.824-0.032-0.416-0.128-2.080-1.952-2.272-1.952 0.16 0-5.856 0.672-5.856 0.672v0c0.128 0-4.928-0.224-4.864-0.224-0.288 0-0.608 0.128-1.024 0.384-1.184 0.704-1.92 1.152-4.032 1.152-0.128 0-2.528-0.768-2.848-0.8h-0.32c-0.224 0-0.48 0.032-0.8 0.032-0.64 0-1.408-0.128-2.080-0.896-1.216-1.344-0.928-1.024-1.952-1.472-1.76-0.64-2.56-1.472-3.968-4.416-0.032-0.096-0.064-0.832-0.064-2.24 0-3.36 0.48-3.36 1.344-6.688 1.536-0.64 2.72-0.672 2.816-2.528 0.096-1.888 0.032-1.888 1.952-4.096l0.128-0.896c2.272-1.952 4.224-2.912 5.792-2.912 0.352 0 1.088 0.224 1.44 0.224 0.192 0 0.448-0.288 0.768-0.832l0.864-1.504c0.608-0.352 1.536-0.8 2.848-1.344 1.696-0.352 3.456-0.512 5.344-0.512 0.352 0.032 1.056 0.096 2.080 0.256 2.4 0.416 2.464 0.192 5.408 2.080 0.448 1.632 0.672 2.528 1.664 2.528 0.288 0 1.28-0.448 1.76-0.448 0.832 0 3.072 0.512 3.84 2.016 0.864 1.728 1.408 1.824 3.136 4 0.224 0.32 0.32 1.088 0.32 2.144 0 0.416-0.288 1.024-0.896 1.856l1.952 1.92c0.8 0.768 1.12 1.344 1.152 1.536z"></path>
</svg>
