<!-- Generated by IcoMoon.io -->
<svg version="1.1" xmlns="http://www.w3.org/2000/svg" width="67" height="32" viewBox="0 0 67 32">
<title>semicolon</title>
<path d="M64.96 14.592l-5.632 0.16c-2.24 0.064-4.096 0.288-5.536 0.704-1.536 0.448-6.208 2.368-7.456 2.752-0.416-1.088-3.456-3.552-4.704-3.552-2.016 0-6.24 3.328-7.52 5.664-0.512-0.224-1.152-0.736-1.92-1.536-2.784-2.784-3.296-3.136-5.088-3.712v-1.088l1.344-0.416c0.544-0.16 0.96-0.384 1.28-0.608 0.032-0.032 4.032-4.48 4-4.48 0.16 0 0.672 0.48 1.536 1.376 2.784 2.944 4.256 3.84 6.048 3.84 1.856 0 3.552-1.408 5.024-4.256 0.192 0 1.312 0.352 3.328 1.056 6.56 2.272 9.568 3.008 12.352 3.008 1.28 0 2.272-0.224 2.944-0.704v1.792zM26.56 13.984l-0.512 1.056c-1.632 0.096-3.2 1.408-4.704 3.872-0.576 0.032-1.216-0.16-1.92-0.672-2.912-2.016-5.792-2.496-9.248-2.784-1.024-0.064-3.584-0.128-7.712-0.128l-0.256-1.088c1.28-0.416 2.848-0.64 4.768-0.64 0.768 0 3.52 0.096 4.32 0.096 0.352 0 0.864-0.096 1.536-0.32 2.24-0.768 3.456-0.704 6.432-2.336l1.632-0.896 2.24 1.696c1.536 1.184 2.688 1.92 3.424 2.144z"></path>
</svg>
