<!-- Generated by IcoMoon.io -->
<svg version="1.1" xmlns="http://www.w3.org/2000/svg" width="145" height="32" viewBox="0 0 145 32">
<title>seven</title>
<path d="M65.568 15.52c-0.032 0.032-0.064 0.032-0.128 0.032-0.32 0-1.728-0.608-1.952-0.608-0.384 0-1.536 0.704-3.392 2.112s-2.976 2.112-3.392 2.112c-1.152 0-3.008-0.96-4.224-2.176 0.544-0.192 1.408-0.8 2.656-1.728 3.648-2.688 4.352-3.136 5.568-3.136 1.92 0 4.736 1.76 4.864 3.392zM117.536 14.368c-0.8 0.352-1.696 0.96-2.656 1.824l-2.24 2.048c-0.832 0.64-1.632 0.96-2.368 0.96-1.152 0-2.464-0.736-3.936-2.208 0.416-0.16 1.76-1.184 4.064-2.976 2.016-1.568 3.264-2.336 3.68-2.336 0.928 0 2.080 0.32 3.456 1.024v1.664zM105.856 15.52h-0.128c-0.224 0-2.112-0.576-2.432-0.576-0.16 0.032-0.672 0.384-1.408 1.088-2.528 2.432-3.712 3.136-5.152 3.136-0.48 0-0.992-0.128-1.568-0.352l-1.44-0.704c0-0.576 0.032-0.896 0.128-1.024 0.32-0.384 1.824-1.6 1.824-1.6l1.728-1.792c1.184-1.248 2.176-1.536 4.032-1.568 2.016 0 3.776 1.472 4.416 3.392zM92.288 15.84c-0.512-0.032-1.216-0.48-2.112-1.376-4 3.808-5.152 4.704-6.528 4.704-0.512 0-1.088-0.16-1.792-0.576l-1.696-0.96c0-1.728 0.96-1.76 2.944-2.944l2.464-2.016c0.928-0.672 1.92-0.992 2.976-0.992 2.144 0 3.744 1.888 3.744 4.16zM79.136 15.808c-0.064 0.032-0.16 0.032-0.224 0.032-0.64 0-1.44-0.448-2.336-1.376l-3.104 2.688c-1.632 1.344-2.688 2.016-3.168 2.016-1.792 0-4.192-1.92-4.192-3.712 0-0.192 0.064-0.224 0.16-0.224 0.224 0 0.512 0.128 0.992 0.672 1.184-0.608 6.848-4.192 8.992-5.152 0.032 0.864 1.248 2.304 2.88 3.36v1.696zM142.816 15.872c-3.84 0.608-7.904 0.928-12.192 0.928-4.736 0-8.288-0.448-10.688-1.344l0.608-0.736c0.8-0.032 14.272-0.672 19.552-0.672 0.96 0 1.856 0 2.72 0.032v1.792zM24.832 16.192c-0.32 0.32-3.776 0.672-10.368 0.992-3.808 0.192-7.616 0.384-11.456 0.544-0.736-0.576-1.12-1.184-1.12-1.792 0-0.576 0.384-1.248 1.152-1.92 0.992 0.448 2.816 0.672 5.472 0.672 4.064 0 8.224-0.512 12.288-0.512 3.456 0 4.032 0.288 4.032 1.824v0.192zM52.48 15.136c-0.128 0.448-0.384 0.864-0.704 1.216-0.288-0.288-1.6-1.12-1.888-1.408l-3.296 2.688c-1.76 1.344-2.912 1.984-3.456 1.984-0.448 0-1.632-0.704-3.424-2.080-1.856-1.408-2.912-2.112-3.36-2.112-0.672 0-1.44 0.32-2.112 1.056l-1.792 1.952c-0.768 0.704-1.6 1.056-2.464 1.056-1.024 0-2.176-0.48-3.552-1.376-0.128-0.448-0.192-0.864-0.192-1.184 0-0.384 0.064-0.736 0.224-1.024 0.256 0.288 0.576 0.448 0.928 0.448 0.576 0 1.344-0.416 2.304-1.216l2.496-2.272c0.896-0.8 1.6-1.184 2.048-1.184 1.024 0 3.136 1.696 6.368 5.12l3.808-3.168c1.248-1.024 2.368-1.536 3.296-1.536 1.408 0 3.008 1.024 4.768 3.040z"></path>
</svg>
