<!-- Generated by IcoMoon.io -->
<svg version="1.1" xmlns="http://www.w3.org/2000/svg" width="84" height="32" viewBox="0 0 84 32">
<title>six</title>
<path d="M28.32 13.408c-1.248-1.504-2.496-2.848-2.944-2.848-0.128 0-8.096 2.944-7.68 2.816 1.088 0 4.8 0.416 5.792 0.416 0.96 0 4-0.384 4.832-0.384zM46.656 13.344c-1.28-1.056-2.912-2.592-4.896-4.544-0.32 0.608-0.736 1.216-1.28 1.728-0.576 0.576-2.72 2.048-3.264 2.592 0.864 0.128 1.888 0.16 3.040 0.16 1.44 0 3.776-0.064 4.16-0.064 0.224 0 1.536 0.224 1.792 0.224 0.192 0 0.352-0.032 0.448-0.096zM81.76 15.232c-1.44-0.192-2.88-0.32-4.416-0.32-6.208 0-12.672 1.696-19.328 5.088-2.88-3.296-5.504-4.928-7.872-4.928-2.816 0-5.376 2.304-7.68 6.976-0.448-0.32-1.408-1.248-2.88-2.784-3.424-3.488-5.184-4.576-6.976-4.576-1.28 0-2.432 0.48-3.488 1.376-0.544 0.448-3.008 3.936-3.904 3.936-1.408 0-9.856-3.584-11.104-4-2.848-0.928-5.376-1.408-7.616-1.408-1.568 0-3.008 0.256-4.352 0.672v-2.048c1.088 0.096 2.336 0.128 3.68 0.128 9.344 0 16.672-1.728 19.072-4.544h1.024c1.792 3.136 3.872 4.704 6.208 4.704 3.008 0 6.496-2.72 9.6-7.36 0.864 0.16 1.632 1.344 2.272 3.552 0.896 0.736 1.76 1.504 2.624 2.272 1.408 1.248 2.368 1.504 5.632 1.824l2.528-1.184c0.832 1.024 2.592 1.536 5.248 1.536 1.536 0 3.36-0.16 5.504-0.512-1.376-0.8-3.616-1.728-6.624-2.784l-2.72 1.76-0.384-0.736c0.992-1.216 1.728-2.24 2.144-3.072h0.928c5.152 3.392 8.928 4.48 17.12 4.48 0.544 0 1.408-0.032 2.624-0.032h2.816z"></path>
</svg>
