<!-- Generated by IcoMoon.io -->
<svg version="1.1" xmlns="http://www.w3.org/2000/svg" width="30" height="32" viewBox="0 0 30 32">
<title>t</title>
<path d="M16.544 20.032h-0.992v1.728l0.672 0.32c0.224-0.416 0.32-1.12 0.32-2.048zM16.832 3.872c0-0.608-1.152-1.568-1.824-1.568-0.416 0-0.736 0.192-0.864 0.608l-0.448 1.376c0.608 0.576 1.152 0.864 1.696 0.864 0.672 0 1.44-0.64 1.44-1.28zM27.232 18.688c0 0.224-0.224 0.704-0.576 1.44l-0.928 1.856c-0.064 0.16-0.096 0.416-0.096 0.768v0.992c0 0.8-0.192 1.376-0.576 1.696-1.024-0.416-1.248-2.496-1.6-2.848-0.768 0.672-2.048 2.72-3.104 4.32-1.12 1.664-3.2 2.56-6.048 2.688-0.32-0.384-1.952-2.048-4.928-4.96v0c0-0.128-0.96-2.688-1.472-2.848-0.32 0.96-0.48 1.76-0.48 2.432v0.16c-0.224 0-0.512 0.192-0.864 0.544-0.416-0.352-0.608-0.896-0.608-1.632 0-0.352 0.224-1.824 0.224-2.432v-0.192c-0.032-0.352-1.024-2.624-1.024-2.912v-1.12h1.632c0.256 0.064 0.928 0.48 2.048 1.472l2.528 2.304c-0.16 0.064-0.672 0.48-1.568 1.28 0.864 0.992 3.424 3.072 3.84 3.52 0.704 0 0.768-2.208 0.768-2.784 0-0.672-0.384-1.024-0.384-1.408 0-0.064 0.032-0.096 0.032-0.16 0.256-1.664 0.704-7.84 0.704-9.056 0-1.44-0.064-2.464-0.224-3.040h-0.544c-0.768 0-1.792 0.032-3.072 0.032h-2.528c-0.96 0-1.952-1.12-1.952-1.824 0-0.416 0.288-0.64 0.288-0.992 2.144-0.352 3.904-0.544 5.216-0.544 0.064-0.256 0.096-0.64 0.096-1.12 0-0.96-0.096-1.728-0.096-2.144 0-0.128 0.032-0.224 0.032-0.32 1.344-1.088 2.432-1.632 3.296-1.632 1.248 0 2.624 1.248 3.264 2.688 0 0-0.032 0.16-0.032 0.384 0 0.64 0.096 1.856 0.544 1.856 0.416 0 1.408-0.512 1.824-0.512 0.512 0 4.032 0.768 4.032 2.208 0 0.992-0.896 1.696-1.824 1.696-1.216 0-1.408-1.568-3.008-1.568v0c0 0.128-1.568 1.536-2.72 2.272l0.768 9.792v5.184c0.16 0.224 0.256 0.448 0.8 0.448 0.416 0 2.784-2.208 2.88-2.272v-0.672c-0.576-0.32-1.088-0.48-1.536-0.48v-1.216l3.136-1.088c1.216-0.416 2.208-0.864 2.944-1.28 0.384 0.224 0.896 0.416 0.896 1.024z"></path>
</svg>
