<!-- Generated by IcoMoon.io -->
<svg version="1.1" xmlns="http://www.w3.org/2000/svg" width="30" height="32" viewBox="0 0 30 32">
<title>three</title>
<path d="M23.936 16.736c-0.416 0.288-0.96 0.64-1.696 1.088-0.704-0.704-1.12-1.056-1.216-1.056 0 0.224 0.096 0.48 0.288 0.832 0.32 0.544 0.48 0.832 0.48 0.864l-1.088 1.184c0.128 0 0.832-0.48 1.376-0.48s1.056 0.608 1.536 1.088zM11.392 4.928v-1.312c-1.216-0.736-2.112-1.12-2.72-1.12-1.568 0-3.84 3.328-3.84 4.768 0 0.992 0.512 1.504 1.504 1.504 0.896 0 1.344-0.448 1.344-1.312 0-0.416-0.256-1.92-0.256-2.144 0-0.16 0.032-0.256 0.064-0.352 0.032 0 1.696 0.8 2.272 0.8 0.48 0 1.024-0.288 1.632-0.832zM25.344 7.552c0-2.24-2.624-4.224-4.768-4.224-1.056 0-1.536 0.928-2.048 2.336 0.608 0.608 1.248 0.928 1.888 0.928 0.544 0 1.216-0.288 2.016-0.832 0.096 0.192 0.128 0.448 0.128 0.8s-0.096 1.28-0.096 1.664c0 1.12 0.416 1.664 1.248 1.664 0.8 0 1.632-0.832 1.632-2.336zM27.008 7.552c0 2.208-1.728 3.68-3.968 3.68-0.448 0-1.088-0.64-1.952-1.888-3.168 2.72-4.768 4.384-4.768 5.056 0 0.48 1.024 1.728 1.824 2.88 0.544-0.32 1.184-0.864 2.016-1.568l2.048-1.728c0.928 0.544 1.824 1.536 1.824 2.272 0 0.096-0.032 0.192-0.064 0.288l1.376 0.736c0.768 0.416 1.12 0.896 1.28 1.28 0-0.064 0.032-0.096 0.064-0.096 0.032 0.064 0.032 0.192 0.032 0.448-0.032 0.256-0.384 0.8-1.152 1.568l-2.144 2.144c0.32 0.608 0.864 1.216 1.632 1.824 0 0.448-0.192 0.864-0.608 1.28h-0.928l-8.416-10.112-8.704 9.568h-0.928l-0.32-0.288c-0.032-0.064-0.032-0.224-0.032-0.512 0-0.352 1.088-1.696 1.088-2.048 0-0.224-0.512-0.896-1.504-1.984-0.992-1.12-1.504-1.76-1.504-1.984 0-0.288 0.608-1.024 1.792-2.208 0.32 0.512 0.896 1.184 1.76 2.048-0.384 0.288-0.832 0.736-1.376 1.344l0.448 0.448c0.256-0.352 0.512-0.832 1.056-0.832s1.088 0.288 1.632 0.832c0.032-0.096 0.064-0.16 0.064-0.256 0-0.384-0.48-1.568-0.48-1.6 0-0.096 0.192-0.512 0.576-1.28v-0.064c0-0.096-0.064-0.256-0.192-0.384-0.096 0-0.512 0.384-1.312 1.12l-1.792-1.76c0.224-0.352 0.576-0.736 1.056-1.184l1.28-1.152c0.736 0.448 1.216 0.992 1.44 1.6 0.192 0.96 0.16 2.048 1.536 2.496 0.8-0.576 2.080-1.984 3.168-3.136-1.056-1.248-2.656-3.2-4.8-5.888-0.384 0.128-0.64 0.352-0.736 0.64-0.416 0.96-0.704 0.992-1.984 0.992-1.472 0-2.592-1.536-2.592-3.008 0-2.496 2.432-5.472 5.056-5.472 2.368 0 3.968 1.12 3.968 2.88 0 1.44-0.16 1.728-3.296 2.24 1.248 1.376 3.040 3.52 5.376 6.368 0.64-0.544 1.44-1.312 2.4-2.304l2.624-2.752-1.632-1.248c-0.576-0.416-0.832-0.96-0.832-1.632 0-1.792 1.888-3.008 4.512-3.008 0.544 0 2.784 1.408 3.84 2.528 0.256 0.288 1.248 1.952 1.248 2.816z"></path>
</svg>
