<!-- Generated by IcoMoon.io -->
<svg version="1.1" xmlns="http://www.w3.org/2000/svg" width="12" height="32" viewBox="0 0 12 32">
<title>two</title>
<path d="M4.928 9.28v-0.736h-0.48v0.736h0.48zM7.008 5.408v-0.928s-1.376-0.864-1.6-0.864v1.44c0 0.512 0.512 0.736 0.512 0.864 0 0.704-0.256 4.384-0.256 4.416v9.216c0 0.288-0.16 0.672-0.448 1.184l-0.64 1.088c0.48 0.256 0.928 0.384 1.408 0.384 0.192 0 0.352-0.032 0.48-0.096-0.16-4.448-0.256-7.296-0.256-8.544 0-0.864 0.16-4.224 0.16-5.696v-0.608c0-1.152 0.544-1.856 0.64-1.856zM8.64 10.304v13.76l-3.392-0.096c-0.8-0.032-1.472 0.064-1.984 0.128-0.096-0.16-0.128-0.64-0.128-1.472 0-4.512 0.064-7.52 0.064-9.056 0-1.12 0.352-5.12 0.352-5.728l0.608-0.064c0.288-0.032 0.416-0.224 0.416-0.512s-1.088-2.144-1.088-2.432c0-1.184 1.504-3.168 2.848-3.168 1.472 0 2.592 1.568 2.592 3.168 0 1.184-0.384 1.856-1.152 2.016l-0.48 0.448c1.536 1.248 1.632 1.312 1.632 2.24 0 0.16 0.16 0.608-0.288 0.768z"></path>
</svg>
