<!-- Generated by IcoMoon.io -->
<svg version="1.1" xmlns="http://www.w3.org/2000/svg" width="43" height="32" viewBox="0 0 43 32">
<title>u</title>
<path d="M32.48 8.224v-1.12h-0.416v1.12h0.416zM35.136 8.224l-0.544-1.408-0.352 0.128 0.544 1.28h0.352zM30.432 24.832c0-0.256-0.544-0.672-0.8-0.672-0.352 0-0.544 0.224-0.544 0.672h1.344zM9.504 5.856c0-0.672-0.032-1.056-0.064-1.152l-0.576-0.288v1.152zM3.616 12.8h-0.416v-1.856h0.416v1.856zM39.552 17.92v2.144c-0.096-0.192-0.64-0.864-0.64-1.344 0-0.544 0.224-0.8 0.64-0.8zM39.52 25.6c-0.416-1.248-0.608-2.176-0.608-2.784 0-0.192 0.192-0.704 0.608-1.568v4.352zM39.712 12.544h-0.416v-6.176h0.416v6.176zM34.528 21.344c-0.352-0.864-0.736-1.504-1.216-1.984h-1.824l-0.256 1.12c0.768 0.16 1.856 0.448 3.296 0.864zM4.256 26.72c-0.192 0.192-0.48 0.288-0.896 0.288v-8.032c0.16 0.16 0.352 0.384 0.576 0.704-0.064 0.672-0.064 1.344-0.064 2.048 0 1.568 0.128 3.232 0.384 4.992zM12.16 13.12c-0.064 0-0.128 0.032-0.192 0.032-0.992 0-1.824-1.44-2.72-2.72h-0.832l-0.256 0.32c-0.032 0.16-0.064 0.512-0.064 0.992 0 1.376 1.088 2.752 2.336 2.752h0.992c0-0.352 0.736-1.376 0.736-1.376zM28.032 9.664c-0.672-1.152-1.952-4.512-2.176-4.992h-0.864c0 0.416 0.16 0.768 0.448 1.056-0.384 0.384-0.704 0.832-0.928 1.344-0.096 0-0.288-0.256-0.768-0.256-0.512 0-1.216 1.28-1.216 1.824 0 0.32 0.128 0.608 0.384 0.832l1.184-1.088c0.544-0.512 0.992-0.832 1.216-1.088 1.152 1.12 2.048 1.92 2.72 2.368zM34.272 13.312c0.352-0.544 0.512-1.12 0.512-1.728s-0.16-1.088-0.512-1.376h-0.864c-0.064 1.312-1.184 2.4-2.336 2.4-0.608 0-1.248-0.448-1.984-1.312l1.024 1.792c0.448 0.8 0.832 1.184 1.088 1.184h1.088c0.48 0 0.608-0.704 0.768-1.216 0.384 0 1.12 0.256 1.216 0.256zM30.72 20.64c-0.16-0.16-0.416-0.672-0.576-0.832-1.28 0.64-1.984 0.96-2.080 0.96-1.408 0-3.872-0.992-3.872-2.208 1.024-0.256 4.256-1.76 4.832-1.952-0.352-0.352-0.512-0.64-0.512-0.864-0.48 0-1.376-0.512-1.76-0.512-0.32 0-0.576-0.128-0.8-0.384 0.032-0.352 0.384-1.344 0.384-1.856 0-0.448-0.416-1.824-1.408-1.824-1.408 0-2.176 0-2.176 1.216 0 0.416 0.192 1.888 0.192 2.272 0 0.768-0.8 2.272-1.472 2.272-0.992 0-1.824-1.312-1.824-2.528 0-0.544 0.16-1.28 0.48-2.208l-0.832-0.48c-0.352-0.192-0.64-0.32-0.832-0.32-0.352 0-0.96 0.256-1.856 0.768l-1.216 2.176c-0.032 0.064-0.576 2.304-1.12 2.592-0.096-0.096-0.256-0.128-0.512-0.128-0.192 0-0.48 0.032-0.832 0.096 0.64 0.448 0.96 0.896 0.96 1.344 0 0.96-0.128 1.824-0.416 2.56-0.384-0.096-2.56-1.472-2.848-1.472-0.48 0-0.608 0.32-0.832 0.544v1.792c0.8 0.544 1.504 0.8 2.176 0.8s1.536-0.192 2.624-0.544c-0.032-0.16-0.224-0.512-0.224-0.64 0-0.16 0.128-0.32 0.384-0.512h1.376c0.128 0.128 0.192 0.448 0.192 0.96h1.248c0.512 0 0.672-0.32 0.896-0.576-0.096-0.192-0.256-0.384-0.512-0.608l-0.704-0.576c0.352 0 0.544-0.256 0.576-0.768l0.096-1.568c0.064 0.032 0.736 0.672 2.016 1.952s2.080 1.92 2.368 1.92 2.208-1.216 2.4-1.216c-0.032 0 4.576 1.696 4.576 1.696 0.512 0 1.184-0.736 1.44-1.344zM38.4 26.464c-0.16 0.288-2.784 1.056-3.008 1.056h-13.056c-0.032 0-4.416-0.48-4.48-0.48 0.032 0-0.992 0.032-2.976 0.128-2.112 0.096-3.904 0.16-5.408 0.16-0.832 0-1.568-0.032-2.208-0.064-0.096 0-0.672 0.48-1.088 0.48-0.544 0-1.184-0.8-1.184-1.44 0-0.704 1.696-1.6 3.296-1.6 0.48 0 2.016 0.352 2.336 0.352l1.952-0.064h5.76c2.208 0 4.096-0.192 5.728-0.352l0.416-0.384c-0.128-0.032-0.352-0.128-0.64-0.256-0.224 0.032-0.512 0.032-0.864 0.032-0.736 0-1.696-0.064-2.88-0.16-1.952-0.16-2.912-0.224-2.848-0.224 0 0-4.352 0.736-4.32 0.736h-0.16c-0.384 0-1.376-0.032-3.008-0.032h-4.512v-2.112c0-2.496 0.16-2.464 2.464-4.96 0.224-0.032 0.608-0.096 1.12-0.256-0.288-0.512-0.864-1.152-1.664-1.952-0.032-0.032-0.736-0.576-2.112-1.568v-0.096c0-0.224 0.096-0.672 0.32-1.376-0.416-0.288-0.64-1.088-0.64-2.432 0-0.992 0.384-2.624 1.12-4.832 0.864-2.656 1.76-3.968 2.624-3.968 0.608 0 1.248 0.576 1.92 1.76 0.064 0.416 0.192 0.992 0.416 1.696 0.288 0.32 0.64 0.8 1.056 1.44 0 0.288-0.256 1.056-0.256 1.312 0 0.288 0.16 0.544 0.448 0.768 1.536-1.952 2.208-5.92 2.432-6.24 0.448-0.64 1.408-0.96 2.88-0.96 0.544 0 0.96 0.352 1.28 1.056v2.048c-0.128-0.032-0.256-0.032-0.416-0.032-1.312 0-3.488 1.632-3.648 2.816l0.192 1.344c0.608-0.288 1.12-0.768 1.6-1.472 1.536 1.44 1.472 1.504 2.112 1.696 0-0.416-0.16-1.216-0.512-2.464l0.576-0.416c0.704 0.448 1.44 1.152 2.176 2.144 0.288-0.288 1.024-1.28 1.984-3.072 0.192-0.352 0.512-2.528 0.64-2.816 1.12-0.544 1.984-0.832 2.56-0.832 0.736 0 1.248 0.544 1.568 1.664l0.384 2.016c-0.032-0.096 1.088 3.776 1.472 3.776 0.16 0 0.256-0.032 0.32-0.16 0.768-2.976 1.152-4.928 1.152-5.824 0-0.352-0.032-0.672-0.064-0.96 3.968 0 4.288 1.888 6.368 6.304 0.064 0.16 0.096 0.32 0.096 0.544 0 0.512-0.416 2.208-0.448 2.56 0.48 0.256 1.184 1.088 1.184 1.632 0 2.592-2.464 2.592-4.576 4.704 0.128 0.608 0.8 1.216 2.048 1.792 1.44 0.672 2.368 1.28 2.752 1.76v3.712l-0.352 0.32c-0.928-0.192-3.008-0.288-6.208-0.288l-0.416 0.416c0.096 0.32 0.352 0.544 0.736 0.608h-0.032c0-0.032 0.32-0.032 0.992-0.032 2.208 0 3.936 0.096 5.248 0.256 0 0.16 0.256 0.928 0.256 1.088z"></path>
</svg>
