<!-- Generated by IcoMoon.io -->
<svg version="1.1" xmlns="http://www.w3.org/2000/svg" width="27" height="32" viewBox="0 0 27 32">
<title>underscore</title>
<path d="M9.76 20.768h-0.128l-0.128 0.416 0.16 0.096zM19.776 10.528h-0.576c0.064 0.032 0.128 0.128 0.128 0.288 0.16 0 0.288-0.096 0.448-0.288zM8.896 9.504c-0.096-0.096-0.064-0.352-0.16-0.448-0.224 0.256-0.32 0.416-0.384 0.448l0.288 0.32zM14.56 21.376c0-0.096-0.096-0.384-0.096-0.48-0.096 0-0.256 0.128-0.448 0.416 0.032 0.096 0.096 0.192 0.128 0.32 0.128-0.16 0.256-0.256 0.416-0.256zM15.424 18.976h-0.352c-0.192 0.352-0.32 0.736-0.352 1.12 0.16-0.128 0.416-0.512 0.704-1.12zM11.456 10.496c-0.288-0.16-0.48-0.256-0.576-0.256v1.12c0.192-0.16 0.384-0.448 0.576-0.864zM17.888 18.976c-0.128-0.096-0.352-0.192-0.64-0.288 0 0.416 0.032 0.672 0.096 0.768h0.416c0.096-0.096 0.128-0.256 0.128-0.48zM4.896 17.76v-0.704c-0.16-0.192-0.32-0.288-0.48-0.288s-0.512 0.384-0.544 0.416c0 0.384 0.352 0.992 0.512 0.992 0.096 0 0.288-0.128 0.512-0.416zM14.944 15.936v-0.064c0-0.448-0.512-0.224-0.768-0.384-0.256 0-0.448 0.608-0.448 0.832 0 0.256 0.096 0.64 0.096 0.672 0.512-0.128 1.12-0.192 1.12-1.056zM13.728 19.392c0-0.256-0.128-0.384-0.128-0.416l-1.568-0.416-0.096 0.48c0.48 0 0.864 1.184 1.312 1.184 0 0 0.48-0.544 0.48-0.832zM19.68 7.072c0-0.384-0.48-0.832-0.832-0.832-0.384 0-0.96 0.416-0.96 0.704 0 0.896 0.224 1.344 0.704 1.344 0.352 0 1.088-0.928 1.088-1.216zM9.44 19.776c-0.128-0.032-0.64-1.216-0.928-1.216-0.352 0-0.992 0.352-1.888 1.056v0.448l0.096 0.16 0.672 0.32c0.864 0.256 0.544 0.288 0.768 0.448 0.288 0 1.088-0.896 1.28-1.216zM24.032 9.504c0 1.952-1.408 2.624-2.208 2.624 0.032 0-1.6-0.768-1.632-0.768l-1.44 0.768c-0.16 0-0.512-0.256-0.64-0.256-0.096 0-0.224 0.128-0.448 0.352-0.32 0.352-0.48 0.544-0.48 0.544-0.096-0.128-0.128-0.32-0.128-0.544 0-0.576 0.064-0.896 0.064-0.896-0.032-0.128-0.48-0.832-0.48-1.056 0-0.832 0.128-2.016 0.384-3.584-0.032-0.032-0.128-0.064-0.224-0.064-0.416 0-0.608 0.416-0.64 1.216-0.352 0.128-0.512 0.384-0.512 0.8 0 0.128 0.032 0.288 0.064 0.48 0 1.792-0.096 2.816-0.128 2.816-0.16-0.416-0.352-0.576-0.48-0.576-0.16 0-0.16 0.256-0.288 0.256-0.192 0-1.024-1.344-1.024-1.856 0-0.288 0.032-0.544 0.128-0.768-0.224-0.256-0.512-0.096-0.768-0.48-0.352-0.512-0.224-1.12-0.448-2.432-0.48 0.16-0.704 0.608-0.704 1.312 0 0.224 0.288 0.832 0.832 1.824l-0.128 1.056c-0.032 0.16-0.032 0.288-0.032 0.416 0 0.608 0.416 0.96 0.864 1.92-0.256 0-0.608 0.032-1.088 0.096-0.096 0-0.512 0.448-0.672 0.448s-0.128-0.128-0.288-0.128c-0.128 0-0.64 0.384-0.8 0.384-0.8 0-1.184-0.288-1.184-0.864 0-0.352 0.192-1.184 0.192-1.44 0-0.352-0.16-0.512-0.512-0.512-0.128 0-0.672 0.384-0.832 0.384-0.128 0-0.32-0.32-0.48-0.32-0.544-0.128-0.96-0.192-1.248-0.192-0.224 0.032-0.768 0.192-1.568 0.448-0.416 0.16-0.608 1.088-0.768 1.728-0.16 0.032-0.384 0.128-0.672 0.256-0.224-0.16-0.32-0.608-0.32-1.344 0-0.768 0.128-1.312 0.384-1.664l0.768-0.256c0.416-0.128 0.64-0.416 0.64-0.768 0-0.128-1.088-2.048-1.184-2.432 0.032-0.16 0.096-0.416 0.128-0.768l-0.16-0.544c-0.064-0.224-0.096-0.384-0.096-0.544 0.16-0.128 0.352-0.384 0.576-0.8 0.416 0.288 0.544 1.28 0.672 1.44 0.8 1.024 1.312 1.536 1.536 1.536 0.128 0 0.448-0.256 0.576-0.256 0.16 0 0.224 0.256 0.384 0.256 0.032 0 0.608-0.288 1.728-0.864 3.168-1.6 2.304-0.96 6.592-1.792 0.128 0.032 0.32 0.064 0.544 0.064 0.32 0 0.512-0.256 0.832-0.256 0.48 0 0.8 1.056 1.888 1.408l1.024 0.32 0.96 0.832c1.984 0.672 2.944 2.528 2.944 3.040zM23.68 22.080c0 0.512-0.8 1.632-1.152 1.632-0.608 0-2.528-3.744-2.592-3.744-0.192 0-0.448 0.224-0.768 0.64-0.256-0.16-0.48-0.256-0.704-0.256h-0.32l-0.384 0.608s-0.384 0.128-1.152 0.352c-0.032 0-1.216 0.96-1.28 0.96-0.16 0-0.224-0.128-0.384-0.128-0.032 0-1.632 0.672-1.664 0.672-0.128 0-0.16-0.128-0.32-0.128-0.128 0-0.8 0.64-0.96 0.64 0.032 0-2.080-0.64-2.080-0.64-0.128 0-0.512 0.128-0.64 0.128 0.032 0-0.192-0.096-0.64-0.352-0.768-0.416-1.568 0.32-2.24-1.024-0.416-0.8-0.448-0.704-1.184-0.992-1.728-1.76-2.016-2.336-2.016-3.584 0 0 0.16-1.472 1.12-1.472 0.064 0 0.544 0.096 1.12 0.096 0.128 0 0.256 0 0.352-0.032l2.080-0.384c0.096-0.16 0.224-0.352 0.384-0.352s0.544 0.352 0.672 0.352c0.544 0 0.864 0.032 0.96 0.064l0.32 0.352v0.352c0 1.856-0.416 2.944-0.416 3.104 0 1.184 0.352 1.792 1.024 1.792 0.256 0 0.448-0.16 0.544-0.448-0.256-0.512-0.384-0.896-0.384-1.152 0-0.288 0.192-1.92 0.192-2.368 0-0.352-0.032-0.64-0.096-0.864 0.16-0.192 0.288-0.288 0.384-0.288 0.064 0 1.92-1.152 2.496-1.152-0.064 0 1.664 0.384 2.016 0.384 0 0.288 0.032 0.48 0.128 0.576-0.256 0.096-0.384 0.352-0.384 0.768 0 0.64 0.256 0.96 0.8 0.96 0.064 0 1.408-0.64 1.472-0.64 0.128 0 0.384 0.256 0.512 0.256 0.16 0 0.768-0.512 0.896-0.512 0.16 0 0.704 0.384 0.864 0.384 0.064 0 0.192-0.128 0.416-0.416 0.8-1.024 1.536-1.376 2.048-1.376 0.448 0 0.672 0.48 0.672 1.472 0 1.888-1.376 1.504-1.728 2.432 0.032 0.032 2.016 3.232 2.016 3.328z"></path>
</svg>
