<!-- Generated by IcoMoon.io -->
<svg version="1.1" xmlns="http://www.w3.org/2000/svg" width="32" height="32" viewBox="0 0 32 32">
<title>v</title>
<path d="M11.68 22.912v0zM17.28 19.36l-0.224-0.512-0.256 0.096 0.224 0.416h0.256zM10.464 24.544l-0.096-0.256-0.416 0.224v0.256zM17.472 20.288l-0.224-0.544-0.256 0.128 0.192 0.416h0.288zM12.16 13.984l-0.48-0.48-0.16 0.192 0.416 0.448zM10.88 12.704l-0.48-0.48-0.16 0.192 0.416 0.448zM11.424 13.248l-0.448-0.48-0.192 0.192 0.448 0.448zM18.72 22.016l-0.448-0.448-0.192 0.192 0.448 0.512zM16.448 4.288v-0.32h-0.672v0.32h0.672zM9.152 18.752v-0.32h-0.672v0.32h0.672zM13.6 19.712l-0.192-0.16-0.608 0.608 0.16 0.192zM14.336 16.16l-0.64-0.64-0.16 0.192 0.608 0.64zM16 25.952v-0.832h-0.32v0.832h0.32zM15.456 22.496v-0.864h-0.32v0.864h0.32zM22.24 12.384l-0.256-0.16-0.608 0.832 0.224 0.192zM21.568 18.56l-1.024-0.192v-0.32l1.024 0.192v0.32zM16.864 19.712c-0.416-0.416-0.64-0.704-0.64-0.864-0.064 0.128-0.096 0.256-0.096 0.416 0 0.512 0.096 0.8 0.096 0.8 0-0.256 0.224-0.352 0.64-0.352zM16.48 18.656c0-0.16-0.16-0.384-0.48-0.704 0 0.096-0.224 0.192-0.224 0.544 0 0.16 0.032 0.256 0.128 0.256h0.064c0.256-0.032 0.448-0.064 0.512-0.096zM12.896 16.544l-0.8-1.024-0.256 0.192 0.8 0.992zM15.008 18.752v-0.32h-1.408v0.32h1.408zM18.72 15.168l-0.192-0.192-1.536 1.536 0.192 0.192zM15.296 15.36v-2.144h-0.32v2.144h0.32zM14.496 18.048c-0.512-0.064-1.056-0.096-1.696-0.096-1.088 0-2.336 0.096-3.808 0.256 0.224 0 0.416 0.224 0.608 0.64 0.736-0.128 1.504-0.224 2.24-0.256-0.832-0.032-1.536-0.096-2.112-0.192 1.056-0.224 2.656-0.352 4.768-0.352zM21.216 23.2c-0.832-1.152-2.048-2.4-3.968-3.776l1.088 1.184c-0.224 0.224-0.352 0.352-0.352 0.416 0.096 0 0.16-0.16 0.512-0.16 0.384 0 0.64 0.288 0.8 0.896v0.224l-0.768-0.736 1.536 1.632s-0.064-0.096-0.064-0.288c0-0.032 0.096-0.064 0.256-0.064 0.352 0 0.896 0.64 0.96 0.672zM16.128 16c-0.48 0.224-0.704 0.416-0.704 0.64 0.032 0 0.192-0.128 0.416-0.352 0 0.256 0.064 0.64 0.224 1.12 0.064-1.248 0.128-2.496 0.128-3.776 0-1.408-0.064-2.848-0.16-4.288 0 2.336-0.032 4.096-0.096 5.312-0.096-0.256-0.192-0.544-0.224-0.864l-0.032 1.28v-1.536c-0.064 0.576-0.128 1.024-0.128 1.312 0 0.096 0.032 0.192 0.032 0.256s-0.032 0.096-0.032 0.16c0 0.352-0.032 0.288 0.576 0.736zM16.288 20.352c-0.128 0-0.544-0.192-0.672-0.192v0.672c0 1.088 0.064 2.144 0.192 3.168v-0.384c0-0.48 0.032-1.248 0.128-2.368 0.192 0.832 0.32 1.888 0.32 3.168 0 0.32-0.032 0.672-0.032 1.024 0.128-1.024 0.192-2.016 0.192-2.912 0-0.768-0.064-1.472-0.128-2.176zM11.616 22.464l-0.192-0.192-0.448 0.448 0.672 0.192-1.248 1.312 0.224 0.128 4.992-5.216-0.192-0.128-3.744 3.904zM21.408 13.216c-0.352 0.192-0.672 0.416-0.96 0.704-0.032-0.064-0.064-0.128-0.064-0.192 0-0.224 0.256-0.672 0.256-0.704-1.024 0.992-1.6 1.664-1.728 1.984 0.384-0.384 0.608-0.576 0.704-0.576-0.224 0.352-1.216 1.504-2.912 3.488 1.696-1.504 3.264-3.072 4.704-4.704zM18.496 18.208c-0.416 0.064-0.96 0.192-1.632 0.384h6.080c-0.416-0.032-0.8-0.16-1.152-0.384l0.256-0.256c-0.096-0.064-0.192-0.096-0.352-0.096h-0.48c-0.352 0-0.576-0.224-0.736-0.64h-0.992l-0.256 0.352h0.832l0.16-0.16 0.288 0.224c-0.576 0.096-2.72 0.32-3.296 0.416h0.384c0.416 0 0.704 0.032 0.896 0.16zM28.544 18.528l0.096 0.512v0.096c0 0.16-0.096 0.256-0.256 0.256v0s-6.144-0.16-6.176-0.16c-0.48 0-1.184 0.224-2.048 0.64l4.928 7.104c-0.032 0.096-0.096 0.256-0.256 0.48l-3.392-2.688c-1.376-1.088-2.56-1.888-3.552-2.432l-1.44 8.576h-0.48l-1.12-8.096-0.288-0.288-7.552 4.896c1.152-1.568 2.848-3.904 5.088-7.040 0-0.416-4.8-1.056-8.768-1.792 1.952-0.352 4.576-0.832 7.904-1.408 0.16-0.096 0.416-0.224 0.704-0.448l-4.576-7.104c0.032-0.096 0.096-0.256 0.256-0.48l6.4 5.312c0.384-0.352 0.64-0.864 0.768-1.568 0.768-4.32 1.152-6.656 1.152-7.008 0-0.608-0.8-0.544-0.8-0.672 0-0.064 0.096-0.192 0.256-0.352-0.096-0.096-0.768-0.192-0.896-0.32 0-0.16 0.192-0.416 0.544-0.768-0.064-0.064-0.48-0.288-1.28-0.672 0-0.416 0.384-0.896 0.8-0.896 0.224 0 0.416 0.064 0.512 0.192 0-0.48 0.256-1.216 0.736-2.176 0.512 0 1.344 0.832 1.344 1.472 0 0.192-0.096 0.512-0.32 0.512h0.224c0.768 0 1.184 0.032 1.248 0.064v0.8c-0.096 0.128-0.352 0.192-0.736 0.224-0.032 0.416-0.192 1.056-0.448 1.952-0.544 0.256-0.8 0.576-0.8 0.992 0 0.864 0.48 3.488 1.408 7.872 1.888-0.96 4.192-2.464 6.88-4.544h0.64l-5.28 7.008 0.672 0.608c1.76 0.352 4.416 0.8 7.904 1.344z"></path>
</svg>
