<!-- Generated by IcoMoon.io -->
<svg version="1.1" xmlns="http://www.w3.org/2000/svg" width="35" height="32" viewBox="0 0 35 32">
<title>w</title>
<path d="M15.968 15.488l-0.832-0.416-0.16 0.448 0.8 0.384zM9.472 10.304l-0.768-0.8-0.32 0.32 0.768 0.768zM18.048 5.888c-0.192 0-0.608 0.832-0.736 0.896-0.128-0.096-0.224-0.16-0.32-0.16-0.064 0-0.128 0.032-0.16 0.064l0.832 0.416c0.256-0.256 0.384-0.672 0.384-1.216zM10.048 8l-1.216-0.384v0.448l1.056 0.384zM17.44 8.448v-0.512h-1.152v0.512h1.152zM20.48 7.392c0-0.192-0.32-0.608-0.928-1.216-0.288 0-0.416 0.416-0.416 1.216l0.672-0.608zM17.728 13.12v-0.544h-1.44v0.544h1.44zM13.376 9.376v-0.48l-2.688-0.64v0.48zM23.008 14.656v-0.544h-3.936v0.544h3.936zM14.048 18.656h-4.544l-0.384 0.512h4.544zM23.968 16.224v-0.544h-4.576v0.544h4.576zM22.4 12.96c0-0.608-0.288-0.896-0.864-0.896-0.352 0-2.592 0.352-3.040 0.352v0.544h3.904zM14.944 20.864v-0.512h-7.648v0.512h7.648zM13.44 11.296c0-0.48-0.128-0.736-0.416-0.768-0.288 0.096-0.576 0.128-0.896 0.128-0.64 0-1.216-0.128-1.76-0.384 0.768 1.408 1.248 2.72 2.080 2.72 0.032-0.128 0.992-1.152 0.992-1.696zM25.184 17.792v-0.864h-8.256v0.864h8.256zM25.504 19.328v-0.832h-8.896v0.832h8.896zM19.2 11.776c0.736 0 1.568-0.288 2.592-0.832h-0.128c-0.512 0-2.272-0.576-2.624-0.896l0.512-0.48h1.92c0-0.288-0.256-0.672-0.8-1.216 0 0.832-1.568 1.024-3.712 1.408v0.16c0 0.704-0.672 1.024-1.952 1.024 1.088 0.544 1.952 0.832 2.624 0.832 0.224 0 0.352-0.064 0.352-0.192 0-0.032-0.064-0.224-0.064-0.256 0-0.128 0.128-0.192 0.352-0.192 0.512 0 0.416 0.64 0.928 0.64zM31.424 22.24h-12.096l1.792 1.92c0.96 1.056 1.472 1.984 1.568 2.784-1.44-0.608-2.624-1.376-3.52-2.24-1.184-1.152-1.824-2.368-4.32-2.368-0.224 0-1.088 0.768-2.624 2.304-1.536 1.568-2.432 2.336-2.656 2.336-0.48 0-1.28-0.384-1.696-0.384 0.416-1.056 2.88-4.352 3.104-4.672-1.344-0.16-6.432-0.48-7.776-0.64 0.544-0.544 1.184-0.832 1.856-0.832 1.056 0 3.328-1.984 3.328-3.2 0-0.32-0.128-0.8-0.128-0.992 0-0.32 0.896-0.832 1.792-1.28-0.096-0.32-0.736-1.184-1.888-2.592-1.056-1.248-1.6-2.272-1.6-3.008 0-0.16 0.032-0.352 0.064-0.512-0.096-0.032-0.192-0.064-0.32-0.064-0.256 0-1.536 0.448-1.76 0.448-0.704-0.672-1.056-1.344-1.056-1.984 0-1.44 1.312-2.656 2.496-2.656 0.608 0 1.376 0.352 1.504 0.352 0 0.224-0.256 1.088-0.256 1.312l0.512 0.512c-0.032-0.032-0.032-0.064-0.032-0.096 0-0.16 0.192-0.224 0.608-0.224 0.64 0 4.864 1.728 5.024 2.208 0.832-0.544 2.496-3.2 3.712-4.256-0.032-0.224-0.064-0.416-0.064-0.64 0-1.184 1.184-2.272 2.368-2.272 0.8 0 1.184 0.576 1.184 1.728 0 0.64-0.192 1.76-0.192 1.792 0.224 0.32 0.576 0.704 1.024 1.152 0.992-0.832 3.328-4 4-4.672 0.96 0.48 1.44 0.928 1.44 1.408 0 0.256-0.64 1.216-1.888 2.88-1.248 1.632-1.856 2.592-1.856 2.848 0 1.056 0.224 2.112 0.672 3.168 1.568 0.96 5.856 2.752 6.464 3.040-0.192 0.224-0.576 0.352-1.12 0.352-0.448 0-3.104-0.416-3.904-0.416h-0.256c0.192 0.48 2.144 1.44 2.176 1.44-0.256 0.448-0.384 0.864-0.384 1.28 0 0.832 0.704 1.696 2.144 2.624 1.568 0.992 2.4 1.728 2.56 2.112z"></path>
</svg>
