<!-- Generated by IcoMoon.io -->
<svg version="1.1" xmlns="http://www.w3.org/2000/svg" width="35" height="32" viewBox="0 0 35 32">
<title>x</title>
<path d="M31.488 9.696c0 0.32-0.64 1.312-1.888 2.944-2.080 2.72-3.136 4.064-3.168 4.096l0.64 0.736c0.32 0.384 0.608 0.608 0.704 0.704-0.608 0-1.632-0.48-1.984-0.48-0.128 0-0.256 0.032-0.384 0.096 0.576 0.608 2.784 1.792 3.392 2.368-0.16 0.064-0.32 0.096-0.48 0.096-0.256 0-1.92-0.416-2.56-0.416l3.296 2.24v1.216c-0.704-0.32-1.632-0.8-2.72-1.696l-2.432-1.984-0.192 0.224v0.64c0.448 0.544 2.432 1.696 2.432 2.432 0 0.224-0.064 0.448-0.16 0.736-0.736-0.448-2.272-2.016-2.272-2.656 0-0.032 0-0.096 0.032-0.128-0.224-0.16-0.384-0.256-0.416-0.256-0.096 0.16-0.16 0.384-0.16 0.672 0 0.384 0.192 1.376 0.192 1.664-0.128 0-0.384-0.224-0.8-0.64-1.248 1.024-3.008 2.944-5.344 5.728-0.48-0.128-0.864-0.48-1.088-1.024l-0.576-1.408c-0.544-0.928-3.040-3.072-3.456-3.616l-0.736 0.704c-0.256 0.256-0.512 0.384-0.8 0.384-0.16 0-0.384-0.064-0.608-0.16 0-0.288 0.416-0.832 1.312-1.76-0.48-0.224-0.704-0.352-0.704-0.384l-0.192-1.152c-1.28 0.736-4.576 3.648-4.672 3.712l-0.832-0.864c1.344-1.056 3.040-2.176 5.056-3.392 0.032-0.032 0.032-0.064 0.032-0.096 0-0.096-0.064-0.224-0.224-0.352-1.12 0.8-2.112 1.344-3.040 1.664-0.512-0.512-0.768-0.832-0.768-0.928l1.664-0.512c0.672-0.256 1.248-0.576 1.664-0.928-0.16-0.16-0.448-0.256-0.8-0.256-0.384 0-1.28 0.16-1.536 0.16 0.224-0.224 1.088-0.864 1.344-1.088-1.92-2.848-4.128-6.24-5.056-8.128 0.32-0.192 0.544-0.288 0.672-0.288 0.064 0 0.096 0 0.128 0.032 0.672 0.768 1.408 1.152 2.208 1.152 0.704 0 0.192-0.32 0.864-0.32 0.64 0 1.28 1.088 2.080 2.016l2.112-0.224-4.704-3.2c0.8 0.16 3.936 2.24 4.704 2.24 0.128 0 0.256 0 0.352-0.032-0.864-0.864-4.512-4.128-5.408-4.992 0.064-0.16 0.224-0.448 0.48-0.864 0.448 0.256 3.488 2.912 3.68 3.040 0-0.928-0.352-1.92-1.088-2.976 0.48 0.192 1.28 1.024 2.368 2.464 0.736 0.96 2.144 3.232 2.304 3.232 0.096 0 0.192-0.064 0.352-0.224-1.312-2.016-1.952-3.488-1.952-4.352 0-0.16 0.032-0.352 0.064-0.512l0.544 0.704c0.288 0.384 0.768 1.024 0.928 1.024 0.096 0 0.256-0.064 0.416-0.224-0.224-0.48-0.352-0.928-0.352-1.376 0-0.288 0.064-0.576 0.192-0.8 0.224 0.448 0.576 1.12 0.992 2.016 0.096-0.288 0.128-0.608 0.128-0.992s-0.192-2.176-0.192-2.688c0.864 0.8 1.76 3.712 1.76 3.68 0.544-0.672 2.464-2.144 2.912-2.688 0 0.096 0.032 0.224 0.032 0.384 0 0.864-0.192 2.208-0.192 2.656 0.224-0.224 0.64-1.12 0.896-1.344 0.16 0 0.544 0.768 0.896 0.992l0.928-0.64c0 0.224-0.224 1.216-0.672 3.040 0.8-0.928 2.016-2.144 3.68-3.712-0.032 0.608-0.32 1.28-0.96 1.92l-1.952 1.952c-0.032 0.032-0.032 0.064-0.032 0.096 0 0.096 0.064 0.224 0.224 0.384 0.992-0.608 4.416-3.584 4.96-3.968h1.216c-0.672 0.672-1.568 1.472-2.72 2.4l-2.976 2.4c-0.064 0.064-0.064 0-0.064 0.064s0.128 0.096 0.544 0.096c0.544 0 3.84-1.984 3.808-1.984 0 0.384-0.192 0.768-0.608 1.152 0.128 0.128 0.352 0.224 0.544 0.224 1.696 0 2.816-0.192 3.712-0.704 0.32 0.032 0.48 0.288 0.48 0.832zM21.024 14.752c-0.032-1.696-0.16-2.72-0.48-3.136-0.864-1.024-2.24-2.112-2.88-2.112-2.496 0-4.384 1.632-4.384 4.064 0 2.208 2.016 4.704 4.384 4.704 0.448 0 1.6-1.344 2.016-1.344 0.352 0 0.576 0 0.608 0.032l0.256 0.32c0.064-0.096 0.096-0.16 0.096-0.224 0-0.032-0.192-0.288-0.608-0.704 0-0.064 0.992-1.056 0.992-1.6zM27.2 10.88c-4.576 5.184-7.936 9.216-10.048 12.096-0.928-1.056-2.016-2.432-3.264-4.128l-3.296-4.416c0.864-0.416 1.312-0.8 1.312-1.152-1.056 0-1.984 0.288-2.080 0.288-2.24-3.072-1.984-2.752-3.232-3.68 0.96 1.312 2.24 3.264 3.872 5.92 3.712 6.016 4.8 7.232 7.072 8.192 0.416-0.416 1.024-1.184 1.856-2.336 2.048-2.88 2.816-3.456 3.968-3.456-0.032-0.096-0.064-0.224-0.064-0.384 0-0.8 0.608-1.984 1.824-3.776 1.312-1.92 2.016-3.008 2.080-3.168zM19.328 12.768c0 0.48-0.48 1.184-1.408 2.112h-1.888c-0.032-0.16-0.032-0.352-0.032-0.512 0-0.48 0.096-0.928 0.32-1.28-0.032-0.032-1.408-0.512-1.664-1.056l0.768-0.8h1.152c0.128 0.224 0.16 0.512 0.16 0.864 0 0.864-0.064 1.504-0.096 1.6 0.416 0.352 0.672 0.544 0.8 0.544 0.096-0.064 0.224-0.256 0.448-0.544-0.352-1.312-0.512-2.016-0.512-2.112 0.096 0 0.832-0.128 1.216-0.128 0.288 0 0.544 0.064 0.736 0.16v1.152zM18.24 4.096c-0.832-0.672-1.248-1.376-1.248-2.144 0-0.608 0.416-1.088 1.248-1.504 0.096 0.32 0.128 0.736 0.128 1.28 0 1.504-0.128 2.304-0.128 2.368zM26.4 9.92c-1.76 0.704-3.712 1.536-4.352 2.24h1.216l1.568-0.864c0.736-0.416 1.248-0.896 1.568-1.376zM24.352 12.608c-0.736 0-1.536 0.32-1.92 0.32 0 0.16 0.16 0.352 0.48 0.64l0.704 0.64c0-0.096 0.736-1.504 0.736-1.6zM17.984 16.48l-1.568 0.416c-0.256-0.416-0.384-0.704-0.384-0.928 0.48 0 0.864-0.128 1.088-0.384zM17.12 21.248v-2.24h-0.576v2.24h0.576zM18.624 19.936c0.064-0.096 0.096-0.192 0.096-0.32 0-0.48-0.192-0.928-0.608-1.344 0 0.416-0.384 1.888-0.384 1.984 0.224 0 0.512-0.096 0.896-0.32zM16.128 8.128l-0.384-1.92h-0.576l0.352 1.92h0.608zM18.816 5.856h-0.576l-0.384 1.92h0.608zM21.152 6.624l-0.48-0.16-0.768 1.536 0.48 0.192zM11.744 8.288l-0.832-1.216-0.448 0.32 0.8 1.184zM23.104 14.72l-1.248-0.608-0.16 0.48 1.184 0.608zM19.456 6.88h-0.48l-0.416 1.12 0.48 0.192zM25.824 19.392l-0.832-0.864-0.32 0.352 0.8 0.832zM16.096 19.104l-0.48-0.192-0.416 0.864 0.448 0.224zM11.776 12.288h-0.32c-0.192-0.032-0.352-0.064-0.512-0.064-0.448 0-0.768 0.192-0.96 0.608 0.224-0.096 0.832-0.288 1.792-0.544z"></path>
</svg>
