<!-- Generated by IcoMoon.io -->
<svg version="1.1" xmlns="http://www.w3.org/2000/svg" width="26" height="32" viewBox="0 0 26 32">
<title>y</title>
<path d="M20.608 16.256l-0.16 0.32-0.16-0.064 0.128-0.288zM22.304 9.6c-0.032 0.8-2.048 1.696-2.4 1.696l-0.224-0.128c0.032 0-2.304 0.48-2.304 0.48-0.16 0-0.352-0.128-0.512-0.128-0.224 0-3.264 2.048-3.744 2.464h-0.384c-0.096-0.16-0.16-0.384-0.16-0.704 0-0.448 0.16-0.96 0.512-1.536l0.992-1.696c0.16-0.352 0.256-0.864 0.288-1.6 0.064-1.504 0.128-1.312 0.864-2.496l0.256-0.96c0.192-0.48 0.48-0.736 0.896-0.736 0.192 0 0.384 0.16 0.608 0.512 0.288 0.512 0.448 0.768 0.48 0.8 0.032 0 0.096 0 0.192-0.032 0.384-0.768 0.96-1.728 1.952-1.728 1.184 0 2.24 0.928 2.24 2.048-0.096 0.544-0.256 1.12-0.48 1.76 0.608 0.8 0.928 1.44 0.928 1.984zM21.952 21.216c0 0.512-0.352 0.96-1.024 1.344-0.928 0.544-1.6 1.184-2.048 1.984h-0.544c0-0.288-0.032-0.736-0.064-1.344-0.48-0.512-1.088-0.768-1.888-0.768-0.16 0-0.32 0.224-0.48 0.224l-0.16-0.32c0.32 0 0.48-0.192 0.48-0.608 0-0.288-0.096-0.512-0.288-0.704l-0.672 0.992c-0.288 0.416-0.64 0.64-1.024 0.64-0.224 0-0.416-0.096-0.576-0.256l-0.064-2.304c-0.16-1.536-1.408-2.24-2.304-2.24-0.48 0-0.992 0.16-1.536 0.448-1.696 0.896-2.080 0.672-2.272 1.504 0.096 0.416 0.16 0.8 0.16 1.184 0 0.768-0.224 1.408-0.64 1.92-0.768-0.64-1.248-0.96-1.44-0.96-0.16 0-0.832 0.512-1.056 0.608 0-0.064-1.312-0.032-1.312-0.704 0-0.704 0.288-1.472 0.832-2.304-0.544-0.512-0.832-0.928-0.832-1.216 0-0.48 0.32-0.704 0.96-0.704 0.16 0 0.352 0.096 0.576 0.096 1.312 0 1.6-0.32 2.496-1.728l0.512-0.224c0.16-0.928 0.256-1.696 0.256-2.368 0-0.704-0.832-1.824-1.088-1.824l-2.752-0.192c0-0.032-0.256-0.384-0.256-0.608 0-0.608 0.896-0.992 1.888-1.568 0-0.16-0.16-0.384-0.576-0.704-0.8-0.576-0.864-0.832-0.864-1.472 0-0.32 0.032-0.768 0.096-1.28-0.128 0-0.192-0.096-0.192-0.256 0-0.544 0.064-0.928 0.16-1.216h0.64c0.32 0.256 0.576 0.768 0.736 1.536 0.096 0.544 0.512 0.8 1.216 0.8 0.032 0 1.728-0.704 1.76-0.704 0.256 0 0.352 0.32 0.384 0.32h0.032c0.16 0 0.416 0.128 0.672 0.448l0.704 0.864c0.352 0 0.96-1.76 2.432-1.76 0.352 0 0.768 0.576 0.768 0.992 0 0.512-0.16 0.896-0.448 1.184l-1.408 1.312c-0.16 0.192-0.352 0.64-0.544 1.376-0.544 2.208-0.384 1.984-1.856 4.352-0.128 0.032-0.672-0.064-0.672 0.448 0 0.288 0.064 0.416 0.224 0.416 0.224 0 0.416-0.128 0.576-0.416l0.32-0.48c0.16-0.128 1.152-0.992 1.664-0.992 0.096 0.096 0.16 0.224 0.16 0.352 0 0.352-0.16 0.768-0.48 1.248 0.128 0.096 0.192 0.16 0.224 0.16 0.16 0 3.84-1.184 5.44-1.888 0.416-0.416 1.088-0.8 1.376-0.8 0.352 0 0.704 0.16 1.056 0.48-0.224 1.76-0.16 1.856-0.832 2.272 0.064 0.128 1.344 0.736 1.6 1.76 0 0.64-0.224 0.992-0.224 1.472 0 0.256 0.032 0.512 0.064 0.736 0.32 0.352 1.952 0.544 1.952 1.44z"></path>
</svg>
