<!-- Generated by IcoMoon.io -->
<svg version="1.1" xmlns="http://www.w3.org/2000/svg" width="30" height="32" viewBox="0 0 30 32">
<title>zero</title>
<path d="M26.976 23.552c-0.032 0.256-0.256 0.384-0.672 0.384-0.48 0-1.12-0.64-1.376-0.736-0.48-0.032-1.248-0.064-2.24-0.16-2.336-3.072-4.896-6.432-7.616-10.048-0.64 0.704-8 9.856-8.32 9.856-0.416 0-1.12-0.544-1.504-0.544-0.544 0-1.088 0.512-1.568 0.512-0.16 0-0.32-0.032-0.48-0.064l10.944-14.048v-3.712c-1.632-0.736-2.464-1.472-2.464-2.24 0-1.28 1.728-2.336 3.424-2.336 1.312 0 2.848 1.152 2.848 2.464 0 1.728-1.92 1.408-2.72 2.368 0.064 0.224 0.096 0.48 0.096 0.8 0 0.256-0.064 0.96-0.064 1.216 0 0.48 0.096 0.864 0.288 1.152 2.432 3.872 10.688 14.112 11.424 15.136zM16.864 2.464c-0.928-0.64-1.792-0.96-2.592-0.96-0.416 0-0.8 0.224-1.216 0.64v1.216c1.216 0.416 2.176 0.608 2.848 0.608 0.288 0 0.48-0.224 0.64-0.672 0.224-0.544 0.32-0.832 0.32-0.832z"></path>
</svg>
